<?xml version="1.0" encoding="UTF-8" standalone="no"?>
<svg
   xmlns:dc="http://purl.org/dc/elements/1.1/"
   xmlns:cc="http://creativecommons.org/ns#"
   xmlns:rdf="http://www.w3.org/1999/02/22-rdf-syntax-ns#"
   xmlns:svg="http://www.w3.org/2000/svg"
   xmlns="http://www.w3.org/2000/svg"
   xmlns:sodipodi="http://sodipodi.sourceforge.net/DTD/sodipodi-0.dtd"
   xmlns:inkscape="http://www.inkscape.org/namespaces/inkscape"
   id="Capa_1"
   enable-background="new 0 0 512 512"
   height="512"
   viewBox="0 0 512 512"
   width="512"
   version="1.1"
   sodipodi:docname="encanador.svg"
   inkscape:version="1.0.1 (3bc2e813f5, 2020-09-07)">
  <metadata
     id="metadata30">
    <rdf:RDF>
      <cc:Work
         rdf:about="">
        <dc:format>image/svg+xml</dc:format>
        <dc:type
           rdf:resource="http://purl.org/dc/dcmitype/StillImage" />
      </cc:Work>
    </rdf:RDF>
  </metadata>
  <defs
     id="defs28">
    <clipPath
       clipPathUnits="userSpaceOnUse"
       id="clipPath48">
      <rect
         style="fill:#cccccc;stroke-width:3"
         id="rect50"
         width="121.03979"
         height="105.90982"
         x="-365.28082"
         y="-4.3228498" />
    </clipPath>
    <clipPath
       clipPathUnits="userSpaceOnUse"
       id="clipPath26">
      <rect
         style="fill:none;stroke:#000000;stroke-width:1.32292;stroke-linejoin:round"
         id="rect28"
         width="30.994047"
         height="29.482143"
         x="-191.25594"
         y="-18.898811"
         transform="scale(1,-1)" />
    </clipPath>
  </defs>
  <sodipodi:namedview
     pagecolor="#ffffff"
     bordercolor="#666666"
     borderopacity="1"
     objecttolerance="10"
     gridtolerance="10"
     guidetolerance="10"
     inkscape:pageopacity="0"
     inkscape:pageshadow="2"
     inkscape:window-width="1600"
     inkscape:window-height="837"
     id="namedview26"
     showgrid="false"
     inkscape:zoom="1"
     inkscape:cx="156.40295"
     inkscape:cy="256.76661"
     inkscape:window-x="-8"
     inkscape:window-y="-8"
     inkscape:window-maximized="1"
     inkscape:current-layer="Capa_1"
     inkscape:document-rotation="0" />
  <g
     id="g923"
     transform="matrix(0.972,0,0,0.972,-0.56358335,-18.869927)"
     style="display:inline;stroke-width:1.16667;stroke-miterlimit:4;stroke-dasharray:none" />
  <rect
     style="display:inline;fill:#000000;fill-opacity:1;stroke:#ffffff;stroke-width:7.91733;stroke-linejoin:round;stroke-opacity:1"
     id="rect81"
     width="78.553169"
     height="79.766457"
     x="150.16626"
     y="29.839111" />
  <path
     style="fill:#000000;fill-opacity:1;stroke:#ffffff;stroke-width:7.91733;stroke-linecap:butt;stroke-linejoin:miter;stroke-miterlimit:4;stroke-dasharray:none;stroke-opacity:1"
     d="M 148.56313,18.890773 83.63654,19.672798 C 49.801688,32.105245 21.959305,57.035062 9.491972,86.144847 l -2.0039073,100.099083 108.6117753,0.39102 0.40078,-45.74842 c 3.39836,-17.26959 18.84513,-21.98782 32.86408,-22.67869 z"
     id="path89"
     sodipodi:nodetypes="cccccccc" />
  <path
     style="fill:#000000;fill-opacity:1;stroke:#ffffff;stroke-width:7.91733;stroke-linecap:butt;stroke-linejoin:miter;stroke-miterlimit:4;stroke-dasharray:none;stroke-opacity:1"
     d="M 376.207,344.21279 365.78668,94.747108 C 359.21602,53.221694 326.653,35.104369 292.84446,18.108749 l -63.32347,-0.391012 -1.60312,101.272123 c 16.31167,0.51274 26.17113,5.22211 29.65783,14.07644 l 4.80937,126.6879 2.23751,161.22505 C 256.61164,469.76774 289.0116,495.54411 329,491 h 106 v -83 l -58,1 z"
     id="path91"
     sodipodi:nodetypes="ccccccccccccc" />
  <path
     style="display:inline;fill:#000000;fill-opacity:1;stroke:#ffffff;stroke-width:7.91733;stroke-linecap:butt;stroke-linejoin:round;stroke-miterlimit:4;stroke-dasharray:none;stroke-opacity:1"
     d="M 325.70854,263.66432 114.89749,434.9276 c -16.423553,60.24014 16.35033,65.37123 56.91097,61.7799 L 354.5648,294.16325 c 20.94248,17.57753 40.50641,23.05029 59.31565,21.89668 35.00013,-23.33111 66.90178,-48.17366 84.96567,-79.76646 14.10674,-23.89845 0.70483,-40.64008 -16.83281,-56.30573 l -57.71253,61.7799 c -7.12556,4.44784 -17.47203,-1.0152 -25.77705,-3.54118 -9.62335,-2.92694 -23.55392,-23.72786 -22.31673,-39.47014 l 64.92659,-60.21586 c -11.36629,-8.72203 -20.18909,-19.9256 -41.68126,-18.76858 -41.70913,17.02638 -71.0315,43.72063 -91.37817,77.42038 -11.05179,28.76424 -3.3549,50.21184 17.63438,66.47206 z"
     id="path87"
     sodipodi:nodetypes="ccccccccsccccc"
     inkscape:label="chave" />
</svg>
