<svg id="Capa_1" enable-background="new 0 0 512 512" height="512" viewBox="0 0 512 512" width="512" xmlns="http://www.w3.org/2000/svg"><g><path d="m124.329 175.325 12.189 3.175 12.473-9.355c1.843-1.389 4.195-1.814 6.406-1.247l17.745 4.648 12.472-9.355c2.041-1.53 4.337-1.785 6.719-1.162l17.461 4.564 12.472-9.354c2.069-1.56 4.337-1.786 6.775-1.162l17.377 4.564 12.501-9.355c1.956-1.474 4.252-1.813 6.576-1.19l17.575 4.592 12.472-9.354c2.041-1.531 4.339-1.786 6.72-1.162l17.461 4.563 12.473-9.354c2.069-1.559 4.337-1.786 6.746-1.162l17.405 4.564 12.472-9.355c2.014-1.502 4.281-1.785 6.662-1.19l17.519 4.593 12.473-9.355c2.126-1.588 4.365-1.786 6.832-1.134l17.319 4.536 12.501-9.355c2.069-1.56 4.337-1.786 6.774-1.134l17.377 4.535 12.473-9.354c2.069-1.531 4.479-1.786 6.86-1.135l11.396 3.09v-57.628h-172.264c-4.139 0-7.483-3.345-7.483-7.483 0-4.139 3.345-7.512 7.483-7.512h173.936c7.909 0 13.323 5.414 13.323 13.322v69.109c0 4.876-4.678 8.533-9.468 7.23l-17.773-4.819-12.189 9.128c-1.785 1.445-4.194 2.041-6.577 1.417l-17.801-4.649-12.274 9.185c-1.786 1.446-4.195 2.041-6.576 1.417l-17.802-4.648-12.246 9.184c-1.785 1.445-4.195 2.041-6.576 1.417l-17.803-4.648-12.273 9.184c-1.786 1.446-4.195 2.041-6.577 1.418l-17.801-4.65-12.274 9.185c-1.757 1.445-4.167 2.041-6.548 1.417l-17.83-4.648-12.247 9.184c-1.785 1.445-4.195 2.041-6.576 1.417l-17.801-4.649-12.274 9.185c-1.786 1.446-4.195 2.041-6.576 1.417l-17.802-4.648-12.246 9.185c-1.786 1.445-4.195 2.041-6.577 1.417l-17.802-4.648-12.274 9.184c-1.786 1.446-4.195 2.041-6.577 1.418l-17.801-4.648-12.275 9.184c-1.757 1.445-4.167 2.041-6.548 1.418l-13.068-3.402c-1.729 6.945-5.329 13.182-10.261 18.085-7.03 7.031-16.754 11.425-27.468 11.425h-62.25c-6.378 0-12.189-2.608-16.384-6.804-4.197-4.229-6.805-10.012-6.805-16.39v-128.693c0-6.379 2.608-12.19 6.804-16.385 4.195-4.195 10.006-6.803 16.384-6.803h93.629 19.616 154.348c4.139 0 7.484 3.373 7.484 7.512s-3.346 7.483-7.484 7.483h-125.405c4.11 5.812 6.548 12.869 6.548 20.494 0 9.751-3.996 18.624-10.431 25.059-6.406 6.435-15.279 10.432-25.059 10.432h-12.104v59.443zm321.537-86.288c-4.167 0-7.512-3.373-7.512-7.512s3.345-7.512 7.512-7.512h23.699c4.139 0 7.512 3.373 7.512 7.512s-3.373 7.512-7.512 7.512zm-194.827 179.521c-4.139 0-7.512-3.345-7.512-7.483 0-4.167 3.373-7.512 7.512-7.512h62.902c4.139 0 7.512 3.345 7.512 7.512 0 4.139-3.373 7.483-7.512 7.483zm134.847 133.683c-4.167 0-7.513-3.373-7.513-7.512s3.346-7.512 7.513-7.512h86.485c4.139 0 7.483 3.373 7.483 7.512s-3.345 7.512-7.483 7.512zm-45.725 34.442c-4.138 0-7.512-3.345-7.512-7.483s3.374-7.512 7.512-7.512h41.331c4.166 0 7.512 3.373 7.512 7.512s-3.346 7.483-7.512 7.483zm-57.09-133.173c-4.139 0-7.483-3.346-7.483-7.513 0-4.139 3.345-7.483 7.483-7.483h106.018c4.139 0 7.483 3.345 7.483 7.483 0 4.167-3.345 7.513-7.483 7.513zm-112.083 59.187h-21.231c-8.391 0-16.442-1.503-23.897-4.224 7.824 11.197 12.416 24.804 12.416 39.516 0 19.077-7.739 36.368-20.268 48.869-1.843 1.871-3.827 3.601-5.868 5.244h75.289c-2.04-1.643-4.025-3.373-5.867-5.244-12.501-12.501-20.24-29.792-20.24-48.869 0-12.897 3.515-24.945 9.666-35.292zm-21.174-138.247h212.373c8.391 0 16.441 1.503 23.926 4.252 7.738 2.863 14.825 7.059 20.977 12.331 3.147 2.693 3.515 7.398.821 10.545-2.664 3.146-7.398 3.515-10.545.822-4.79-4.11-10.346-7.398-16.413-9.639-5.81-2.154-12.133-3.316-18.766-3.316h-169.429c2.069 1.645 4.025 3.374 5.896 5.244 12.501 12.501 20.239 29.793 20.239 48.869 0 14.714-4.592 28.348-12.416 39.573 7.881-2.92 15.591-4.195 23.953-4.28h172.86c3.827-4.45 6.917-9.525 9.156-15.023 2.494-6.236 3.884-13.067 3.884-20.27 0-2.976-.228-5.782-.624-8.39-.425-2.778-1.077-5.499-1.928-8.164-1.275-3.912.907-8.136 4.819-9.383 3.939-1.275 8.163.879 9.41 4.819 1.078 3.345 1.899 6.831 2.467 10.432.566 3.6.851 7.171.851 10.686 0 9.101-1.786 17.831-5.018 25.825-1.304 3.288-2.892 6.463-4.677 9.468h21.26c5.442 0 10.772.624 15.902 1.843 5.272 1.247 10.346 3.117 15.081 5.499 3.713 1.87 5.188 6.378 3.316 10.062-1.843 3.686-6.35 5.159-10.036 3.317-3.685-1.871-7.625-3.317-11.764-4.281-3.996-.936-8.191-1.445-12.5-1.445h-169.455c2.068 1.645 4.024 3.401 5.896 5.244 12.501 12.501 20.24 29.792 20.24 48.898 0 19.077-7.739 36.368-20.24 48.869-1.871 1.871-3.827 3.601-5.896 5.244h169.457c14.939 0 28.46-6.065 38.269-15.846 9.779-9.808 15.846-23.329 15.846-38.268 0-5.188-.709-10.147-2.041-14.825-1.361-4.876-3.402-9.44-5.982-13.636-2.183-3.486-1.077-8.106 2.438-10.262 3.487-2.182 8.107-1.076 10.262 2.41 3.345 5.386 5.953 11.254 7.71 17.434 1.701 6.038 2.608 12.359 2.608 18.879 0 19.077-7.739 36.368-20.239 48.869-12.501 12.501-29.794 20.239-48.87 20.239h-373.754c-19.106 0-36.369-7.738-48.898-20.239-12.501-12.499-20.24-29.79-20.24-48.867 0-19.106 7.739-36.397 20.24-48.898 12.529-12.501 29.792-20.239 48.898-20.239h21.146c-6.123-10.318-9.666-22.394-9.666-35.293 0-19.076 7.739-36.368 20.268-48.869 12.87-12.898 30.643-20.353 48.928-20.24zm-113.218 193.071c-2.126-3.544-.964-8.136 2.579-10.262s8.136-.964 10.262 2.579c3.26 5.414 8.419 9.015 14.117 10.432 5.727 1.445 11.991.681 17.434-2.579 5.442-3.26 9.014-8.419 10.46-14.116 1.418-5.727.652-11.991-2.608-17.462-3.26-5.415-8.419-9.016-14.116-10.433-5.726-1.417-11.991-.681-17.434 2.608-3.543 2.098-8.135.963-10.262-2.58-2.126-3.543-.963-8.135 2.58-10.262 8.986-5.385 19.276-6.633 28.687-4.309 9.439 2.354 17.972 8.306 23.386 17.32 5.387 8.958 6.634 19.276 4.281 28.688-2.354 9.411-8.306 17.972-17.292 23.357-8.986 5.414-19.275 6.661-28.687 4.309-9.441-2.352-17.973-8.305-23.387-17.29zm209.285-54.2c3.77 1.672 5.471 6.094 3.77 9.864-1.672 3.77-6.095 5.471-9.864 3.77-5.812-2.579-12.105-2.551-17.604-.453-5.471 2.098-10.148 6.321-12.756 12.133-2.58 5.811-2.58 12.104-.454 17.604 2.098 5.471 6.321 10.148 12.132 12.756 5.783 2.58 12.104 2.551 17.604.453 5.471-2.098 10.147-6.32 12.727-12.132 1.7-3.771 6.122-5.442 9.893-3.771 3.771 1.673 5.442 6.095 3.771 9.865-4.252 9.553-11.991 16.497-21.062 19.984-9.071 3.486-19.475 3.515-29.028-.766-9.581-4.252-16.497-11.99-19.984-21.061s-3.515-19.474.765-29.027c4.252-9.553 11.991-16.498 21.061-19.984 9.072-3.487 19.476-3.487 29.029.765zm-58.14-69.762c0 4.168-3.373 7.514-7.512 7.514s-7.512-3.346-7.512-7.514c0-6.32-2.551-12.075-6.718-16.242-4.139-4.139-9.893-6.718-16.242-6.718-6.35 0-12.077 2.579-16.243 6.718-4.139 4.167-6.718 9.922-6.718 16.242 0 6.35 2.58 12.105 6.718 16.244 4.167 4.167 9.893 6.746 16.243 6.746 4.138 0 7.512 3.345 7.512 7.483 0 4.139-3.374 7.512-7.512 7.512-10.489 0-19.985-4.252-26.845-11.111-6.86-6.889-11.112-16.385-11.112-26.874 0-10.459 4.252-19.955 11.112-26.844 6.86-6.859 16.356-11.111 26.845-11.111 10.488 0 19.984 4.252 26.844 11.111 6.888 6.888 11.14 16.385 11.14 26.844zm-37.984 54.143c14.938 0 28.488-6.066 38.268-15.846 9.808-9.809 15.874-23.329 15.874-38.298 0-14.938-6.066-28.459-15.874-38.268-9.78-9.779-23.301-15.846-38.211-15.846-14.458 0-28.121 5.642-38.325 15.846-9.809 9.809-15.846 23.33-15.846 38.268 0 14.969 6.038 28.489 15.846 38.298 9.779 9.78 23.328 15.846 38.268 15.846zm80.674 104.401c14.967 0 28.489-6.065 38.296-15.846 9.779-9.808 15.846-23.329 15.846-38.268 0-14.968-6.066-28.489-15.846-38.297-9.808-9.779-23.329-15.846-38.296-15.846-14.938 0-28.46 6.066-38.268 15.846-9.809 9.808-15.846 23.329-15.846 38.297 0 14.938 6.038 28.46 15.846 38.268 9.808 9.78 23.33 15.846 38.268 15.846zm-161.293 0c14.938 0 28.488-6.065 38.269-15.846 9.808-9.808 15.845-23.329 15.845-38.268 0-14.968-6.038-28.489-15.845-38.297-9.78-9.779-23.33-15.846-38.269-15.846s-28.489 6.066-38.268 15.846c-9.808 9.808-15.875 23.329-15.875 38.297 0 14.938 6.066 28.46 15.875 38.268 9.779 9.78 23.329 15.846 38.268 15.846zm43.286-347.164c2.353-2.664 5.585-4.082 10.233-4.082h13.776c5.641 0 10.743-2.295 14.457-6.009 3.713-3.714 6.038-8.845 6.038-14.457 0-5.641-2.325-10.743-6.038-14.456-3.714-3.714-8.816-6.038-14.457-6.038h-19.616-93.629c-2.239 0-4.281.936-5.783 2.409-1.475 1.502-2.41 3.543-2.41 5.783v128.693c0 2.239.935 4.28 2.41 5.755 1.502 1.502 3.543 2.438 5.783 2.438h62.25c6.576 0 12.529-2.693 16.866-7.03s7.03-10.317 7.03-16.866v-66.898c0-3.6.793-6.661 3.09-9.242zm-60.549-2.579v60.152c0 5.641 4.621 10.289 10.29 10.289 2.835 0 5.386-1.162 7.257-3.032 1.871-1.871 3.033-4.45 3.033-7.257v-60.152c0-2.835-1.163-5.386-3.033-7.257-1.871-1.871-4.422-3.033-7.257-3.033-2.806 0-5.386 1.162-7.257 3.033-1.871 1.872-3.033 4.422-3.033 7.257zm-14.996 60.153v-60.153c0-6.974 2.835-13.294 7.427-17.858 4.564-4.592 10.885-7.427 17.858-7.427 6.974 0 13.295 2.835 17.859 7.427 4.592 4.564 7.427 10.885 7.427 17.858v60.152c0 6.973-2.835 13.295-7.427 17.858-4.564 4.592-10.885 7.427-17.859 7.427-13.917.001-25.285-11.366-25.285-25.284z"/></g></svg>