<?xml version="1.0" encoding="utf-8"?>
<!-- Generator: Adobe Illustrator 23.0.1, SVG Export Plug-In . SVG Version: 6.00 Build 0)  -->
<svg version="1.1" id="Camada_1" xmlns="http://www.w3.org/2000/svg" xmlns:xlink="http://www.w3.org/1999/xlink" x="0px" y="0px"
	 viewBox="0 0 104 101" style="enable-background:new 0 0 104 101;" xml:space="preserve">
<style type="text/css">
	.st0{fill:#5B074D;}
	.st1{clip-path:url(#SVGID_2_);}
	.st2{fill:#FF7A00;}
	.st3{clip-path:url(#SVGID_4_);}
	.st4{fill:none;stroke:#5B074D;}
</style>
<rect x="0.06" y="0.36" class="st0" width="104" height="101"/>
<g>
	<defs>
		
			<rect id="SVGID_1_" x="16.19" y="26.03" transform="matrix(0.71 -0.7042 0.7042 0.71 -23.7713 43.2846)" width="48.95" height="48.95"/>
	</defs>
	<clipPath id="SVGID_2_">
		<use xlink:href="#SVGID_1_"  style="overflow:visible;"/>
	</clipPath>
	<g class="st1">
		<path class="st2" d="M50.91,31.86C50.91,31.86,50.91,31.86,50.91,31.86l-2.18-0.01c-0.55,0-1.07,0.21-1.46,0.6L46,33.71
			c-0.13,0.13-0.3,0.2-0.49,0.2l-0.81,0c-0.38,0-0.69-0.31-0.69-0.69c0,0,0,0,0,0l0-0.69c0-0.38-0.31-0.69-0.69-0.69l-6.86-0.03
			c-0.05,0-0.09,0-0.13,0.01c-2.39,0.46-4.61,1.58-6.4,3.23l-7.07,6.51c-0.28,0.26-0.3,0.69-0.04,0.97
			c0.19,0.21,0.49,0.28,0.75,0.18l9.3-3.52c0.92-0.3,1.89-0.47,2.86-0.51l-0.01,3.43c0,0.38,0.31,0.69,0.69,0.69l-0.14,32.34
			c0.03,1.9,1.59,3.42,3.49,3.39c1.85-0.02,3.35-1.51,3.39-3.37l0.13-32.34c0.38,0,0.69-0.31,0.69-0.69l0.01-2.06
			c0.01-0.38,0.31-0.68,0.69-0.69l0.81,0c0.18,0,0.36,0.07,0.49,0.2l1.25,1.26c0.38,0.39,0.91,0.61,1.46,0.61l2.18,0.01
			c0.38,0,0.69-0.3,0.69-0.68c0,0,0,0,0,0l0.03-8.26C51.59,32.17,51.29,31.86,50.91,31.86z M41.78,75.17c0,1.14-0.93,2.06-2.07,2.06
			c-1.14,0-2.06-0.93-2.06-2.07l0.13-32.34l4.13,0.02L41.78,75.17z M50.18,40.12l-1.49-0.01c-0.18,0-0.36-0.07-0.49-0.2l-1.25-1.26
			c-0.38-0.39-0.91-0.61-1.46-0.61l-0.81,0c-1.14,0-2.07,0.92-2.07,2.06l-0.01,1.38l-5.5-0.02L37.12,38c0-0.38-0.31-0.69-0.69-0.69
			l-0.28,0c-1.27,0-2.53,0.2-3.73,0.6l-6.01,2.27l4.46-4.11c1.59-1.46,3.55-2.46,5.67-2.88l6.1,0.02c0,1.14,0.92,2.07,2.06,2.07
			l0.81,0c0.55,0,1.07-0.21,1.46-0.6l1.26-1.25c0.13-0.13,0.31-0.2,0.49-0.2l1.49,0.01L50.18,40.12z"/>
		<path class="st2" d="M36.99,71.42V46.49v-4.23h5.17v19.28v6.58v8l-1.88,1.41h-1.41l-1.88-1.41V71.42z"/>
		<path class="st2" d="M32.29,34.26l-6.58,6.11l5.17-0.94l3.76-1.41h1.88v3.76h0.94h5.64V39.9l0.94-1.41h1.88l1.88,1.88h2.82v-2.35
			v-5.17h-2.35l-2.35,1.88h-1.41l-1.88-1.88H41.7h-6.11L32.29,34.26z"/>
		<rect x="35.58" y="42.26" class="st0" width="8.47" height="0.94"/>
	</g>
</g>
<g>
	<defs>
		
			<rect id="SVGID_3_" x="50.28" y="35.58" transform="matrix(0.6979 -0.7162 0.7162 0.6979 -18.5186 66.9823)" width="39.71" height="39.71"/>
	</defs>
	<clipPath id="SVGID_4_">
		<use xlink:href="#SVGID_3_"  style="overflow:visible;"/>
	</clipPath>
	<g class="st3">
		<path class="st2" d="M71.25,31.97L68.03,32c-0.98,0.01-1.78,0.75-1.88,1.72l-0.6,6.2c-0.01,0.12,0,0.23,0.02,0.35l0.55,2.58
			c0.23,1.07,1.11,1.85,2.16,2.03l0.15,10.47l-1.56,0.02c-1.43,0.02-2.65,1.28-2.63,2.7l0.2,15.25c0.02,1.53,0.63,2.96,1.73,4.02
			c1.09,1.07,2.54,1.64,4.07,1.62c1.53-0.02,2.96-0.63,4.02-1.73c1.07-1.09,1.64-2.54,1.62-4.07l-0.2-15.25
			c-0.01-0.71-0.3-1.38-0.81-1.88c-0.51-0.5-1.18-0.77-1.9-0.76l-1.49,0.02l-0.15-10.43c0.54-0.11,1.02-0.37,1.39-0.75
			c0.36-0.37,0.61-0.84,0.71-1.37l0.48-2.6c0.02-0.12,0.03-0.23,0.01-0.35l-0.78-6.18C73.04,32.67,72.22,31.95,71.25,31.97z"/>
		<circle class="st0" cx="70.35" cy="75.25" r="2.31"/>
		<line class="st4" x1="63.43" y1="58.61" x2="77.27" y2="58.61"/>
		<line class="st4" x1="67.12" y1="45.69" x2="72.65" y2="45.69"/>
	</g>
</g>
</svg>
