<?xml version="1.0" encoding="utf-8"?>
<!-- Generator: Adobe Illustrator 23.0.1, SVG Export Plug-In . SVG Version: 6.00 Build 0)  -->
<svg version="1.1" id="Camada_1" xmlns="http://www.w3.org/2000/svg" xmlns:xlink="http://www.w3.org/1999/xlink" x="0px" y="0px"
	 viewBox="0 0 48 49" style="enable-background:new 0 0 48 49;" xml:space="preserve">
<path d="M20.24,0.21C10.72,1.45,3.23,8.04,0.88,17.29c-0.99,3.88-0.8,8.84,0.5,12.74c1.18,3.55,3.01,6.48,5.75,9.15
	c1.96,1.92,3.43,2.95,5.96,4.19c2.9,1.4,5.09,1.92,8.57,2.04c5.85,0.21,9.72-1.11,15.07-5.08c0.19-0.14,1.33,0.89,4.61,4.23
	c4.31,4.34,4.36,4.4,5.16,4.4c1.07,0,1.73-0.64,1.73-1.69c0-0.68-0.23-0.95-4.38-5.2l-4.4-4.48l0.59-0.76
	c2.93-3.76,4.76-9.07,4.76-13.88c0-10.86-7.43-20.12-17.93-22.37C25.48,0.26,21.46,0.05,20.24,0.21z M25.6,3.89
	c3.85,0.68,7.09,2.33,9.87,5c9.55,9.27,7.16,25.26-4.65,31.14c-3.18,1.59-4.36,1.84-8.38,1.82c-3.16,0-3.56-0.04-5.11-0.52
	c-3.18-1.01-5.83-2.62-8.16-4.96c-2.38-2.42-4.06-5.37-4.94-8.65c-0.63-2.31-0.72-6.2-0.23-8.63c0.74-3.72,2.31-6.73,4.9-9.48
	c2.44-2.6,4.84-4.11,8.1-5.14C19.92,3.56,22.61,3.37,25.6,3.89z"/>
<path d="M16.91,7.24c-2.19,0.79-3.79,1.84-5.7,3.68c-2.82,2.75-4.48,6.2-4.88,10.24c-0.15,1.51-0.13,1.92,0.1,2.38
	c0.53,1.07,1.79,1.3,2.61,0.52c0.4-0.39,0.51-0.7,0.63-1.98c0.17-2,0.53-3.37,1.31-5.04c1.26-2.71,3.79-5.14,6.59-6.32
	c1.68-0.7,2.1-1.12,2.1-2.09C19.67,7.24,18.49,6.66,16.91,7.24z"/>
</svg>
