<svg width="285" height="131" viewBox="0 0 285 131" fill="none" xmlns="http://www.w3.org/2000/svg">
  <g opacity="0.2">
    <path d="M3.06738 42.4182C7.57725 27.1335 17.1243 13.9212 32.2126 7.51691C63.5686 -5.79224 134.285 1.07142 187.063 8.95885C213.73 12.9286 237.937 23.8987 255.786 40.1028L3.06738 42.4182Z" fill="#FF7A00"/>
    <path d="M279.832 114.361H250.873C250.21 114.361 249.573 114.57 249.104 114.942C248.634 115.314 248.37 115.819 248.37 116.346C248.37 116.872 248.634 117.377 249.104 117.749C249.573 118.121 250.21 118.33 250.873 118.33H255.88C255.216 118.33 254.579 118.539 254.11 118.912C253.64 119.284 253.377 119.789 253.377 120.315C253.377 120.841 253.64 121.346 254.11 121.718C254.579 122.091 255.216 122.3 255.88 122.3H252.302C251.638 122.3 251.002 122.509 250.532 122.881C250.063 123.253 249.799 123.758 249.799 124.285C249.799 124.811 250.063 125.316 250.532 125.688C251.002 126.06 251.638 126.269 252.302 126.269H267.422C264.068 127.505 260.148 128.385 255.633 128.846C214.421 133.044 199.706 130.268 194.516 127.404C188.112 123.882 180.968 121.29 173.333 120.042C147.9 115.887 100.346 110.884 57.2559 121.655C35.8341 127.011 19.9119 117.964 10.37 102.852H284.861C284.503 107.244 283.43 111.298 281.461 114.849C281.009 114.536 280.431 114.363 279.832 114.361Z" fill="#FF7A00"/>
    <path d="M0.622898 74.3201C-0.488848 65.4305 -0.110601 56.4633 1.74777 47.6524L255.991 40.2882C263.069 46.7438 269.011 53.9295 273.657 61.6496L0.622898 74.3201ZM101.16 55.2968H96.1639C96.8278 55.2968 97.4644 55.0877 97.9338 54.7154C98.4033 54.3432 98.667 53.8384 98.667 53.312C98.667 52.7856 98.4033 52.2808 97.9338 51.9086C97.4644 51.5364 96.8278 51.3273 96.1639 51.3273H67.2057C66.5419 51.3273 65.9052 51.5364 65.4358 51.9086C64.9664 52.2808 64.7027 52.7856 64.7027 53.312C64.7027 53.8384 64.9664 54.3432 65.4358 54.7154C65.9052 55.0877 66.5419 55.2968 67.2057 55.2968H72.2118C71.5479 55.2968 70.9113 55.5059 70.4419 55.8781C69.9725 56.2503 69.7088 56.7551 69.7088 57.2815C69.7088 57.8079 69.9725 58.3127 70.4419 58.6849C70.9113 59.0571 71.5479 59.2662 72.2118 59.2662H68.6345C67.9707 59.2662 67.334 59.4753 66.8646 59.8475C66.3952 60.2198 66.1315 60.7246 66.1315 61.251C66.1315 61.7774 66.3952 62.2822 66.8646 62.6544C67.334 63.0266 67.9707 63.2357 68.6345 63.2357H97.5928C98.2566 63.2357 98.8932 63.0266 99.3627 62.6544C99.8321 62.2822 100.096 61.7774 100.096 61.251C100.096 60.7246 99.8321 60.2198 99.3627 59.8475C98.8932 59.4753 98.2566 59.2662 97.5928 59.2662H101.16C101.823 59.2662 102.46 59.0571 102.93 58.6849C103.399 58.3127 103.663 57.8079 103.663 57.2815C103.663 56.7551 103.399 56.2503 102.93 55.8781C102.46 55.5059 101.823 55.2968 101.16 55.2968Z" fill="#FF7A00"/>
    <path d="M284.872 102.704L7.29425 97.348C3.91705 90.4658 1.68031 82.6834 0.646362 74.6188H280.008C281.834 79.3567 283.185 84.2017 284.048 89.1083C284.872 93.8461 285.207 98.4377 284.872 102.704ZM56.9963 85.1656H52.0006C52.6645 85.1656 53.3011 84.9565 53.7705 84.5843C54.2399 84.2121 54.5036 83.7073 54.5036 83.1809C54.5036 82.6545 54.2399 82.1497 53.7705 81.7775C53.3011 81.4053 52.6645 81.1962 52.0006 81.1962H23.0424C22.3786 81.1962 21.7419 81.4053 21.2725 81.7775C20.8031 82.1497 20.5394 82.6545 20.5394 83.1809C20.5394 83.7073 20.8031 84.2121 21.2725 84.5843C21.7419 84.9565 22.3786 85.1656 23.0424 85.1656H28.0485C27.3846 85.1656 26.748 85.3747 26.2786 85.747C25.8091 86.1192 25.5454 86.624 25.5454 87.1504C25.5454 87.6768 25.8091 88.1816 26.2786 88.5538C26.748 88.926 27.3846 89.1351 28.0485 89.1351H24.4712C23.8074 89.1351 23.1707 89.3442 22.7013 89.7164C22.2319 90.0886 21.9682 90.5935 21.9682 91.1198C21.9682 91.6462 22.2319 92.151 22.7013 92.5233C23.1707 92.8955 23.8074 93.1046 24.4712 93.1046H53.4294C54.0933 93.1046 54.7299 92.8955 55.1993 92.5233C55.6687 92.151 55.9325 91.6462 55.9325 91.1198C55.9325 90.5935 55.6687 90.0886 55.1993 89.7164C54.7299 89.3442 54.0933 89.1351 53.4294 89.1351H56.9963C57.6601 89.1351 58.2968 88.926 58.7662 88.5538C59.2356 88.1816 59.4993 87.6768 59.4993 87.1504C59.4993 86.624 59.2356 86.1192 58.7662 85.747C58.2968 85.3747 57.6601 85.1656 56.9963 85.1656Z" fill="#FF7A00"/>
  </g>
</svg>
