<svg width="582" height="547" viewBox="0 0 582 547" fill="none" xmlns="http://www.w3.org/2000/svg">
<path d="M263.298 229C263.298 229 321.377 232.425 324.875 257.256C328.374 282.087 257 259.825 257 259.825L263.298 229Z" fill="#A0616A"/>
<path d="M172.196 150C172.196 150 181.987 153.441 189.68 174.088C197.373 194.735 212.758 213.662 212.758 213.662L275 228.287L264.51 267L205.065 257.537L168 231.728L172.196 150Z" fill="#DDDDDD"/>
<path opacity="0.1" d="M172.196 150C172.196 150 181.987 153.441 189.68 174.088C197.373 194.735 212.758 213.662 212.758 213.662L275 228.287L264.51 267L205.065 257.537L168 231.728L172.196 150Z" fill="#DDDDDD"/>
<path d="M570 287H21V545H570V287Z" fill="#5B074D"/>
<path d="M81 110.571L87.2113 159.429L130 162L125.169 90L81 110.571Z" fill="#A0616A"/>
<path d="M35.0862 437.275L33 545H98.3673L108.103 502.252L115.752 545H183.901C183.901 545 185.292 421.886 177.643 421.031C169.993 420.176 35.0862 437.275 35.0862 437.275Z" fill="#2F2E41"/>
<path d="M94.5 123C115.211 123 132 102.181 132 76.5C132 50.8188 115.211 30 94.5 30C73.7893 30 57 50.8188 57 76.5C57 102.181 73.7893 123 94.5 123Z" fill="#A0616A"/>
<path d="M31.2727 441.528L50.7879 323.124L25 166.11L84.3918 138.675L113.515 134.365L128.156 131L138.606 134.365C138.606 134.365 180.424 147.235 182.515 156.673C184.606 166.11 174.152 243.33 174.152 243.33L164.394 306.822L186 420.936C186 420.936 96.0909 458.688 32.6667 441.528H31.2727Z" fill="#EEEEEE"/>
<path opacity="0.1" d="M57 210V240.866L139 241L61.1698 230.855L57 210Z" fill="black"/>
<path opacity="0.1" d="M50 297.178L153 279L50 315V297.178Z" fill="black"/>
<path opacity="0.1" d="M214.225 214L203 263L222 215.617L214.225 214Z" fill="black"/>
<path d="M125.247 30.3001L132.136 26.8856C132.136 26.8856 117.732 7.25232 97.6919 8.95964L103.328 1.27698C103.328 1.27698 89.5508 -5.55191 77.0259 12.374C70.4418 21.7973 62.8239 32.8739 58.0749 45.3515H50.6976L53.7766 53.7454L43 62.1392L54.0611 60.6315C53.402 65.2281 53.3009 69.9208 53.761 74.5543C54.2355 79.1893 56.1459 83.4148 59.089 86.3389C59.089 86.3389 67.6323 64.4447 67.6323 61.0302V69.5664C67.6323 69.5664 74.521 61.8839 74.521 56.7622L78.2785 62.7376L80.1572 53.3477L103.328 62.7376L99.5708 55.055L113.975 57.6158L108.338 48.226C108.338 48.226 124.621 59.323 125.247 68.7129C125.873 78.1026 130.639 87 130.639 87C130.639 87 143.408 43.1043 125.247 30.3001Z" fill="#2F2E41"/>
<path d="M430 202H162V546H430V202Z" fill="white"/>
<path d="M388 277H190V312H388V277Z" fill="#5B074D"/>
<path d="M354 368H224V386H354V368Z" fill="#5B074D"/>
<path d="M354 398H225V416H354V398Z" fill="#5B074D"/>
<path d="M290 429H225V446H290V429Z" fill="#5B074D"/>
<path d="M391 515H362V532H391V515Z" fill="#5B074D"/>
<path d="M143 244.751C143 244.751 204.089 233.515 213.217 249.936C222.346 266.357 148.617 275 148.617 275L143 244.751Z" fill="#A0616A"/>
<path d="M31.94 165H27.5696C25.7722 164.994 24.0392 165.824 22.7181 167.325C18.5695 172.069 9.79744 184.31 6.13303 206.227C1.25063 235.43 -7.1192 292.117 11.7129 296.411C30.545 300.706 154 280.092 154 280.092L144.933 240.583L55.6545 241.442C55.6545 241.442 57.0495 222.546 54.2596 210.522C51.4696 198.497 31.94 165 31.94 165Z" fill="#EEEEEE"/>
<path d="M580 544H11V547H580V544Z" fill="#3F3D56"/>
<circle cx="234.5" cy="40.5" r="40" fill="#5B074D" stroke="#5B074D"/>
<path d="M426.5 40.5C426.5 62.5973 408.809 80.5 387 80.5C365.191 80.5 347.5 62.5973 347.5 40.5C347.5 18.4027 365.191 0.5 387 0.5C408.809 0.5 426.5 18.4027 426.5 40.5Z" stroke="#5B074D"/>
<line x1="275" y1="39.5" x2="347" y2="39.5" stroke="black"/>
</svg>
