<svg width="203" height="182" viewBox="0 0 203 182" fill="none" xmlns="http://www.w3.org/2000/svg">
  <path d="M201.219 69.6005C201.146 69.6005 201.075 69.5783 201.016 69.5367L102.522 1.0287C102.222 0.821187 101.866 0.710288 101.501 0.71091C101.137 0.711531 100.781 0.82364 100.482 1.03217L2.69754 69.536C2.62019 69.5902 2.52447 69.6115 2.43142 69.5952C2.33837 69.5789 2.25561 69.5263 2.20137 69.4491C2.14712 69.3718 2.12581 69.2762 2.14214 69.1833C2.15847 69.0904 2.2111 69.0077 2.28844 68.9535L100.073 0.449653C100.492 0.157752 100.99 0.000841439 101.5 3.37468e-06C102.011 -0.000834689 102.509 0.154439 102.929 0.444964L201.423 68.9528C201.485 68.9961 201.532 69.0581 201.556 69.1298C201.581 69.2015 201.582 69.2791 201.559 69.3514C201.536 69.4236 201.491 69.4868 201.43 69.5316C201.369 69.5764 201.295 69.6005 201.219 69.6005L201.219 69.6005Z" fill="#3F3D56"/>
  <path d="M8.28525 72.0288L101.598 2.959L195.619 76.9435L106.406 129.764L57.9711 118.738L8.28525 72.0288Z" fill="#E6E6E6"/>
  <path d="M62.0594 162.389H15.9605C15.6775 162.39 15.3971 162.334 15.1355 162.226C14.8739 162.118 14.6361 161.96 14.4358 161.76C14.2355 161.56 14.0767 161.323 13.9682 161.062C13.8598 160.801 13.804 160.521 13.804 160.238C13.804 159.956 13.8598 159.676 13.9682 159.414C14.0767 159.153 14.2355 158.916 14.4358 158.716C14.6361 158.516 14.8739 158.358 15.1355 158.25C15.3971 158.142 15.6775 158.087 15.9605 158.087H62.0594C62.3425 158.087 62.6229 158.142 62.8845 158.25C63.1461 158.358 63.3838 158.516 63.5841 158.716C63.7844 158.916 63.9433 159.153 64.0517 159.414C64.1601 159.676 64.2159 159.956 64.2159 160.238C64.2159 160.521 64.1601 160.801 64.0517 161.062C63.9433 161.323 63.7844 161.56 63.5841 161.76C63.3838 161.96 63.1461 162.118 62.8845 162.226C62.6229 162.334 62.3425 162.39 62.0594 162.389Z" fill="#FF7A00"/>
  <path d="M32.4998 153.141H15.9605C15.6775 153.142 15.3971 153.086 15.1355 152.978C14.8739 152.87 14.6361 152.712 14.4358 152.512C14.2355 152.312 14.0767 152.075 13.9682 151.814C13.8598 151.553 13.804 151.273 13.804 150.99C13.804 150.707 13.8598 150.428 13.9682 150.166C14.0767 149.905 14.2355 149.668 14.4358 149.468C14.6361 149.268 14.8739 149.11 15.1355 149.002C15.3971 148.894 15.6775 148.839 15.9605 148.839H32.4998C32.7828 148.839 33.0632 148.894 33.3248 149.002C33.5864 149.11 33.8242 149.268 34.0245 149.468C34.2248 149.668 34.3837 149.905 34.4921 150.166C34.6005 150.428 34.6563 150.707 34.6563 150.99C34.6563 151.273 34.6005 151.553 34.4921 151.814C34.3837 152.075 34.2248 152.312 34.0245 152.512C33.8242 152.712 33.5864 152.87 33.3248 152.978C33.0632 153.086 32.7828 153.142 32.4998 153.141Z" fill="#FF7A00"/>
  <path d="M102.91 110.5C102.56 110.5 102.213 110.432 101.889 110.3L44.3396 86.4511V11.8001C44.3403 11.1399 44.6032 10.5071 45.0706 10.0403C45.5379 9.57354 46.1716 9.31097 46.8325 9.3102H157.236C157.897 9.31097 158.531 9.57354 158.998 10.0403C159.465 10.5071 159.728 11.1399 159.729 11.8001V86.5032L159.621 86.5494L103.963 110.288C103.63 110.428 103.272 110.5 102.91 110.5Z" fill="white"/>
  <path d="M102.91 110.678C102.537 110.678 102.167 110.606 101.821 110.465L44.1615 86.5699V11.8C44.1623 11.0928 44.4439 10.4147 44.9447 9.91458C45.4454 9.41446 46.1244 9.13314 46.8325 9.13234H157.236C157.944 9.13314 158.623 9.41446 159.124 9.91458C159.625 10.4147 159.906 11.0928 159.907 11.8V86.6206L104.033 110.452C103.678 110.601 103.296 110.678 102.91 110.678ZM44.8737 86.0947L102.092 109.807C102.626 110.023 103.224 110.02 103.755 109.797L159.195 86.151V11.8C159.194 11.2814 158.988 10.7841 158.62 10.4174C158.253 10.0507 157.755 9.84434 157.236 9.84373H46.8325C46.3132 9.84434 45.8154 10.0507 45.4482 10.4174C45.0809 10.7841 44.8744 11.2814 44.8738 11.8L44.8737 86.0947Z" fill="#3F3D56"/>
  <path d="M200.507 68.8891H200.436L159.551 86.3253L103.612 110.182C103.393 110.274 103.159 110.321 102.922 110.323C102.685 110.324 102.45 110.278 102.23 110.189L44.5175 86.2755L2.62827 68.9176L2.56428 68.8891H2.49298C1.83203 68.8898 1.19835 69.1524 0.730985 69.6192C0.263619 70.086 0.000733382 70.7188 0 71.379V179.51C0.000734323 180.17 0.26362 180.803 0.730985 181.27C1.19835 181.737 1.83203 181.999 2.49298 182H200.507C201.168 181.999 201.802 181.737 202.269 181.27C202.736 180.803 202.999 180.17 203 179.51V71.379C202.999 70.7188 202.736 70.086 202.269 69.6192C201.802 69.1524 201.168 68.8898 200.507 68.8891ZM202.288 179.51C202.288 179.982 202.1 180.434 201.766 180.768C201.432 181.101 200.979 181.288 200.507 181.289H2.49298C2.02077 181.288 1.56795 181.101 1.23405 180.768C0.900141 180.434 0.712469 179.982 0.712281 179.51V71.379C0.712926 70.919 0.891548 70.4772 1.2108 70.1457C1.53005 69.8143 1.96522 69.6189 2.42534 69.6005L44.5175 87.0437L101.956 110.847C102.578 111.1 103.274 111.096 103.893 110.836L159.551 87.0971L200.578 69.6005C201.038 69.6203 201.472 69.8162 201.79 70.1475C202.108 70.4787 202.287 70.9198 202.288 71.379V179.51Z" fill="#3F3D56"/>
  <path d="M102.335 89.3316C100.211 89.3356 98.1424 88.6495 96.4425 87.3767L96.3371 87.2977L74.1457 70.3284C73.1179 69.5419 72.2553 68.561 71.6072 67.4416C70.959 66.3222 70.538 65.0862 70.3681 63.8043C70.1982 62.5224 70.2828 61.2196 70.617 59.9703C70.9512 58.721 71.5285 57.5497 72.316 56.5233C73.1034 55.4968 74.0856 54.6353 75.2064 53.988C76.3272 53.3407 77.5647 52.9201 78.8482 52.7504C80.1317 52.5808 81.4362 52.6652 82.687 52.999C83.9378 53.3328 85.1106 53.9094 86.1383 54.6959L100.512 65.7038L134.48 21.4601C135.268 20.4339 136.25 19.5728 137.372 18.9258C138.493 18.2789 139.73 17.8588 141.014 17.6896C142.297 17.5203 143.602 17.6053 144.852 17.9395C146.103 18.2738 147.276 18.8509 148.303 19.6377L148.092 19.9241L148.309 19.6419C150.381 21.2327 151.737 23.5797 152.079 26.1679C152.421 28.7561 151.722 31.3741 150.133 33.4476L110.179 85.4888C109.255 86.688 108.067 87.6585 106.706 88.3249C105.346 88.9914 103.85 89.3358 102.335 89.3316Z" fill="#47E6B1"/>
</svg>
