<svg width="300" height="221" viewBox="0 0 300 221" fill="none" xmlns="http://www.w3.org/2000/svg">
  <g clip-path="url(#clip0)">
    <path opacity="0.1" d="M3.229 105.956C7.96619 124.239 17.986 140.045 33.8203 147.706C66.7378 163.629 140.976 155.417 196.382 145.991C225.042 141.115 250.234 127.66 268.533 108.726L3.229 105.956Z" fill="#FF7A00" fill-opacity="0.75"/>
    <path opacity="0.1" d="M0.651798 67.7917C-0.515874 78.4254 -0.118948 89.1724 1.82996 99.6912L268.738 108.513C276.085 100.903 282.328 92.3013 287.283 82.9598L0.651798 67.7917ZM106.217 90.5479H100.962C102.407 90.5479 103.591 91.6183 103.591 92.9229C103.591 94.2275 102.407 95.2952 100.962 95.2952H70.5614C69.1187 95.2952 67.9351 94.2275 67.9351 92.9229C67.9351 91.6183 69.1187 90.5479 70.5614 90.5479H75.8195C74.3741 90.5479 73.1932 89.4802 73.1932 88.1756C73.1932 86.8709 74.3741 85.8006 75.8195 85.8006H72.0641C70.6187 85.8006 69.4351 84.7329 69.4351 83.4282C69.4351 82.1236 70.6187 81.0532 72.0641 81.0532H102.465C103.91 81.0532 105.091 82.1209 105.091 83.4282C105.091 84.7356 103.91 85.8006 102.465 85.8006H106.217C107.663 85.8006 108.843 86.8682 108.843 88.1756C108.843 89.4829 107.663 90.5479 106.217 90.5479Z" fill="#FF7A00" fill-opacity="0.75"/>
    <path opacity="0.1" d="M299.067 33.8305L7.66897 40.2311C4.12358 48.4647 1.77271 57.7741 0.690002 67.4213H293.962C295.871 61.7771 297.287 55.9787 298.195 50.0907C299.07 44.4228 299.419 38.9401 299.067 33.8305ZM59.8544 54.8163H54.599C56.0444 54.8163 57.2281 55.8867 57.2281 57.1913C57.2281 58.4959 56.0444 59.5663 54.599 59.5663H24.1987C22.756 59.5663 21.5723 58.4959 21.5723 57.1913C21.5723 55.8867 22.756 54.8163 24.1987 54.8163H29.4567C28.0113 54.8163 26.8304 53.7486 26.8304 52.444C26.8304 51.1393 28.0113 50.0689 29.4567 50.0689H25.7014C24.2559 50.0689 23.0723 49.0013 23.0723 47.6966C23.0723 46.392 24.2559 45.3216 25.7014 45.3216H56.1017C57.5471 45.3216 58.728 46.3893 58.728 47.6966C58.728 49.004 57.5471 50.0689 56.1017 50.0689H59.8544C61.2998 50.0689 62.4807 51.1393 62.4807 52.444C62.4807 53.7486 61.2998 54.8163 59.8544 54.8163Z" fill="#FF7A00" fill-opacity="0.75"/>
    <path opacity="0.1" d="M148.656 212.739C215.98 212.739 270.557 207.725 270.557 201.539C270.557 195.354 215.98 190.34 148.656 190.34C81.3312 190.34 26.7541 195.354 26.7541 201.539C26.7541 207.725 81.3312 212.739 148.656 212.739Z" fill="#FF7A00"/>
    <path d="M141.54 207.894C188.007 207.894 225.675 170.275 225.675 123.869C225.675 77.4634 188.007 39.8443 141.54 39.8443C95.0738 39.8443 57.4053 77.4634 57.4053 123.869C57.4053 170.275 95.0738 207.894 141.54 207.894Z" fill="#FF7A00" fill-opacity="0.75"/>
    <path d="M185.686 166.094C185.686 179.358 164.806 167.227 142.421 167.227C120.036 167.227 97.3946 178.857 97.3946 165.593C97.3946 158.029 104.611 147.51 114.963 139.871C122.763 134.113 132.341 129.989 141.963 129.989C151.857 129.989 161.55 134.453 169.281 140.581C179.039 148.308 185.686 158.691 185.686 166.094Z" fill="#5B074D"/>
    <path d="M169.279 140.576C157.38 138.786 135.859 136.605 114.963 139.865C122.763 134.107 132.341 129.984 141.963 129.984C151.855 129.984 161.547 134.448 169.279 140.576Z" fill="#F6F8FB"/>
    <path opacity="0.05" d="M97.3946 64.556C97.3946 64.556 72.0505 80.7373 72.2578 106.048C72.4651 131.359 97.3946 64.556 97.3946 64.556Z" fill="black"/>
    <path d="M239.075 46.243C239.075 46.243 216.111 44.8621 218.82 60.9316C218.82 60.9316 218.274 63.7697 220.859 65.0607C220.859 65.0607 220.9 63.8704 223.213 64.2735C224.037 64.4113 224.875 64.4515 225.708 64.3934C226.835 64.3169 227.906 63.875 228.758 63.1351C228.758 63.1351 235.213 60.474 237.725 49.9362C237.725 49.9362 239.582 47.6375 239.508 47.0492L235.633 48.6997C235.633 48.6997 236.956 51.4914 235.906 53.812C235.906 53.812 235.78 48.8032 235.036 48.9094C234.886 48.9339 233.023 49.8763 233.023 49.8763C233.023 49.8763 235.3 54.7408 233.568 58.2733C233.568 58.2733 234.22 52.2813 232.297 50.2277L229.57 51.8183C229.57 51.8183 232.232 56.8407 230.427 60.9398C230.427 60.9398 230.89 54.6536 228.998 52.205L226.524 54.1307C226.524 54.1307 229.025 59.0823 227.5 62.4814C227.5 62.4814 227.301 55.1629 225.989 54.61C225.989 54.61 223.827 56.5166 223.497 57.2983C223.497 57.2983 225.209 60.8908 224.149 62.7864C224.149 62.7864 223.497 57.9111 222.962 57.8839C222.962 57.8839 220.808 61.1141 220.581 63.3312C220.581 63.3312 220.677 60.0355 222.439 57.5761C222.439 57.5761 220.355 57.9329 219.141 59.2838C219.141 59.2838 219.477 56.9987 222.959 56.7998C222.959 56.7998 224.74 54.3486 225.218 54.2015C225.218 54.2015 221.74 53.91 219.632 54.8443C219.632 54.8443 221.487 52.6898 225.853 53.6676L228.308 51.6794C228.308 51.6794 223.731 51.0529 221.789 51.7447C221.789 51.7447 224.023 49.8382 228.965 51.2272L231.624 49.6394C231.624 49.6394 227.721 48.8005 225.395 49.0946C225.395 49.0946 227.849 47.7737 232.401 49.2063L234.31 48.3538C234.31 48.3538 231.449 47.7927 230.612 47.7056C229.775 47.6184 229.731 47.3842 229.731 47.3842C231.548 47.0892 233.411 47.3051 235.112 48.0079C235.112 48.0079 239.143 46.4963 239.075 46.243Z" fill="#FF7A00" fill-opacity="0.75"/>
    <path d="M185.318 31.585C185.318 31.585 174.955 30.9585 176.165 38.2198C176.165 38.2198 175.923 39.5026 177.087 40.0855C177.087 40.0855 177.104 39.5408 178.151 39.7314C178.523 39.7926 178.901 39.8109 179.277 39.7859C179.787 39.7496 180.271 39.5499 180.657 39.2167C180.657 39.2167 183.573 38.0128 184.707 33.2519C184.707 33.2519 185.547 32.2141 185.525 31.9472L183.774 32.6935C183.774 32.6935 184.374 33.9546 183.903 35.0032C183.903 35.0032 183.845 32.7398 183.51 32.7943C183.442 32.7943 182.599 33.2301 182.599 33.2301C182.599 33.2301 183.63 35.4281 182.853 37.0241C182.853 37.0241 183.147 34.3168 182.28 33.388L181.047 34.1071C181.047 34.1071 182.25 36.3786 181.435 38.2307C181.435 38.2307 181.642 35.3899 180.788 34.2841L179.67 35.153C179.67 35.153 180.799 37.3891 180.112 38.9252C180.112 38.9252 180.022 35.6187 179.427 35.3681C179.427 35.3681 178.451 36.2288 178.301 36.5829C178.301 36.5829 179.075 38.2171 178.595 39.0641C178.595 39.0641 178.301 36.8607 178.05 36.8525C178.05 36.8525 177.076 38.3097 176.975 39.3038C177.022 38.3787 177.311 37.4819 177.813 36.7027C177.252 36.8088 176.734 37.0767 176.324 37.4735C176.324 37.4735 176.474 36.4413 178.053 36.3514C178.053 36.3514 178.857 35.2456 179.073 35.1775C179.073 35.1775 177.502 35.0467 176.55 35.4689C176.55 35.4689 177.387 34.4938 179.362 34.9242L180.453 34.0281C180.453 34.0281 178.385 33.7557 177.507 34.0553C177.507 34.0553 178.516 33.1947 180.75 33.8238L181.95 33.1048C181.95 33.1048 180.188 32.7262 179.135 32.8624C179.135 32.8624 180.245 32.2659 182.302 32.9141L183.161 32.5274C183.161 32.5274 181.868 32.2741 181.492 32.2359C181.115 32.1978 181.091 32.0916 181.091 32.0916C181.91 31.9556 182.75 32.0499 183.518 32.3639C183.518 32.3639 185.348 31.6994 185.318 31.585Z" fill="#FF7A00" fill-opacity="0.75"/>
    <path opacity="0.1" d="M292.656 198.829C296.712 198.829 300 198.275 300 197.59C300 196.906 296.712 196.351 292.656 196.351C288.599 196.351 285.311 196.906 285.311 197.59C285.311 198.275 288.599 198.829 292.656 198.829Z" fill="#FF7A00" fill-opacity="0.75"/>
    <path opacity="0.1" d="M12.7552 219.445C16.8114 219.445 20.0997 218.89 20.0997 218.205C20.0997 217.521 16.8114 216.966 12.7552 216.966C8.69903 216.966 5.41083 217.521 5.41083 218.205C5.41083 218.89 8.69903 219.445 12.7552 219.445Z" fill="#FF7A00" fill-opacity="0.75"/>
    <path opacity="0.1" d="M55.3899 221C59.4461 221 62.7343 220.445 62.7343 219.761C62.7343 219.076 59.4461 218.521 55.3899 218.521C51.3337 218.521 48.0455 219.076 48.0455 219.761C48.0455 220.445 51.3337 221 55.3899 221Z" fill="#FF7A00" fill-opacity="0.75"/>
    <path d="M276.581 212.723C282.638 212.723 287.548 211.894 287.548 210.871C287.548 209.848 282.638 209.019 276.581 209.019C270.525 209.019 265.615 209.848 265.615 210.871C265.615 211.894 270.525 212.723 276.581 212.723Z" fill="#FF7A00" fill-opacity="0.75"/>
    <path d="M281.114 207.845C281.615 207.437 281.98 206.887 282.161 206.268C282.295 205.644 282.028 204.892 281.43 204.664C280.759 204.408 280.042 204.873 279.499 205.342C278.957 205.81 278.332 206.344 277.62 206.246C277.986 205.915 278.26 205.495 278.415 205.027C278.57 204.558 278.601 204.058 278.504 203.574C278.473 203.374 278.388 203.186 278.259 203.029C277.885 202.632 277.211 202.801 276.764 203.114C275.346 204.111 274.95 206.034 274.942 207.766C274.8 207.142 274.92 206.491 274.918 205.859C274.915 205.227 274.738 204.497 274.198 204.162C273.863 203.984 273.487 203.895 273.107 203.906C272.469 203.882 271.76 203.945 271.323 204.41C270.778 204.99 270.922 205.96 271.394 206.589C271.866 207.218 272.581 207.627 273.238 208.065C273.767 208.379 274.218 208.809 274.558 209.321C274.597 209.393 274.63 209.469 274.656 209.547H278.651C279.545 209.093 280.374 208.521 281.114 207.845Z" fill="#FF7A00" fill-opacity="0.75"/>
    <path d="M16.1833 185.007C16.1833 185.007 17.6806 186.963 15.4906 189.91C13.3007 192.857 11.4952 195.357 12.218 197.198C12.218 197.198 15.5206 191.713 18.2178 191.634C20.9151 191.555 19.1396 188.305 16.1833 185.007Z" fill="#FF7A00" fill-opacity="0.75"/>
    <path opacity="0.1" d="M16.1834 185.007C16.3134 185.196 16.4162 185.402 16.4888 185.62C19.1124 188.698 20.5087 191.571 17.9888 191.642C15.6379 191.71 12.8071 195.904 12.1443 196.964C12.1675 197.046 12.1948 197.127 12.2262 197.206C12.2262 197.206 15.5288 191.721 18.2261 191.642C20.9233 191.563 19.1397 188.305 16.1834 185.007Z" fill="black"/>
    <path d="M18.9678 187.499C18.9678 188.188 18.8887 188.747 18.7933 188.747C18.6978 188.747 18.6215 188.202 18.6215 187.499C18.6215 186.796 18.7169 187.134 18.8151 187.134C18.9133 187.134 18.9678 186.81 18.9678 187.499Z" fill="#FFD037"/>
    <path d="M19.9114 188.322C19.306 188.651 18.7797 188.85 18.7333 188.766C18.6869 188.681 19.1424 188.349 19.7478 188.019C20.3533 187.69 20.1133 187.929 20.1596 188.019C20.206 188.109 20.5278 187.992 19.9114 188.322Z" fill="#FFD037"/>
    <path d="M8.26896 185.007C8.26896 185.007 6.77172 186.963 8.95895 189.91C11.1462 192.857 12.9543 195.357 12.2316 197.198C12.2316 197.198 8.92622 191.713 6.23173 191.634C3.53723 191.555 5.30993 188.305 8.26896 185.007Z" fill="#FF7A00" fill-opacity="0.75"/>
    <path opacity="0.1" d="M8.26895 185.007C8.13773 185.195 8.03483 185.402 7.9635 185.62C5.33991 188.698 3.94085 191.571 6.46353 191.642C8.81167 191.71 11.6453 195.904 12.3052 196.964C12.283 197.046 12.2566 197.127 12.2262 197.206C12.2262 197.206 8.92076 191.721 6.22626 191.642C3.53176 191.563 5.30991 188.305 8.26895 185.007Z" fill="black"/>
    <path d="M5.48444 187.499C5.48444 188.188 5.5608 188.747 5.65625 188.747C5.75171 188.747 5.82807 188.202 5.82807 187.499C5.82807 186.796 5.73262 187.134 5.63716 187.134C5.54171 187.134 5.48444 186.81 5.48444 187.499Z" fill="#FFD037"/>
    <path d="M4.52717 188.322C5.13261 188.651 5.6617 188.85 5.70806 188.766C5.75442 188.681 5.29898 188.349 4.69353 188.019C4.08809 187.69 4.32536 187.929 4.28172 188.019C4.23809 188.109 3.92173 187.992 4.52717 188.322Z" fill="#FFD037"/>
    <path d="M5.96173 196.95C5.96173 196.95 10.1507 196.822 11.4162 195.923C12.6816 195.025 17.8606 193.954 18.1742 195.379C18.4879 196.803 24.4687 202.542 19.7397 202.58C15.0107 202.618 8.75168 201.842 7.4917 201.076C6.23173 200.311 5.96173 196.95 5.96173 196.95Z" fill="#A8A8A8"/>
    <path opacity="0.2" d="M19.8188 202.092C15.0897 202.131 8.83077 201.354 7.57079 200.589C6.61081 200.006 6.229 197.912 6.10082 196.945H5.96173C5.96173 196.945 6.23445 200.319 7.48625 201.085C8.73805 201.85 15.0052 202.626 19.7342 202.588C21.0978 202.588 21.5696 202.09 21.5451 201.373C21.3542 201.812 20.836 202.084 19.8188 202.092Z" fill="black"/>
    <path d="M111.628 112.852C113.229 112.762 120.764 112.196 125.55 109.469C126.319 109.017 127.187 108.762 128.079 108.726C129.6 108.682 131.351 109.317 130.23 112.868C128.414 118.678 117.868 125.215 111.322 124.852C105.028 124.504 97.5609 121.971 92.6301 113.064C92.1577 112.207 91.925 111.239 91.9565 110.262C92.0138 108.464 92.6683 106.212 96.0473 108.723C100.613 112.114 109.274 112.757 111.012 112.852C111.217 112.863 111.423 112.863 111.628 112.852Z" fill="#5B074D"/>
    <path d="M172.172 112.852C173.773 112.762 181.309 112.196 186.095 109.469C186.863 109.017 187.732 108.762 188.623 108.726C190.145 108.682 191.896 109.317 190.775 112.868C188.958 118.678 178.412 125.215 171.867 124.852C165.572 124.504 158.105 121.971 153.175 113.064C152.702 112.207 152.469 111.239 152.501 110.262C152.558 108.464 153.213 106.212 156.592 108.723C161.157 112.114 169.819 112.757 171.556 112.852C171.761 112.863 171.967 112.863 172.172 112.852Z" fill="#5B074D"/>
    <path opacity="0.1" d="M273.746 235.399H243.345C241.903 235.399 240.719 234.331 240.719 233.027C240.719 231.722 241.903 230.652 243.345 230.652H248.603C247.158 230.652 245.977 229.584 245.977 228.277C245.977 226.969 247.158 225.904 248.603 225.904H244.851C243.405 225.904 242.222 224.837 242.222 223.529C242.222 222.222 243.405 221.157 244.851 221.157H260.718C257.197 219.678 253.082 218.627 248.339 218.074C205.072 213.054 189.625 216.374 184.176 219.787C177.384 224.094 169.839 227.082 161.938 228.595C135.244 233.571 85.3219 239.558 40.0746 226.689C17.5859 220.28 0.870727 231.096 -9.14636 249.175H279.026C278.649 243.921 277.523 239.068 275.456 234.822C274.966 235.199 274.364 235.402 273.746 235.399Z" fill="#FF7A00" fill-opacity="0.75"/>
  </g>
  <defs>
    <clipPath id="clip0">
    <rect width="300" height="221" fill="white"/>
    </clipPath>
  </defs>
</svg>
