<svg width="746" height="401" viewBox="0 0 746 401" fill="none" xmlns="http://www.w3.org/2000/svg">
  <path opacity="0.08" d="M239.808 399.905C137.808 408.305 117.308 357.071 119.808 330.405C69.308 330.405 -24.192 291.105 5.80801 133.905C43.308 -62.5954 556.308 11.4046 673.808 24.4046C791.308 37.4046 732.308 168.405 718.808 277.405C705.308 386.405 367.308 389.405 239.808 399.905Z" fill="#5B074D"/>
  <g opacity="0.5">
    <path opacity="0.3" d="M365.92 59H60V266.059H365.92V59Z" fill="#FF7A00"/>
    <path d="M170.109 77.9714H79.5264V176.623H170.109V77.9714Z" fill="#F2F2F2"/>
    <path d="M313.306 77.9714H225.978V83.9338H313.306V77.9714Z" fill="#5B074D" fill-opacity="0.5"/>
    <path d="M111.529 191.8H80.6118V197.762H111.529V191.8Z" fill="#5B074D" fill-opacity="0.5"/>
    <path d="M169.025 202.64H80.6118V208.603H169.025V202.64Z" fill="#5B074D" fill-opacity="0.5"/>
    <path d="M331.205 99.6529H205.366V105.615H331.205V99.6529Z" fill="#F2F2F2"/>
    <path d="M331.205 116.456H205.366V122.419H331.205V116.456Z" fill="#F2F2F2"/>
    <path d="M331.205 133.259H205.366V139.222H331.205V133.259Z" fill="#F2F2F2"/>
    <path d="M331.205 150.063H205.366V156.025H331.205V150.063Z" fill="#F2F2F2"/>
    <path d="M331.205 166.866H205.366V172.828H331.205V166.866Z" fill="#F2F2F2"/>
    <path d="M331.205 183.669H205.366V189.631H331.205V183.669Z" fill="#F2F2F2"/>
    <path d="M331.205 200.472H205.366V206.435H331.205V200.472Z" fill="#F2F2F2"/>
    <path d="M167.647 177.165H155.871C154.965 174.731 154.161 172.266 153.457 169.771C152.994 166.837 151.655 164.112 149.617 161.949C148.995 161.256 148.441 160.505 147.963 159.706C146.953 157.737 146.589 155.501 146.921 153.315C146.989 152.706 147.091 152.102 147.225 151.504C147.74 149.19 148.603 146.968 149.324 144.713C149.477 144.255 149.755 143.849 150.127 143.541C150.499 143.234 150.95 143.037 151.429 142.973C152.205 142.843 153.002 142.935 153.729 143.238C153.889 143.304 154.044 143.383 154.19 143.477C155.475 144.252 156.142 145.835 156.679 147.282C159.137 153.873 161.592 160.464 164.045 167.056C164.523 168.335 165 169.618 165.477 170.904C166.182 172.79 166.882 174.677 167.479 176.601C167.538 176.791 167.593 176.975 167.647 177.165Z" fill="#D0CDE1"/>
    <path d="M118.624 90.4116C115.697 91.3997 113.044 93.7108 112.445 96.7403C112.167 98.1446 112.337 99.6044 112.103 101.017C111.561 104.292 108.988 106.794 106.615 109.117C104.242 111.441 101.791 114.141 101.618 117.456C101.428 121.086 104.063 124.488 103.607 128.094C103.078 132.285 98.6486 135 97.5537 139.08C96.8227 141.804 97.7185 144.738 99.1924 147.143C102.001 151.726 106.802 154.838 111.914 156.506C117.027 158.174 122.472 158.525 127.85 158.581C134.398 158.65 141.507 158.088 146.427 153.77C149.237 151.281 151.002 147.822 151.368 144.087C151.835 139.085 149.746 133.916 151.187 129.102C152.094 126.073 154.369 123.306 154.029 120.162C153.697 117.088 151.011 114.91 149.168 112.426C147.447 110.108 146.403 107.37 145.38 104.67L141.878 95.4341C141.19 93.6184 140.434 91.7088 138.9 90.5171C136.028 88.2862 131.41 88.7245 128.052 89.1847C124.937 89.6115 121.62 89.4006 118.624 90.4116Z" fill="#2F2E41"/>
    <path d="M121.333 120.85C121.333 120.85 121.676 131.125 120.648 132.152C119.62 133.18 124.76 140.03 124.76 140.03L134.014 139.687L138.812 135.92L134.699 130.44C134.699 130.44 132.986 121.535 134.357 119.48C135.728 117.425 121.333 120.85 121.333 120.85Z" fill="#A0616A"/>
    <path opacity="0.1" d="M121.333 120.85C121.333 120.85 121.676 131.125 120.648 132.152C119.62 133.18 124.76 140.03 124.76 140.03L134.014 139.687L138.812 135.92L134.699 130.44C134.699 130.44 132.986 121.535 134.357 119.48C135.728 117.425 121.333 120.85 121.333 120.85Z" fill="black"/>
    <path d="M126.988 124.789C133.802 124.789 139.326 119.269 139.326 112.459C139.326 105.65 133.802 100.129 126.988 100.129C120.174 100.129 114.65 105.65 114.65 112.459C114.65 119.269 120.174 124.789 126.988 124.789Z" fill="#A0616A"/>
    <path d="M133.312 177.165H143.314C143.688 176.487 144.041 175.782 144.448 175.143V175.137C144.892 174.364 145.518 173.709 146.27 173.229C146.748 173.01 147.201 172.74 147.621 172.422C148.022 171.987 148.306 171.457 148.445 170.882C149.134 168.732 149.514 166.494 149.573 164.237C149.59 163.478 149.573 162.708 149.617 161.95C149.638 161.357 149.714 160.767 149.845 160.188C150.188 159.011 150.686 157.884 151.325 156.838C152.681 154.372 154.041 151.906 155.404 149.439C155.65 148.744 155.744 148.005 155.681 147.271C155.652 146.281 155.347 145.318 154.802 144.49C154.612 144.149 154.406 143.807 154.189 143.477C153.352 142.143 152.378 140.9 151.282 139.769C148.956 137.332 146.133 135.422 143.005 134.17C142.612 134.038 142.238 133.856 141.893 133.628C141.485 133.283 141.14 132.871 140.873 132.408C139.788 130.777 138.465 128.939 136.507 129.042C136.188 128.883 135.841 128.788 135.485 128.764C135.129 128.739 134.772 128.786 134.435 128.901C134.332 128.928 134.23 128.961 134.131 128.999C133.382 129.33 132.656 129.708 131.956 130.132C130.154 131.066 128.113 131.437 126.098 131.194C125.861 131.178 125.63 131.119 125.414 131.021C125.186 130.876 124.974 130.705 124.785 130.511C124.29 130.106 123.696 129.84 123.065 129.739C122.433 129.638 121.786 129.706 121.189 129.937C120.629 130.136 120.134 130.485 119.757 130.945C119.399 131.395 119.149 131.937 118.754 132.36C117.728 133.455 116.036 133.498 114.539 133.492C111.43 133.406 108.321 133.691 105.28 134.343C102.609 134.936 100.113 136.142 97.99 137.867L97.9846 137.872C97.6917 138.122 97.4205 138.376 97.1493 138.647C96.5324 139.228 96.0413 139.929 95.7065 140.707C95.2942 141.769 95.3485 142.967 94.9742 144.046C94.562 145.255 93.6453 146.241 93.2765 147.455C92.9944 148.377 93.0324 149.396 92.5659 150.231C92.5876 150.247 92.6039 150.263 92.6256 150.279C94.5999 152.014 96.2868 154.291 98.2666 156.009C99.4157 156.884 100.388 157.969 101.131 159.207C101.274 159.485 101.392 159.775 101.483 160.074C101.706 161.11 101.804 162.169 101.776 163.229C102.026 168.297 104.776 172.893 107.851 176.926C107.911 177.007 107.97 177.089 108.035 177.165L133.312 177.165Z" fill="#D0CDE1"/>
    <path d="M101.131 159.207C100.665 162.443 100.194 165.677 99.7207 168.909C99.5053 170.64 99.1829 172.357 98.7552 174.048C98.4732 175.094 98.1098 176.118 97.8548 177.165H83.7305C83.7377 176.579 83.783 175.994 83.8661 175.414C84.2298 173.33 84.8209 171.293 85.6289 169.338C87.2724 164.904 88.9141 160.466 90.554 156.025C91.2537 154.133 91.8558 152.155 92.626 150.279C92.7616 149.933 92.908 149.586 93.0654 149.25C93.8844 147.45 96.1571 148.187 97.8386 148.458C98.3002 148.515 98.7502 148.643 99.1729 148.838C99.684 149.119 100.115 149.526 100.426 150.019C102.021 152.377 101.673 155.494 101.261 158.312C101.218 158.611 101.174 158.909 101.131 159.207Z" fill="#D0CDE1"/>
    <path d="M144.448 175.143C144.469 175.219 144.703 176.026 145.088 177.165H133.312C139.148 176.162 144.448 175.137 144.448 175.137V175.143Z" fill="#2F2E41"/>
    <path d="M128.016 112.459C135.398 112.459 141.383 109.239 141.383 105.267C141.383 101.295 135.398 98.0745 128.016 98.0745C120.634 98.0745 114.65 101.295 114.65 105.267C114.65 109.239 120.634 112.459 128.016 112.459Z" fill="#2F2E41"/>
  </g>
  <g opacity="0.5">
    <path opacity="0.3" d="M396.081 266.059L702 266.059V59L396.081 59V266.059Z" fill="#FF7A00"/>
    <path d="M682.473 77.9714H591.891V176.623H682.473V77.9714Z" fill="#F2F2F2"/>
    <path d="M448.694 83.9338L536.022 83.9338V77.9714L448.694 77.9714V83.9338Z" fill="#5B074D" fill-opacity="0.5"/>
    <path d="M591.891 197.762H622.808V191.8H591.891V197.762Z" fill="#5B074D" fill-opacity="0.5"/>
    <path d="M592.976 208.603H681.389V202.64H592.976V208.603Z" fill="#5B074D" fill-opacity="0.5"/>
    <path d="M430.795 105.615L556.634 105.615V99.653L430.795 99.653V105.615Z" fill="#F2F2F2"/>
    <path d="M430.795 122.419L556.634 122.419V116.456L430.795 116.456V122.419Z" fill="#F2F2F2"/>
    <path d="M430.795 139.222L556.634 139.222V133.259L430.795 133.259V139.222Z" fill="#F2F2F2"/>
    <path d="M430.795 156.025L556.634 156.025V150.063L430.795 150.063V156.025Z" fill="#F2F2F2"/>
    <path d="M430.795 172.828L556.634 172.828V166.866L430.795 166.866V172.828Z" fill="#F2F2F2"/>
    <path d="M430.795 189.631L556.634 189.631V183.669L430.795 183.669V189.631Z" fill="#F2F2F2"/>
    <path d="M430.795 206.435L556.634 206.435V200.472L430.795 200.472V206.435Z" fill="#F2F2F2"/>
    <path d="M605.494 134.303C606.835 133.35 608.314 132.608 609.881 132.105C619.811 128.412 630.217 126.149 640.785 125.382C649.975 124.731 659.934 125.504 667.112 131.276C668.228 132.094 669.142 133.158 669.782 134.385C670.685 136.332 670.411 138.596 670.119 140.722C670.054 141.546 669.846 142.354 669.504 143.107C668.538 144.945 666.16 145.589 664.095 145.368C662.03 145.148 660.092 144.275 658.054 143.87C656.793 143.65 655.518 143.52 654.239 143.482L641.462 142.79C633.516 142.36 625.466 141.938 617.673 143.54C615.273 143.971 612.955 144.77 610.8 145.907C609.019 146.906 607.821 148.339 606.169 146.494C603.267 143.253 601.661 137.297 605.494 134.303Z" fill="#2F2E41"/>
    <path d="M625.294 139.95C625.294 139.95 642.48 132.251 648.999 141.134C655.517 150.017 645.443 146.464 645.443 146.464L634.183 150.017L621.738 147.648L625.294 139.95Z" fill="#F2F2F2"/>
    <path d="M626.183 134.324C626.183 134.324 628.553 145.576 626.775 148.537C624.997 151.498 636.85 155.643 636.85 155.643L648.109 150.906C648.109 150.906 645.146 132.547 648.109 128.994L626.183 134.324Z" fill="#FFB9B9"/>
    <path opacity="0.1" d="M626.183 134.324C626.183 134.324 628.553 145.576 626.775 148.537C624.997 151.498 636.85 155.643 636.85 155.643L648.109 150.906C648.109 150.906 645.146 132.547 648.109 128.994L626.183 134.324Z" fill="black"/>
    <path d="M653.443 123.072C653.439 127.782 651.565 132.299 648.232 135.63C644.898 138.961 640.379 140.834 635.665 140.838C634.605 140.84 633.548 140.745 632.506 140.554C629.179 139.953 626.092 138.417 623.608 136.125C621.123 133.834 619.344 130.882 618.479 127.616C617.614 124.349 617.699 120.904 618.724 117.685C619.75 114.465 621.672 111.604 624.267 109.438C626.861 107.271 630.02 105.889 633.373 105.454C636.726 105.018 640.133 105.547 643.196 106.978C646.259 108.409 648.849 110.683 650.664 113.534C652.479 116.384 653.443 119.693 653.443 123.072Z" fill="#FFB9B9"/>
    <path d="M664.178 177.165H607.479L608.765 171.587L614.33 147.352L620.763 143.011L620.769 143.005L623.79 140.962L625.292 139.948C625.292 139.948 626.182 140.355 627.207 140.908C627.505 141.076 627.809 141.249 628.113 141.433C628.118 141.428 628.118 141.433 628.118 141.433C628.61 141.719 629.078 142.043 629.518 142.404C629.599 142.479 629.67 142.544 629.74 142.615C630.868 143.742 634.161 149.727 639.606 146.664C639.881 146.513 640.148 146.347 640.404 146.165C641.823 145.184 643.177 144.11 644.456 142.951C645.6 141.905 646.343 141.097 646.951 140.539C647.223 140.268 647.534 140.037 647.873 139.856C648.129 139.722 648.414 139.653 648.703 139.655C650.482 139.655 652.852 143.206 652.852 143.206L652.923 143.412L652.928 143.428L660.408 165.868L664.178 177.165Z" fill="#F2F2F2"/>
    <path d="M607.48 177.165H624.663C624.701 175.179 624.598 173.194 624.354 171.224C623.828 167.262 622.537 163.446 621.723 159.532C621.007 156.103 620.66 152.606 620.687 149.103C620.693 148.621 620.704 148.133 620.747 147.645C620.79 146.528 621.112 145.44 621.685 144.48C622.092 143.856 622.651 143.325 623.085 142.729C623.236 142.534 623.368 142.325 623.481 142.105V142.1C623.535 141.992 623.584 141.882 623.627 141.769C623.723 141.51 623.778 141.238 623.79 140.962C623.888 139.173 622.266 137.449 620.514 136.712C618.055 135.789 615.364 135.681 612.839 136.403C610.336 137.126 607.917 138.115 605.624 139.352C604.849 139.731 604.079 140.122 603.336 140.555C602.448 141.058 601.633 141.678 600.911 142.398C599.067 144.301 598.259 146.951 597.608 149.515C596.987 151.475 596.775 153.541 596.984 155.586C596.989 155.651 597.006 155.722 597.016 155.787C597.662 159.164 600.417 161.7 601.887 164.812C603.59 168.422 603.477 172.628 602.799 176.563C602.766 176.764 602.728 176.964 602.69 177.165H607.48V177.165Z" fill="#2F2E41"/>
    <path d="M677.429 155.478C675.273 162.565 673.707 169.819 672.748 177.165H648.253C647.613 175.419 646.975 173.672 646.338 171.923C645.83 170.603 645.394 169.257 645.031 167.89C644.643 166.301 644.459 164.669 644.483 163.034C644.483 162.643 644.499 162.248 644.532 161.857C644.535 161.854 644.536 161.851 644.536 161.847C644.536 161.843 644.535 161.839 644.532 161.836C644.681 159.773 645.159 157.747 645.948 155.835C646.31 154.966 646.726 154.121 647.195 153.304C648.334 151.244 649.712 149.304 650.938 147.287C651.702 146.055 652.367 144.765 652.928 143.428C652.928 143.425 652.928 143.422 652.929 143.419C652.93 143.416 652.932 143.414 652.934 143.412C653.666 141.707 654.047 139.873 654.057 138.019C654.019 135.628 649.972 131.46 654.371 131.861C660.376 132.403 665.534 135.856 670.237 139.791C671.49 140.842 672.716 141.932 673.914 143.005C675.769 144.675 677.728 146.496 678.286 148.93C678.376 149.318 678.428 149.713 678.443 150.111C678.411 151.945 678.068 153.759 677.429 155.478Z" fill="#2F2E41"/>
    <path d="M640.714 148.94C640.098 147.275 639.152 145.751 637.933 144.459C636.704 143.421 635.25 142.685 633.685 142.308C631.658 141.73 629.561 141.429 627.453 141.416C624.943 141.4 622.033 142.073 620.967 144.344C620.121 146.147 620.777 148.282 621.629 150.083C621.993 151.015 622.6 151.834 623.386 152.454C624.468 153.185 625.868 153.162 627.151 153.407C629.14 153.911 631.025 154.765 632.716 155.927L637.112 158.582L644.662 163.143C644.463 163.023 644.534 157.848 644.302 157C643.555 154.269 641.873 151.527 640.714 148.94Z" fill="#FFB9B9"/>
    <path d="M652.996 113.813C652.68 112.75 651.983 111.841 651.039 111.26C651.088 110.122 650.948 108.983 650.626 107.891C649.549 104.71 646.998 104.892 644.592 103.486C643.548 102.876 643.612 102.337 643.069 101.334C642.357 100.021 641.29 98.933 639.99 98.195C638.446 97.212 636.816 96.1996 634.99 96.0752C631.151 95.8138 628.208 99.4215 624.54 100.579C622.923 101.09 621.185 101.111 619.56 101.593C617.934 102.076 616.312 103.228 616.07 104.905C615.958 105.679 616.155 106.474 616.042 107.248C615.816 108.786 614.466 109.864 613.561 111.129C611.562 113.928 611.791 117.881 613.39 120.926C613.727 121.556 614.112 122.159 614.543 122.729C614.676 124.168 615.09 125.567 615.76 126.848C617.359 129.893 620.111 132.168 622.985 134.058C622.75 133.048 622.607 132.019 622.559 130.984C622.518 130.638 622.563 130.289 622.69 129.965C623.01 129.296 623.856 129.118 624.5 128.752C625.836 127.994 626.36 126.315 626.399 124.78C626.437 123.245 626.112 121.708 626.273 120.181C626.279 119.83 626.359 119.484 626.507 119.165C626.655 118.847 626.869 118.563 627.134 118.332C627.627 118.051 628.19 117.917 628.757 117.946C631.494 117.834 634.353 117.784 636.767 116.49C637.546 115.974 638.383 115.551 639.26 115.23C641.312 114.695 643.409 116.132 644.591 117.891C645.774 119.65 646.363 121.743 647.454 123.559C648.545 125.376 650.43 126.996 652.539 126.781C652.658 126.781 652.775 126.757 652.884 126.708C652.992 126.66 653.089 126.59 653.169 126.501C653.26 126.338 653.3 126.151 653.285 125.965L653.403 117.908C653.501 116.53 653.363 115.145 652.996 113.813Z" fill="#2F2E41"/>
    <path d="M606.107 168.307C606.492 171.592 606.726 174.889 606.807 178.196H591.891V165.219C591.967 164.904 592.048 164.596 592.146 164.287C593.078 161.311 595.037 158.817 596.734 156.229C596.816 156.099 596.903 155.97 596.984 155.841C597.706 154.749 598.327 153.589 598.839 152.376C599.083 151.781 599.474 148.9 599.886 148.653C601.654 147.592 603.092 152.129 603.336 153.14C604.203 156.74 604.957 160.373 605.527 164.04C605.749 165.46 605.943 166.883 606.107 168.307Z" fill="#2F2E41"/>
    <path d="M681.486 178.196H647.244C646.951 177.486 646.664 176.775 646.36 176.07C644.224 171.088 641.463 166.417 638.148 162.177C637.601 161.617 637.245 160.889 637.133 160.102C637.122 159.775 637.199 159.451 637.356 159.167C637.877 158.166 639.254 157.578 640.372 157.103C641.527 156.623 642.588 155.933 643.507 155.066C644.319 154.312 644.941 153.365 645.319 152.308C645.419 151.998 645.495 151.679 645.546 151.357C645.704 151.569 645.866 151.787 646.024 152C646.409 152.526 646.799 153.046 647.195 153.567C650.992 158.597 655.163 163.554 660.408 166.536C661.779 167.324 663.226 167.959 664.726 168.433C664.87 168.498 665.025 168.531 665.182 168.531C665.338 168.531 665.494 168.498 665.637 168.433C665.859 168.245 666.001 167.977 666.033 167.683C666.5 165.669 666.662 163.593 667.004 161.551C667.632 157.835 668.839 154.249 670.579 150.931C671.549 149.068 674.706 142.259 676.708 146.55C677.283 147.787 677.861 149.027 678.444 150.271C678.807 151.06 679.176 151.843 679.545 152.632C680.906 155.135 681.526 157.995 681.329 160.857C681.383 166.642 681.436 172.422 681.486 178.196Z" fill="#2F2E41"/>
    <path opacity="0.1" d="M607.48 178.196H610.447L608.765 172.196L606.341 163.549C606.369 165.013 606.291 166.477 606.107 167.928C605.741 170.927 604.944 173.846 603.743 176.581C603.509 177.112 603.26 177.648 603.059 178.196H607.48Z" fill="black"/>
    <path opacity="0.1" d="M667.915 160.023C667.497 161.227 667.877 162.559 668.199 163.796C669.132 167.384 669.567 171.1 669.491 174.824C669.505 174.89 669.503 174.957 669.486 175.021C669.469 175.086 669.437 175.144 669.394 175.192C669.35 175.24 669.296 175.275 669.237 175.295C669.178 175.315 669.114 175.318 669.053 175.306C667.685 175.395 666.119 175.405 665.191 174.324L667.915 160.023Z" fill="black"/>
  </g>
  <path opacity="0.7" d="M528.805 154.941H222.886V362H528.805V154.941Z" fill="#FF7A00"/>
  <path opacity="0.1" d="M484.328 358.223C504.099 358.223 520.127 356.524 520.127 354.429C520.127 352.333 504.099 350.635 484.328 350.635C464.557 350.635 448.529 352.333 448.529 354.429C448.529 356.524 464.557 358.223 484.328 358.223Z" fill="black"/>
  <path d="M332.996 184.229H242.413V282.88H332.996V184.229Z" fill="#F2F2F2"/>
  <path d="M271.581 229.523C271.876 229.612 272.192 229.597 272.476 229.479C272.76 229.362 272.995 229.15 273.14 228.879C274.393 226.906 272.086 224.363 272.586 222.08C272.986 220.252 275.065 219.166 275.49 217.344C275.903 215.572 274.63 213.576 275.491 211.973C276.165 210.717 277.848 210.387 279.257 210.607C280.666 210.827 282.003 211.446 283.426 211.532C285.323 211.648 287.131 210.814 288.985 210.4C290.84 209.987 293.102 210.149 294.192 211.703C295.593 213.699 294.172 216.479 294.66 218.868C295.047 220.764 296.636 222.335 296.67 224.271C296.683 224.959 294.873 224.404 294.969 225.086C295.065 225.767 294.21 225.167 294.894 225.086C295.173 225.018 295.423 224.863 295.608 224.643C295.793 224.423 295.903 224.15 295.923 223.863C296.004 223.296 297.071 223.106 297.059 222.533C297.03 221.19 299.46 222.096 299.86 220.813C300.781 217.823 300.592 214.602 299.328 211.74C298.677 210.57 298.157 209.333 297.778 208.05C297.421 206.269 297.983 204.357 297.394 202.638C296.601 200.322 293.975 199.142 291.537 198.902C289.099 198.662 286.622 199.092 284.198 198.738C282.027 198.421 279.925 197.481 277.735 197.617C275.107 197.781 272.82 199.473 270.999 201.372C269.177 203.272 267.632 205.457 265.563 207.085C264.93 207.52 264.345 208.023 263.82 208.584C262.766 209.868 262.659 211.696 262.953 213.329C263.246 214.963 263.884 216.522 264.153 218.16C264.406 219.699 264.328 221.272 264.437 222.828C264.462 224.398 264.938 225.927 265.807 227.235C266.182 227.744 266.669 228.161 267.231 228.454C267.792 228.747 268.412 228.908 269.045 228.925C269.484 228.935 269.854 228.542 270.297 228.644C270.85 228.773 271.09 229.298 271.581 229.523Z" fill="#2F2E41"/>
  <path d="M251.661 283.422C252.057 277.996 252.355 273.942 252.355 273.942L254.915 267.199L263.133 283.422L251.661 283.422Z" fill="#575A89"/>
  <path opacity="0.1" d="M251.661 283.422C252.057 277.996 252.355 273.942 252.355 273.942L254.915 267.199L263.133 283.422L251.661 283.422Z" fill="black"/>
  <path d="M270.704 230.074C270.704 230.074 278.367 249.566 273.955 253.278C269.543 256.991 298.568 247.013 298.568 247.013L297.871 244.461C297.871 244.461 288.351 240.748 292.995 230.074C297.639 219.401 270.704 230.074 270.704 230.074Z" fill="#A0616A"/>
  <path opacity="0.1" d="M270.704 230.074C270.704 230.074 278.367 249.566 273.955 253.278C269.543 256.991 298.568 247.013 298.568 247.013L297.871 244.461C297.871 244.461 288.351 240.748 292.995 230.074C297.639 219.401 270.704 230.074 270.704 230.074Z" fill="black"/>
  <path d="M281.617 237.964C290.594 237.964 297.871 230.692 297.871 221.721C297.871 212.751 290.594 205.479 281.617 205.479C272.641 205.479 265.364 212.751 265.364 221.721C265.364 230.692 272.641 237.964 281.617 237.964Z" fill="#A0616A"/>
  <path d="M321.089 256.759C321.089 256.759 321.024 258.049 320.91 260.304C320.677 264.895 320.259 273.497 319.842 283.422H256.835C255.189 281.218 253.841 278.807 252.827 276.251C252.553 275.509 252.393 274.731 252.355 273.942C252.008 267.789 257.524 259.203 261.419 258.385C265.828 257.453 274.187 248.639 274.187 248.639C274.214 248.975 274.325 249.298 274.511 249.578C274.697 249.859 274.951 250.088 275.25 250.244V250.249C275.924 250.597 276.678 250.762 277.436 250.726C280.159 250.726 292.135 245.203 295.981 243.398C296.735 243.045 297.174 242.834 297.174 242.834C301.61 244.747 306.191 246.3 310.876 247.479C313.213 248.062 315.369 249.214 317.152 250.834C318.934 252.453 320.287 254.489 321.089 256.759Z" fill="#575A89"/>
  <path d="M268.795 227.898C269.089 227.988 269.405 227.972 269.689 227.855C269.973 227.738 270.208 227.526 270.353 227.255C271.606 225.282 269.3 222.739 269.799 220.456C270.199 218.628 272.279 217.542 272.704 215.719C273.117 213.948 271.844 211.951 272.704 210.349C273.378 209.093 275.062 208.763 276.471 208.983C277.879 209.203 279.217 209.822 280.64 209.908C282.536 210.024 284.344 209.19 286.199 208.776C288.053 208.363 290.315 208.525 291.406 210.079C292.807 212.075 291.386 214.855 291.873 217.243C292.261 219.14 296.673 220.472 297.074 219.189C297.994 216.199 297.805 212.978 296.542 210.115C295.891 208.946 295.371 207.709 294.992 206.425C294.635 204.644 295.196 202.732 294.607 201.014C293.814 198.698 291.188 197.518 288.751 197.278C286.313 197.038 283.836 197.467 281.412 197.114C279.241 196.797 277.138 195.857 274.948 195.993C272.321 196.156 270.034 197.848 268.212 199.748C266.39 201.648 264.845 203.833 262.776 205.461C262.143 205.896 261.559 206.399 261.033 206.96C259.98 208.243 259.873 210.071 260.166 211.705C260.459 213.339 261.097 214.898 261.366 216.536C261.619 218.075 261.541 219.648 261.65 221.204C261.676 222.773 262.151 224.303 263.02 225.61C263.396 226.12 263.883 226.537 264.444 226.83C265.005 227.123 265.626 227.284 266.259 227.301C266.697 227.311 267.067 226.917 267.51 227.02C268.063 227.148 268.304 227.673 268.795 227.898Z" fill="#2F2E41"/>
  <path opacity="0.1" d="M329.144 283.422H310.756C309.357 273.166 308.202 262.445 308.202 262.445L311.917 260.819L319.468 256.759C319.468 256.759 320.021 258.071 320.91 260.304C322.809 265.079 326.253 274.066 329.144 283.422Z" fill="black"/>
  <path d="M330.766 283.422H310.013C306.938 272.202 303.906 260.006 303.906 260.006L311.803 254.206L321.089 256.759C321.089 256.759 326.524 269.687 330.766 283.422Z" fill="#575A89"/>
  <path opacity="0.8" d="M476.192 184.229H388.864V190.191H476.192V184.229Z" fill="#5B074D"/>
  <path opacity="0.8" d="M274.415 298.057H243.498V304.019H274.415V298.057Z" fill="#5B074D"/>
  <path opacity="0.7" d="M331.911 308.898H243.498V314.86H331.911V308.898Z" fill="#5B074D"/>
  <path d="M494.091 205.91H368.252V211.873H494.091V205.91Z" fill="#F2F2F2"/>
  <path d="M494.091 222.713H368.252V228.676H494.091V222.713Z" fill="#F2F2F2"/>
  <path d="M494.091 239.517H368.252V245.479H494.091V239.517Z" fill="#F2F2F2"/>
  <path d="M494.091 256.32H368.252V262.282H494.091V256.32Z" fill="#F2F2F2"/>
  <path d="M494.091 273.123H368.252V279.085H494.091V273.123Z" fill="#F2F2F2"/>
  <path d="M494.091 289.926H368.252V295.889H494.091V289.926Z" fill="#F2F2F2"/>
  <path d="M494.091 306.73H368.252V312.692H494.091V306.73Z" fill="#F2F2F2"/>
  <path d="M518.347 307.535L483.947 341.911L469.489 327.462C469.03 327.004 468.485 326.64 467.886 326.392C467.286 326.144 466.643 326.016 465.994 326.016C465.345 326.016 464.702 326.144 464.103 326.392C463.503 326.64 462.958 327.004 462.499 327.462L461.98 326.686C460.05 328.615 460.569 332.518 462.499 334.447L481.259 353.194C481.966 353.9 482.925 354.297 483.924 354.298C484.924 354.298 485.883 353.901 486.591 353.195L525.333 314.52C527.264 312.592 527.965 309.056 526.034 307.127C524.105 305.199 520.276 305.607 518.347 307.535Z" fill="#57B894"/>
  <path opacity="0.1" d="M518.347 307.535L483.947 341.911L469.489 327.462C469.03 327.004 468.485 326.64 467.886 326.392C467.286 326.144 466.643 326.016 465.994 326.016C465.345 326.016 464.702 326.144 464.103 326.392C463.503 326.64 462.958 327.004 462.499 327.462L461.98 326.686C460.05 328.615 460.569 332.518 462.499 334.447L481.259 353.194C481.966 353.9 482.925 354.297 483.924 354.298C484.924 354.298 485.883 353.901 486.591 353.195L525.333 314.52C527.264 312.592 527.965 309.056 526.034 307.127C524.105 305.199 520.276 305.607 518.347 307.535Z" fill="black"/>
  <g opacity="0.8" clip-path="url(#clip0)">
    <path d="M412.624 214.577C410.477 212.332 407.905 210.541 405.059 209.31C402.213 208.079 399.151 207.433 396.053 207.409C392.955 207.386 389.883 207.985 387.019 209.173C384.155 210.361 381.557 212.113 379.376 214.325C370.584 223.234 370.436 237.74 379.035 246.83C382.812 250.829 387.875 253.355 393.327 253.961C398.78 254.567 404.269 253.213 408.824 250.14L425.615 267.69C425.718 267.798 425.841 267.884 425.977 267.944C426.113 268.004 426.259 268.037 426.408 268.039C426.556 268.042 426.704 268.016 426.842 267.962C426.98 267.907 427.107 267.826 427.214 267.722L431.396 263.68C431.503 263.576 431.589 263.453 431.649 263.316C431.708 263.179 431.741 263.032 431.744 262.883C431.747 262.734 431.72 262.585 431.666 262.446C431.612 262.307 431.531 262.18 431.428 262.073L414.637 244.523C417.857 240.09 419.42 234.658 419.052 229.182C418.683 223.705 416.408 218.534 412.624 214.577ZM407.394 242.797C405.026 245.087 402.036 246.619 398.801 247.201C395.567 247.782 392.233 247.386 389.223 246.063C386.212 244.74 383.659 242.55 381.887 239.769C380.115 236.987 379.203 233.74 379.266 230.438C379.33 227.136 380.367 223.926 382.245 221.216C384.123 218.506 386.758 216.417 389.818 215.212C392.877 214.007 396.223 213.742 399.433 214.449C402.642 215.156 405.571 216.804 407.849 219.184C409.362 220.765 410.55 222.629 411.346 224.671C412.141 226.713 412.529 228.893 412.487 231.085C412.445 233.278 411.973 235.441 411.099 237.45C410.225 239.46 408.966 241.277 407.394 242.797Z" fill="url(#paint0_linear)"/>
    <path d="M383.576 226.115C381.707 226.115 381.704 229.033 383.576 229.033C385.448 229.033 385.446 226.115 383.576 226.115Z" fill="url(#paint1_linear)"/>
    <path d="M396.598 216.767C391.57 216.652 386.993 219.189 384.561 223.024C383.767 224.272 386.021 225.375 386.811 224.133C388.825 220.963 392.654 218.944 396.791 219.056C401.13 219.166 405.079 221.661 407.169 225.124C407.963 226.437 410.04 225.243 409.252 223.936C406.715 219.729 401.794 216.884 396.598 216.767Z" fill="url(#paint2_linear)"/>
    <path d="M414.446 213.689C412.299 211.443 409.727 209.653 406.881 208.422C404.035 207.191 400.973 206.544 397.875 206.521C394.777 206.497 391.705 207.097 388.841 208.285C385.977 209.473 383.378 211.224 381.198 213.437C372.406 222.346 372.257 236.851 380.856 245.942C384.633 249.941 389.697 252.467 395.149 253.073C400.601 253.679 406.091 252.325 410.646 249.252L427.437 266.802C427.54 266.91 427.663 266.996 427.799 267.056C427.935 267.116 428.081 267.148 428.229 267.151C428.378 267.154 428.526 267.128 428.664 267.073C428.802 267.019 428.928 266.938 429.035 266.834L433.219 262.79C433.327 262.687 433.413 262.563 433.472 262.426C433.532 262.29 433.564 262.142 433.567 261.993C433.57 261.844 433.544 261.696 433.489 261.556C433.435 261.417 433.354 261.291 433.251 261.183L416.46 243.633C419.679 239.2 421.242 233.768 420.873 228.292C420.505 222.816 418.229 217.646 414.446 213.689ZM409.216 241.909C406.848 244.199 403.857 245.731 400.623 246.312C397.388 246.894 394.055 246.498 391.044 245.175C388.034 243.852 385.481 241.662 383.709 238.88C381.936 236.099 381.025 232.852 381.088 229.55C381.152 226.247 382.188 223.038 384.066 220.328C385.945 217.618 388.58 215.528 391.639 214.324C394.699 213.119 398.045 212.854 401.255 213.561C404.464 214.268 407.393 215.916 409.671 218.296C411.184 219.876 412.372 221.741 413.167 223.783C413.963 225.825 414.351 228.004 414.309 230.197C414.266 232.39 413.795 234.553 412.921 236.562C412.047 238.572 410.788 240.388 409.216 241.909Z" fill="#5B074D"/>
    <path d="M385.397 225.223C383.529 225.223 383.526 228.141 385.397 228.141C387.269 228.141 387.268 225.223 385.397 225.223Z" fill="#5B074D"/>
    <path d="M398.42 215.879C393.392 215.764 388.815 218.3 386.383 222.135C385.589 223.384 387.843 224.487 388.633 223.245C390.647 220.075 394.476 218.056 398.613 218.168C402.952 218.278 406.901 220.773 408.991 224.235C409.785 225.549 411.862 224.354 411.074 223.048C408.537 218.844 403.615 215.998 398.42 215.879Z" fill="#5B074D"/>
  </g>
  <defs>
    <linearGradient id="paint0_linear" x1="402.215" y1="268.044" x2="402.215" y2="207.41" gradientUnits="userSpaceOnUse">
      <stop stop-color="#B3B3B3" stop-opacity="0.25"/>
      <stop offset="0.54" stop-color="#B3B3B3" stop-opacity="0.1"/>
      <stop offset="1" stop-color="#B3B3B3" stop-opacity="0.05"/>
    </linearGradient>
    <linearGradient id="paint1_linear" x1="383.576" y1="229.035" x2="383.576" y2="226.115" gradientUnits="userSpaceOnUse">
      <stop stop-opacity="0.12"/>
      <stop offset="0.55" stop-opacity="0.09"/>
      <stop offset="1" stop-opacity="0.02"/>
    </linearGradient>
    <linearGradient id="paint2_linear" x1="19312.8" y1="3566.11" x2="19312.8" y2="3043.84" gradientUnits="userSpaceOnUse">
      <stop stop-opacity="0.12"/>
      <stop offset="0.55" stop-opacity="0.09"/>
      <stop offset="1" stop-opacity="0.02"/>
    </linearGradient>
    <clipPath id="clip0">
      <rect width="146.391" height="74.2769" fill="white" transform="translate(304.329 206.522)"/>
    </clipPath>
  </defs>
</svg>
