<svg width="139" height="146" viewBox="0 0 139 146" fill="none" xmlns="http://www.w3.org/2000/svg">
  <g opacity="0.6">
    <path d="M136.827 127.61C137.436 137.705 128.908 136.417 123.847 134.807L95.9439 104.271L71.9173 79.3111L82.0327 70.6408C99.158 85.8206 136.217 117.515 136.827 127.61Z" fill="url(#paint0_linear)" stroke="black" stroke-opacity="0.8"/>
    <g filter="url(#filter0_d)">
      <circle cx="47.3514" cy="43.3514" r="43.3514" fill="#FF7A00" fill-opacity="0.7"/>
      <circle cx="47.3514" cy="43.3514" r="42.8514" stroke="black" stroke-opacity="0.8"/>
    </g>
    <mask id="path-4-inside-1" fill="white">
    <path d="M13.0205 34.4195C13.6242 30.4804 14.9978 26.6988 17.063 23.2905C19.1282 19.8823 21.8444 16.9142 25.0566 14.5557C28.2689 12.1972 31.9142 10.4944 35.7845 9.54473C39.6548 8.59503 43.6742 8.41693 47.6133 9.02061L46.4998 16.2864C43.5149 15.829 40.469 15.9639 37.5362 16.6836C34.6034 17.4032 31.8411 18.6935 29.407 20.4807C26.9728 22.2679 24.9145 24.5171 23.3496 27.0998C21.7847 29.6824 20.7438 32.5481 20.2863 35.533L13.0205 34.4195Z"/>
    </mask>
    <path d="M13.0205 34.4195C13.6242 30.4804 14.9978 26.6988 17.063 23.2905C19.1282 19.8823 21.8444 16.9142 25.0566 14.5557C28.2689 12.1972 31.9142 10.4944 35.7845 9.54473C39.6548 8.59503 43.6742 8.41693 47.6133 9.02061L46.4998 16.2864C43.5149 15.829 40.469 15.9639 37.5362 16.6836C34.6034 17.4032 31.8411 18.6935 29.407 20.4807C26.9728 22.2679 24.9145 24.5171 23.3496 27.0998C21.7847 29.6824 20.7438 32.5481 20.2863 35.533L13.0205 34.4195Z" fill="#FF7A00" fill-opacity="0.7" stroke="black" stroke-opacity="0.8" stroke-width="2" mask="url(#path-4-inside-1)"/>
  </g>
  <defs>
    <filter id="filter0_d" x="0" y="0" width="94.7029" height="94.7029" filterUnits="userSpaceOnUse" color-interpolation-filters="sRGB">
      <feFlood flood-opacity="0" result="BackgroundImageFix"/>
      <feColorMatrix in="SourceAlpha" type="matrix" values="0 0 0 0 0 0 0 0 0 0 0 0 0 0 0 0 0 0 127 0"/>
      <feOffset dy="4"/>
      <feGaussianBlur stdDeviation="2"/>
      <feColorMatrix type="matrix" values="0 0 0 0 0 0 0 0 0 0 0 0 0 0 0 0 0 0 0.25 0"/>
      <feBlend mode="normal" in2="BackgroundImageFix" result="effect1_dropShadow"/>
      <feBlend mode="normal" in="SourceGraphic" in2="effect1_dropShadow" result="shape"/>
    </filter>
    <linearGradient id="paint0_linear" x1="96.7455" y1="65.8399" x2="110.469" y2="139.58" gradientUnits="userSpaceOnUse">
      <stop stop-color="#FF7A00"/>
      <stop offset="1" stop-color="#5B074D"/>
    </linearGradient>
  </defs>
</svg>
