<svg width="116" height="80" viewBox="0 0 116 80" fill="none" xmlns="http://www.w3.org/2000/svg">
  <g opacity="0.6">
    <path d="M114.69 9.80984L84.76 40.2598C84.7074 40.3103 84.6655 40.3708 84.6369 40.4378C84.6083 40.5049 84.5935 40.577 84.5935 40.6499C84.5935 40.7227 84.6083 40.7948 84.6369 40.8618C84.6655 40.9289 84.7074 40.9894 84.76 41.0398L105.76 63.3698C106.262 63.876 106.604 64.5193 106.742 65.219C106.88 65.9186 106.809 66.6435 106.536 67.3026C106.264 67.9617 105.803 68.5256 105.211 68.9236C104.619 69.3216 103.923 69.536 103.21 69.5398C102.25 69.5378 101.33 69.1568 100.65 68.4798L79.76 46.2298C79.6534 46.1248 79.5097 46.0659 79.36 46.0659C79.2103 46.0659 79.0667 46.1248 78.96 46.2298L73.87 51.3698C71.786 53.501 69.297 55.1943 66.5494 56.35C63.8017 57.5057 60.8508 58.1006 57.87 58.0998C54.8327 58.0857 51.8288 57.4665 49.0335 56.2784C46.2383 55.0903 43.7079 53.357 41.59 51.1798L36.7 46.1798C36.5934 46.0748 36.4497 46.0159 36.3 46.0159C36.1503 46.0159 36.0067 46.0748 35.9 46.1798L15.06 68.3798C14.7247 68.7158 14.3264 68.9822 13.888 69.1641C13.4496 69.3459 12.9796 69.4395 12.505 69.4395C12.0304 69.4395 11.5604 69.3459 11.122 69.1641C10.6836 68.9822 10.2853 68.7158 9.95002 68.3798C9.6129 68.0452 9.34531 67.6471 9.16272 67.2086C8.98014 66.7701 8.88617 66.2999 8.88617 65.8248C8.88617 65.3498 8.98014 64.8795 9.16272 64.441C9.34531 64.0025 9.6129 63.6045 9.95002 63.2699L30.87 40.9898C30.963 40.8811 31.014 40.7428 31.014 40.5998C31.014 40.4568 30.963 40.3185 30.87 40.2099L0.940007 9.75985C0.863081 9.68249 0.76488 9.62976 0.657902 9.60836C0.550924 9.58695 0.440007 9.5978 0.339238 9.63961C0.238468 9.68142 0.152389 9.75225 0.0919843 9.8431C0.0315796 9.93395 -0.000430046 10.0408 4.36361e-06 10.1499V71.0799C0.00791268 73.4352 0.947066 75.6918 2.61255 77.3573C4.27804 79.0228 6.53468 79.9619 8.89002 79.9698H106.76C109.115 79.9619 111.372 79.0228 113.037 77.3573C114.703 75.6918 115.642 73.4352 115.65 71.0799V10.1998C115.655 10.0864 115.625 9.97427 115.563 9.87874C115.502 9.78322 115.413 9.709 115.308 9.66628C115.202 9.62356 115.087 9.61446 114.976 9.64016C114.865 9.66586 114.766 9.72511 114.69 9.80984Z" fill="#5B074D"/>
    <path d="M57.84 50.87C59.8689 50.8899 61.881 50.5018 63.7569 49.7288C65.6328 48.9557 67.3342 47.8135 68.76 46.37L112.35 2C110.803 0.718208 108.859 0.0115357 106.85 0H8.91003C6.89986 0.0065529 4.95489 0.713818 3.41003 2L47.01 46.37C48.4232 47.8053 50.1096 48.9431 51.9697 49.7159C53.8297 50.4888 55.8258 50.8812 57.84 50.87Z" fill="#5B074D"/>
  </g>
</svg>
