<svg width="139" height="101" viewBox="0 0 139 101" fill="none" xmlns="http://www.w3.org/2000/svg">
  <g opacity="0.6" clip-path="url(#clip0)">
    <path opacity="0.1" d="M136.645 80.6985C133.202 87.7944 126.208 92.5393 118.962 95.6684C113.16 98.1572 107.028 99.7917 100.756 100.521C99.5549 100.663 98.3499 100.774 97.1409 100.852C94.0517 101.053 90.9525 101.05 87.8638 100.842C86.0058 100.718 84.1544 100.521 82.3094 100.25C75.8988 99.3161 69.6489 97.4984 63.7383 94.8489C62.0325 94.0816 60.3612 93.244 58.7245 92.336C55.9908 90.8227 53.3715 89.1118 50.8875 87.217C50.3379 86.7976 49.7952 86.369 49.2594 85.9315L49.0391 85.7515C48.6178 85.4045 48.2004 85.0498 47.7765 84.7054C47.072 84.116 46.3241 83.5802 45.5392 83.1027C45.4861 83.0716 45.433 83.0405 45.3785 83.0107C45.2333 82.9266 45.0856 82.8476 44.9352 82.7725C44.6254 82.6166 44.3079 82.4766 43.9838 82.3531C42.4866 81.7834 40.8832 81.5763 39.2577 81.6112C38.9881 81.6112 38.7185 81.6294 38.4476 81.6475C38.0691 81.6734 37.6893 81.7122 37.3108 81.7614L37.1708 81.7808C35.9647 81.9513 34.7722 82.207 33.6023 82.546C31.7953 83.0638 30.0208 83.7112 28.2346 84.295C27.4763 84.5449 26.7167 84.7831 25.9506 84.9967L25.7821 85.0433C24.6926 85.3494 23.5834 85.5813 22.4624 85.7373C19.915 86.0625 17.3277 85.8544 14.8652 85.1262L14.7797 85.1016L14.6215 85.055L14.4051 84.9877C14.0421 84.8737 13.6822 84.749 13.3253 84.6135L13.1088 84.5307C12.7632 84.3977 12.4249 84.2549 12.0939 84.1021L11.8774 84.0037C11.5318 83.8432 11.1935 83.6736 10.8625 83.4949C10.7432 83.4328 10.6253 83.3655 10.5086 83.302C10.156 83.1053 9.81037 82.899 9.47162 82.6832C9.11213 82.4545 8.76042 82.2158 8.41649 81.9673C8.25749 81.8533 8.10021 81.7364 7.94466 81.6164C7.04799 80.9314 6.20831 80.175 5.43386 79.3547C5.39109 79.312 5.35091 79.268 5.31072 79.2252C5.10462 79.0025 4.90241 78.776 4.70668 78.5442C4.63409 78.4588 4.5615 78.3734 4.49021 78.2853C4.25775 78.0022 4.0335 77.7127 3.81746 77.4166C3.78506 77.3739 3.75395 77.3299 3.72284 77.2871C2.83717 76.0638 2.10293 74.738 1.5361 73.3385C1.51795 73.2958 1.5011 73.2518 1.48554 73.209C1.31271 72.7645 1.15501 72.3127 1.01242 71.8535C0.95409 71.6619 0.898352 71.4652 0.849095 71.2736C0.832244 71.2166 0.816689 71.1583 0.802431 71.1014C0.0869113 68.2881 0.00524902 65.3635 0.00524902 62.4558C0.00524902 62.1166 0.00524902 61.7778 0.00524902 61.4395C0.0259887 56.736 0.0985774 51.9524 0.793357 47.3137C0.793357 47.2813 0.802431 47.2489 0.807616 47.2179C1.04015 45.6562 1.35646 44.1082 1.75516 42.5805C2.17244 40.9774 2.70573 39.4068 3.35082 37.8809C4.94907 34.1265 7.27322 30.7099 9.85401 27.5432C12.965 23.7331 16.5296 20.2169 20.5 17.3156C21.0703 16.8987 21.6484 16.4939 22.2343 16.1012L22.5052 15.9238C22.5998 15.8604 22.6945 15.7944 22.7891 15.7387C22.9835 15.6092 23.178 15.4875 23.375 15.3645L23.5954 15.2273L24.0153 14.9684L24.145 14.8946L24.3692 14.7651L24.5909 14.6357C24.8501 14.4829 25.1124 14.3336 25.3777 14.1877C26.5106 13.5568 27.6703 12.9803 28.8568 12.4581C29.2067 12.3036 29.5589 12.1547 29.9132 12.0114C31.5217 11.3571 33.1741 10.8159 34.8583 10.3918C35.4805 10.2348 36.1066 10.0967 36.7365 9.97755C37.4797 9.83428 38.2268 9.7156 38.9777 9.62153C40.1727 9.47136 41.3746 9.38191 42.5787 9.35353C51.0456 9.14769 59.5982 11.9001 66.2336 17.1757C68.8779 19.2782 71.2539 21.7678 74.2235 23.3797C76.816 24.783 79.8505 25.3643 82.627 24.26C84.9213 23.3473 86.4146 22.8942 88.9915 23.0327C94.3238 23.3327 99.5807 24.4307 104.586 26.29C104.789 26.3638 104.991 26.4402 105.192 26.5166C118.246 31.5074 129.47 41.4179 135.301 54.1532C135.454 54.4898 135.604 54.829 135.75 55.1708C139.228 63.2817 140.483 72.7909 136.645 80.6985Z" fill="#6C63FF"/>
    <path opacity="0.1" d="M25.9467 35.9122V84.9998L25.7782 85.0464C24.6886 85.3525 23.5795 85.5843 22.4585 85.7403C19.9111 86.0656 17.3238 85.8575 14.8613 85.1292L14.7758 85.1046L14.6176 85.058L14.4012 84.9907C14.0382 84.8768 13.6783 84.7521 13.3214 84.6166L13.1049 84.5337C12.7593 84.4008 12.421 84.2579 12.09 84.1052L11.8735 84.0068C11.5279 83.8462 11.1895 83.6767 10.8586 83.498C10.7393 83.4358 10.6214 83.3685 10.5047 83.3051C10.1521 83.1083 9.80646 82.902 9.46772 82.6862C9.10823 82.4575 8.75652 82.2189 8.41258 81.9703C8.25358 81.8564 8.0963 81.7394 7.94076 81.6195C7.04408 80.9345 6.20441 80.1781 5.42996 79.3577C5.38718 79.315 5.347 79.271 5.30681 79.2283C5.10071 79.0056 4.8985 78.779 4.70277 78.5473C4.63018 78.4618 4.55759 78.3764 4.4863 78.2884C4.25384 78.0053 4.0296 77.7157 3.81356 77.4197C3.78115 77.3769 3.75004 77.3329 3.71893 77.2902C2.83327 76.0669 2.09902 74.741 1.53219 73.3415C1.51404 73.2988 1.49719 73.2548 1.48164 73.2121C1.30881 72.7676 1.1511 72.3158 1.00851 71.8566C0.950184 71.665 0.894446 71.4682 0.845189 71.2766C0.828338 71.2196 0.812783 71.1614 0.798524 71.1044C0.083005 68.2912 0.00134277 65.3666 0.00134277 62.4588C0.00134277 62.1196 0.00134277 61.7808 0.00134277 61.4425C0.0220825 56.7391 0.0946711 51.9554 0.789451 47.3167C0.789451 47.2843 0.798524 47.252 0.803709 47.2209C1.03625 45.6593 1.35255 44.1113 1.75125 42.5835H14.9884V35.9122H17.6275V30.5537H23.3076V35.9122H25.9467Z" fill="#6C63FF"/>
    <path opacity="0.1" d="M136.645 80.6985C133.202 87.7945 126.208 92.5393 118.962 95.6685C113.16 98.1572 107.028 99.7917 100.756 100.521C99.5549 100.663 98.3499 100.774 97.1409 100.852C94.0517 101.053 90.9525 101.05 87.8638 100.842C86.0058 100.718 84.1544 100.521 82.3094 100.25C75.8988 99.3161 69.6489 97.4984 63.7383 94.8489C62.0325 94.0817 60.3612 93.244 58.7245 92.3361C55.9908 90.8227 53.3715 89.1118 50.8875 87.217C50.3379 86.7976 49.7952 86.3691 49.2594 85.9315L49.0391 85.7515C48.6178 85.4046 48.2004 85.0498 47.7765 84.7055C47.072 84.116 46.3241 83.5802 45.5392 83.1027C45.4861 83.0716 45.433 83.0405 45.3785 83.0108C45.2333 82.9266 45.0856 82.8476 44.9352 82.7726C44.6254 82.6166 44.3079 82.4766 43.9838 82.3531V62.2719H68.0405V66.7423H78.5983V34.0423H91.0253V47.1182H97.172V39.3762H102.251V31.1061H104.584V26.29C104.786 26.3638 104.988 26.4402 105.189 26.5166V31.1061H107.46V39.3814H112.535V47.1234H120.018V76.6191H131.912V55.1683H135.745C139.228 63.2818 140.483 72.7909 136.645 80.6985Z" fill="#6C63FF"/>
    <path opacity="0.1" d="M87.8663 38.9634H82.312V44.5109H87.8663V38.9634Z" fill="#6C63FF"/>
    <path opacity="0.1" d="M87.8663 50.4624H82.312V56.0099H87.8663V50.4624Z" fill="#6C63FF"/>
    <path opacity="0.1" d="M87.8663 61.9629H82.312V67.5104H87.8663V61.9629Z" fill="#6C63FF"/>
    <path opacity="0.1" d="M87.8663 73.4629H82.312V79.0104H87.8663V73.4629Z" fill="#6C63FF"/>
    <path opacity="0.1" d="M87.8663 84.9619H82.312V90.5095H87.8663V84.9619Z" fill="#6C63FF"/>
    <path opacity="0.1" d="M87.8663 96.46V100.841C86.0084 100.718 84.157 100.52 82.312 100.249V96.46H87.8663Z" fill="#6C63FF"/>
    <path opacity="0.1" d="M65.2575 69.4419H45.8153V71.9548H65.2575V69.4419Z" fill="#6C63FF"/>
    <path opacity="0.1" d="M65.2575 77.0737H45.8153V79.5866H65.2575V77.0737Z" fill="#6C63FF"/>
    <path opacity="0.1" d="M65.2574 84.7056V87.2172H50.89C50.3404 86.7977 49.7977 86.3692 49.2619 85.9316L49.0416 85.7516C48.6203 85.4047 48.2029 85.0499 47.7791 84.7056H65.2574Z" fill="#6C63FF"/>
    <path opacity="0.1" d="M65.2575 92.3364V94.8493H63.7409C62.035 94.082 60.3638 93.2444 58.7271 92.3364H65.2575Z" fill="#6C63FF"/>
    <path opacity="0.1" d="M100.759 53.9849H97.1434V57.5956H100.759V53.9849Z" fill="#6C63FF"/>
    <path opacity="0.1" d="M22.4663 37.1572H18.8511V40.768H22.4663V37.1572Z" fill="#6C63FF"/>
    <path opacity="0.1" d="M22.4663 45.5469H18.8511V49.1576H22.4663V45.5469Z" fill="#6C63FF"/>
    <path opacity="0.1" d="M22.4663 53.9346H18.8511V57.5453H22.4663V53.9346Z" fill="#6C63FF"/>
    <path opacity="0.1" d="M22.4663 62.3237H18.8511V65.9345H22.4663V62.3237Z" fill="#6C63FF"/>
    <path opacity="0.1" d="M22.4663 70.7134H18.8511V74.3241H22.4663V70.7134Z" fill="#6C63FF"/>
    <path opacity="0.1" d="M22.4663 79.1011H18.8511V82.7118H22.4663V79.1011Z" fill="#6C63FF"/>
    <path opacity="0.1" d="M114.562 53.9849H110.947V57.5956H114.562V53.9849Z" fill="#6C63FF"/>
    <path opacity="0.1" d="M100.759 62.8921H97.1434V66.5028H100.759V62.8921Z" fill="#6C63FF"/>
    <path opacity="0.1" d="M114.562 62.8921H110.947V66.5028H114.562V62.8921Z" fill="#6C63FF"/>
    <path opacity="0.1" d="M100.759 71.8008H97.1434V75.4115H100.759V71.8008Z" fill="#6C63FF"/>
    <path opacity="0.1" d="M114.562 71.8008H110.947V75.4115H114.562V71.8008Z" fill="#6C63FF"/>
    <path opacity="0.1" d="M100.759 80.709H97.1434V84.3197H100.759V80.709Z" fill="#6C63FF"/>
    <path opacity="0.1" d="M114.562 80.709H110.947V84.3197H114.562V80.709Z" fill="#6C63FF"/>
    <path opacity="0.1" d="M100.759 89.6162H97.1434V93.227H100.759V89.6162Z" fill="#6C63FF"/>
    <path opacity="0.1" d="M114.562 89.6162H110.947V93.227H114.562V89.6162Z" fill="#6C63FF"/>
    <path opacity="0.1" d="M97.1434 100.852V98.5234H100.759V100.521L97.1434 100.852Z" fill="#6C63FF"/>
    <path opacity="0.1" d="M0.790771 47.2217V49.2931H14.6177V47.2217H0.790771ZM2.02219 49.1636H1.00724V47.3511H2.02219V49.1636ZM3.25361 49.1636H2.23866V47.3511H3.25361V49.1636ZM4.48503 49.1636H3.47008V47.3511H4.48503V49.1636ZM5.71645 49.1636H4.7015V47.3511H5.71645V49.1636ZM6.94787 49.1636H5.93292V47.3511H6.94787V49.1636ZM8.17929 49.1636H7.16434V47.3511H8.17929V49.1636ZM9.4107 49.1636H8.39576V47.3511H9.4107V49.1636ZM10.6421 49.1636H9.62718V47.3511H10.6421V49.1636ZM11.8735 49.1636H10.8586V47.3511H11.8735V49.1636ZM13.105 49.1636H12.09V47.3511H13.105V49.1636ZM14.4012 49.1636H13.3214V47.3511H14.4012V49.1636Z" fill="#6C63FF"/>
    <path opacity="0.1" d="M0.790771 53.2368V55.3018H14.6177V53.2368H0.790771ZM2.02219 55.1723H1.00724V53.3663H2.02219V55.1723ZM3.25361 55.1723H2.23866V53.3663H3.25361V55.1723ZM4.48503 55.1723H3.47008V53.3663H4.48503V55.1723ZM5.71645 55.1723H4.7015V53.3663H5.71645V55.1723ZM6.94787 55.1723H5.93292V53.3663H6.94787V55.1723ZM8.17929 55.1723H7.16434V53.3663H8.17929V55.1723ZM9.4107 55.1723H8.39576V53.3663H9.4107V55.1723ZM10.6421 55.1723H9.62718V53.3663H10.6421V55.1723ZM11.8735 55.1723H10.8586V53.3663H11.8735V55.1723ZM13.105 55.1723H12.09V53.3663H13.105V55.1723ZM14.4012 55.1723H13.3214V53.3663H14.4012V55.1723Z" fill="#6C63FF"/>
    <path opacity="0.1" d="M0.790771 59.2505V61.3155H14.6177V59.2505H0.790771ZM2.02219 61.186H1.00724V59.38H2.02219V61.186ZM3.25361 61.186H2.23866V59.38H3.25361V61.186ZM4.48503 61.186H3.47008V59.38H4.48503V61.186ZM5.71645 61.186H4.7015V59.38H5.71645V61.186ZM6.94787 61.186H5.93292V59.38H6.94787V61.186ZM8.17929 61.186H7.16434V59.38H8.17929V61.186ZM9.4107 61.186H8.39576V59.38H9.4107V61.186ZM10.6421 61.186H9.62718V59.38H10.6421V61.186ZM11.8735 61.186H10.8586V59.38H11.8735V61.186ZM13.105 61.186H12.09V59.38H13.105V61.186ZM14.4012 61.186H13.3214V59.38H14.4012V61.186Z" fill="#6C63FF"/>
    <path opacity="0.1" d="M0.790771 65.2588V67.3302H14.6177V65.2588H0.790771ZM2.02219 67.2007H1.00724V65.3883H2.02219V67.2007ZM3.25361 67.2007H2.23866V65.3883H3.25361V67.2007ZM4.48503 67.2007H3.47008V65.3883H4.48503V67.2007ZM5.71645 67.2007H4.7015V65.3883H5.71645V67.2007ZM6.94787 67.2007H5.93292V65.3883H6.94787V67.2007ZM8.17929 67.2007H7.16434V65.3883H8.17929V67.2007ZM9.4107 67.2007H8.39576V65.3883H9.4107V67.2007ZM10.6421 67.2007H9.62718V65.3883H10.6421V67.2007ZM11.8735 67.2007H10.8586V65.3883H11.8735V67.2007ZM13.105 67.2007H12.09V65.3883H13.105V67.2007ZM14.4012 67.2007H13.3214V65.3883H14.4012V67.2007Z" fill="#6C63FF"/>
    <path opacity="0.1" d="M0.843872 71.2773C0.893129 71.4715 0.948867 71.6657 1.0072 71.8573V71.4068H2.02215V73.2193H1.48032C1.49588 73.262 1.51273 73.306 1.53087 73.3488H14.6228V71.2773H0.843872ZM3.25357 73.2193H2.23862V71.4068H3.25357V73.2193ZM4.48498 73.2193H3.47004V71.4068H4.48498V73.2193ZM5.7164 73.2193H4.70145V71.4068H5.7164V73.2193ZM6.94782 73.2193H5.93287V71.4068H6.94782V73.2193ZM8.17924 73.2193H7.16429V71.4068H8.17924V73.2193ZM9.41066 73.2193H8.39571V71.4068H9.41066V73.2193ZM10.6421 73.2193H9.62713V71.4068H10.6421V73.2193ZM11.8735 73.2193H10.8586V71.4068H11.8735V73.2193ZM13.1049 73.2193H12.09V71.4068H13.1049V73.2193ZM14.4011 73.2193H13.3214V71.4068H14.4011V73.2193Z" fill="#6C63FF"/>
    <path opacity="0.1" d="M3.71765 77.2915C3.74876 77.3342 3.77987 77.3782 3.81228 77.421H4.48502V78.2897C4.55631 78.3764 4.6289 78.4619 4.70149 78.5486V77.4223H5.71644V79.2348H5.30553C5.34572 79.2775 5.3859 79.3215 5.42868 79.3642H14.6177V77.2928L3.71765 77.2915ZM6.94786 79.2335H5.93291V77.421H6.94786V79.2335ZM8.17928 79.2335H7.16433V77.421H8.17928V79.2335ZM9.4107 79.2335H8.39575V77.421H9.4107V79.2335ZM10.6421 79.2335H9.62717V77.421H10.6421V79.2335ZM11.8735 79.2335H10.8586V77.421H11.8735V79.2335ZM13.105 79.2335H12.09V77.421H13.105V79.2335ZM14.4012 79.2335H13.3214V77.421H14.4012V79.2335Z" fill="#6C63FF"/>
    <path opacity="0.1" d="M10.5046 83.3047C10.6213 83.3707 10.7393 83.4342 10.8585 83.4976V83.4342H11.8735V84.0064L12.0899 84.1048V83.4342H13.1049V84.5333L13.3213 84.6162V83.4342H14.4011V84.9877L14.6176 85.055V83.3047H10.5046Z" fill="#6C63FF"/>
    <path opacity="0.1" d="M53.1404 29.2902C53.1404 29.2902 50.0501 29.1037 50.4183 31.2658C50.3994 31.3757 50.4158 31.4887 50.4652 31.5887C50.5145 31.6887 50.5943 31.7705 50.6931 31.8225C50.6931 31.8225 50.6931 31.6619 51.0094 31.7163C51.1203 31.7345 51.2329 31.7397 51.3451 31.7319C51.4967 31.7219 51.641 31.6628 51.756 31.5636C51.756 31.5636 52.6245 31.2049 52.9628 29.7873C52.9628 29.7873 53.2117 29.4779 53.2026 29.3989L52.6841 29.6216C52.6841 29.6216 52.863 29.997 52.723 30.309C52.723 30.309 52.7061 29.6358 52.605 29.6514C52.5856 29.6514 52.3341 29.7808 52.3341 29.7808C52.3341 29.7808 52.6413 30.4359 52.4093 30.9111C52.4093 30.9111 52.4974 30.1058 52.2395 29.8287L51.8636 30.0449C51.8636 30.0449 52.2226 30.7207 51.9789 31.2723C51.9789 31.2723 52.0425 30.4269 51.7871 30.098L51.454 30.3569C51.454 30.3569 51.791 31.0224 51.5836 31.4807C51.5836 31.4807 51.5564 30.4955 51.3801 30.4204C51.2536 30.5269 51.1408 30.6486 51.0444 30.7829C51.0444 30.7829 51.2751 31.2658 51.1325 31.5208C51.1325 31.5208 51.0444 30.8657 50.9718 30.8619C50.9718 30.8619 50.6827 31.2969 50.6529 31.5946C50.6662 31.3184 50.752 31.0505 50.9018 30.8178C50.7348 30.8494 50.5807 30.929 50.4585 31.047C50.4585 31.047 50.5038 30.7402 50.977 30.713C50.977 30.713 51.2168 30.3841 51.2816 30.3634C51.2816 30.3634 50.8136 30.3246 50.5298 30.4502C50.5298 30.4502 50.7799 30.1602 51.3671 30.2922L51.6951 30.0242C51.6951 30.0242 51.0794 29.9401 50.8188 30.0333C50.8188 30.0333 51.1182 29.7744 51.7832 29.9634L52.141 29.7498C51.8661 29.6897 51.5847 29.6653 51.3036 29.6773C51.3036 29.6773 51.6328 29.4999 52.246 29.6928L52.5052 29.5776C52.5052 29.5776 52.1163 29.5025 52.0088 29.4908C51.9012 29.4792 51.8895 29.4481 51.8895 29.4481C52.133 29.4076 52.3829 29.4354 52.6115 29.5284C52.6115 29.5284 53.1494 29.3238 53.1404 29.2902Z" fill="#6C63FF"/>
    <path opacity="0.1" d="M45.0285 39.8115C45.0285 39.8115 43.972 42.7167 46.1523 42.9821C46.2521 43.0312 46.3649 43.0474 46.4746 43.0286C46.5842 43.0098 46.6851 42.9568 46.7628 42.8772C46.7628 42.8772 46.6112 42.8268 46.7511 42.5432C46.8002 42.4425 46.8376 42.3365 46.8626 42.2273C46.8954 42.079 46.879 41.9241 46.816 41.7859C46.816 41.7859 46.7187 40.8524 45.4536 40.1261C45.4536 40.1261 45.2281 39.7986 45.149 39.7856L45.2138 40.3488C45.2138 40.3488 45.6247 40.2841 45.8853 40.5068C45.8853 40.5068 45.2372 40.332 45.2203 40.433C45.2203 40.4524 45.2683 40.7294 45.2683 40.7294C45.2683 40.7294 45.9838 40.6207 46.3739 40.978C46.3739 40.978 45.6247 40.6647 45.2864 40.8343L45.3875 41.246C45.3875 41.246 46.138 41.0958 46.5982 41.4842C46.5982 41.4842 45.8049 41.1852 45.416 41.3353L45.5703 41.7237C45.5703 41.7237 46.3052 41.5943 46.6863 41.9166C46.6863 41.9166 45.7323 41.6577 45.6118 41.8105C45.6781 41.9612 45.7626 42.1034 45.8632 42.2338C45.8632 42.2338 46.3934 42.151 46.5969 42.3633C46.5969 42.3633 45.9423 42.261 45.919 42.3283C45.919 42.3283 46.2547 42.7297 46.5321 42.8462C46.2716 42.7541 46.0397 42.5957 45.8593 42.3866C45.8422 42.5559 45.8751 42.7264 45.954 42.8772C45.954 42.8772 45.6714 42.7478 45.779 42.2882C45.779 42.2882 45.5301 41.9658 45.5301 41.8998C45.5301 41.8998 45.359 42.3361 45.4005 42.6442C45.4005 42.6442 45.1931 42.3218 45.486 41.7975L45.3227 41.4091C45.3227 41.4091 45.0635 41.9749 45.0816 42.2519C45.0816 42.2519 44.9209 41.8907 45.289 41.3068L45.1866 40.9042C45.0509 41.1488 44.9477 41.4099 44.8794 41.681C44.8794 41.681 44.8016 41.3146 45.1607 40.7825L45.1231 40.5055C45.1231 40.5055 44.9416 40.8524 44.8988 40.9573C44.8561 41.0622 44.8237 41.0583 44.8237 41.0583C44.8535 40.8134 44.9509 40.5817 45.1049 40.3889C45.1049 40.3889 45.0635 39.8115 45.0285 39.8115Z" fill="#6C63FF"/>
    <path opacity="0.1" d="M65.5128 37.3621C65.5128 37.3621 64.4577 40.2725 66.6367 40.5314C66.7368 40.5804 66.85 40.5965 66.9598 40.5775C67.0697 40.5584 67.1708 40.5051 67.2485 40.4253C67.2485 40.4253 67.0955 40.3748 67.2368 40.0925C67.2863 39.9917 67.3233 39.8852 67.347 39.7754C67.3802 39.6272 67.3643 39.4722 67.3016 39.3339C67.3016 39.3339 67.2044 38.4004 65.9393 37.6742C65.9393 37.6742 65.7125 37.3479 65.6334 37.335L65.6995 37.8968C65.6995 37.8968 66.1104 37.8334 66.371 38.0561C66.371 38.0561 65.7228 37.8813 65.7047 37.981C65.7047 38.0017 65.7527 38.2775 65.7527 38.2775C65.7527 38.2775 66.4682 38.17 66.8596 38.526C66.8596 38.526 66.1104 38.214 65.7708 38.3823L65.8732 38.7953C65.8732 38.7953 66.6237 38.6438 67.0839 39.0335C67.0839 39.0335 66.2893 38.7332 65.9004 38.8833L66.0547 39.2717C66.0547 39.2717 66.7896 39.1423 67.1707 39.4646C67.1707 39.4646 66.218 39.2057 66.0962 39.3598C66.1646 39.5111 66.2517 39.6533 66.3554 39.7831C66.3554 39.7831 66.8843 39.699 67.0891 39.9126C67.0891 39.9126 66.4345 39.8103 66.4111 39.8789C66.4111 39.8789 66.7456 40.279 67.023 40.3968C66.7626 40.3051 66.5311 40.1466 66.3515 39.9372C66.3343 40.1063 66.3667 40.2768 66.4448 40.4279C66.4448 40.4279 66.1636 40.2984 66.2712 39.8401C66.2712 39.8401 66.0223 39.5164 66.021 39.4517C66.021 39.4517 65.8512 39.8893 65.8913 40.1961C65.8913 40.1961 65.684 39.875 65.9769 39.3494L65.8136 38.961C65.8136 38.961 65.5543 39.5268 65.5725 39.8025C65.5725 39.8025 65.4117 39.4426 65.7799 38.8588L65.6762 38.4548C65.5405 38.6994 65.4373 38.9605 65.369 39.2316C65.369 39.2316 65.2925 38.8652 65.6515 38.3331L65.614 38.0561C65.614 38.0561 65.4325 38.403 65.3884 38.5079C65.3443 38.6128 65.3132 38.6089 65.3132 38.6089C65.3439 38.364 65.4417 38.1324 65.5958 37.9396C65.5958 37.9396 65.5491 37.3634 65.5128 37.3621Z" fill="#6C63FF"/>
    <path opacity="0.1" d="M36.2309 61.1159C36.2309 61.1159 35.1744 64.0224 37.3547 64.2878C37.4546 64.3369 37.5676 64.353 37.6773 64.334C37.787 64.3149 37.8878 64.2615 37.9652 64.1816C37.9652 64.1816 37.8136 64.1311 37.9536 63.8489C38.0034 63.748 38.0408 63.6415 38.065 63.5317C38.0985 63.3834 38.0821 63.2283 38.0184 63.0902C38.0184 63.0902 37.9211 62.1568 36.656 61.4318C36.656 61.4318 36.4305 61.1043 36.3514 61.0913L36.4162 61.6532C36.4162 61.6532 36.8284 61.5897 37.0877 61.8124C37.0877 61.8124 36.4395 61.6376 36.4227 61.7373C36.4227 61.758 36.4707 62.0338 36.4707 62.0338C36.4707 62.0338 37.1862 61.9264 37.5763 62.2824C37.5763 62.2824 36.8271 61.9704 36.4888 62.1387L36.5899 62.5517C36.5899 62.5517 37.3404 62.4002 37.8006 62.7899C37.8006 62.7899 37.0073 62.4895 36.6184 62.6397L36.7727 63.0281C36.7727 63.0281 37.5076 62.8986 37.8887 63.221C37.8887 63.221 36.936 62.9621 36.8142 63.1161C36.8805 63.2669 36.965 63.409 37.0656 63.5395C37.0656 63.5395 37.5958 63.4553 37.8006 63.6689C37.8006 63.6689 37.1447 63.5667 37.1214 63.6353C37.1214 63.6353 37.4571 64.0353 37.7345 64.1531C37.4739 64.0618 37.242 63.9038 37.0617 63.6948C37.0446 63.8637 37.0775 64.0339 37.1564 64.1842C37.1564 64.1842 36.8738 64.0547 36.9814 63.5964C36.9814 63.5964 36.7338 63.2728 36.7325 63.208C36.7325 63.208 36.5614 63.6456 36.6029 63.9525C36.6029 63.9525 36.3955 63.6314 36.6884 63.1058L36.5251 62.7174C36.5251 62.7174 36.2659 63.2831 36.2853 63.5589C36.2853 63.5589 36.1246 63.199 36.4927 62.6151L36.389 62.2125C36.2531 62.4569 36.1498 62.718 36.0818 62.9892C36.0818 62.9892 36.004 62.6216 36.3631 62.0908L36.3255 61.8124C36.3255 61.8124 36.144 62.1594 36.1012 62.2643C36.0585 62.3691 36.0261 62.3652 36.0261 62.3652C36.056 62.1202 36.1539 61.8884 36.3086 61.6959C36.3086 61.6959 36.2659 61.1159 36.2309 61.1159Z" fill="#6C63FF"/>
    <path opacity="0.1" d="M32.0388 33.7227C32.0388 33.7227 30.9837 36.6278 33.1627 36.8932C33.2628 36.9422 33.3757 36.9584 33.4856 36.9396C33.5954 36.9208 33.6965 36.8679 33.7745 36.7884C33.7745 36.7884 33.6215 36.7379 33.7628 36.4544C33.8117 36.3532 33.8487 36.2468 33.873 36.1372C33.9062 35.9894 33.8903 35.8349 33.8276 35.697C33.8276 35.697 33.7304 34.7636 32.464 34.0373C32.464 34.0373 32.2385 33.7097 32.1594 33.6968L32.2255 34.2599C32.2255 34.2599 32.6364 34.1952 32.8957 34.4179C32.8957 34.4179 32.2475 34.2431 32.2307 34.3441C32.2307 34.3635 32.2787 34.6406 32.2787 34.6406C32.2787 34.6406 32.9942 34.5318 33.3856 34.8891C33.3856 34.8891 32.6364 34.5758 32.2968 34.7454L32.3979 35.1571C32.3979 35.1571 33.1484 35.0057 33.6099 35.3953C33.6099 35.3953 32.8153 35.095 32.4264 35.2465L32.5807 35.6349C32.5807 35.6349 33.3156 35.5054 33.6967 35.829C33.6967 35.829 32.744 35.5701 32.6222 35.7229C32.6885 35.8736 32.773 36.0158 32.8736 36.1462C32.8736 36.1462 33.4038 36.0634 33.6086 36.2757C33.6086 36.2757 32.954 36.1734 32.9307 36.2407C32.9307 36.2407 33.2651 36.6421 33.5425 36.7586C33.2821 36.6662 33.0503 36.5078 32.8697 36.299C32.8526 36.4683 32.8855 36.6389 32.9644 36.7897C32.9644 36.7897 32.6818 36.6602 32.7907 36.2006C32.7907 36.2006 32.5418 35.8782 32.5405 35.8122C32.5405 35.8122 32.3707 36.2485 32.4109 36.5566C32.4109 36.5566 32.2022 36.2343 32.4964 35.7099L32.3318 35.3216C32.3318 35.3216 32.0725 35.8873 32.092 36.1644C32.092 36.1644 31.9313 35.8032 32.2994 35.2193L32.1957 34.8166C32.06 35.0612 31.9568 35.3223 31.8885 35.5934C31.8885 35.5934 31.812 35.227 32.1698 34.6949L32.1335 34.4179C32.1335 34.4179 31.9507 34.7649 31.9079 34.8684C31.8652 34.972 31.8327 34.9707 31.8327 34.9707C31.8627 34.7257 31.9606 34.4939 32.1153 34.3014C32.1153 34.3014 32.0751 33.7227 32.0388 33.7227Z" fill="#6C63FF"/>
    <path opacity="0.1" d="M39.8733 49.5431C39.8733 49.5431 40.6886 52.5208 42.6226 51.4851C42.7325 51.4676 42.8341 51.4159 42.9128 51.3373C42.9914 51.2587 43.0432 51.1573 43.0607 51.0475C43.0607 51.0475 42.9078 51.0941 42.8598 50.7821C42.8415 50.6714 42.8102 50.5632 42.7665 50.4598C42.709 50.3192 42.6064 50.2017 42.4748 50.1257C42.4748 50.1257 41.8565 49.4189 40.4009 49.5535C40.4009 49.5535 40.0275 49.4176 39.955 49.4525L40.3335 49.8733C40.3335 49.8733 40.6329 49.5846 40.9738 49.6144C40.9738 49.6144 40.3399 49.8474 40.3866 49.9367C40.397 49.9548 40.5966 50.1516 40.5966 50.1516C40.5966 50.1516 41.1151 49.6506 41.6439 49.7166C41.6439 49.7166 40.8519 49.8927 40.6731 50.2267L40.9932 50.5051C40.9932 50.5051 41.5195 49.9497 42.121 50.0015C42.121 50.0015 41.2978 50.2138 41.0671 50.5607L41.4197 50.7925C41.4197 50.7925 41.9382 50.2604 42.4437 50.3083C42.4437 50.3083 41.5182 50.6488 41.5039 50.8404C41.6455 50.9254 41.797 50.9928 41.955 51.041C41.955 51.041 42.3439 50.6682 42.6278 50.7213C42.6278 50.7213 42.0328 51.0152 42.0536 51.0838C42.0536 51.0838 42.5591 51.2132 42.8507 51.1511C42.5852 51.2263 42.3045 51.2308 42.0367 51.164C42.1201 51.3122 42.2454 51.4325 42.3971 51.5097C42.3971 51.5097 42.0911 51.5654 41.9149 51.1291C41.9149 51.1291 41.526 51.0087 41.4845 50.9543C41.4845 50.9543 41.5986 51.41 41.8086 51.6379C41.8086 51.6379 41.4534 51.4942 41.3899 50.896L41.0308 50.6721C41.0308 50.6721 41.1488 51.2818 41.3199 51.4981C41.3199 51.4981 40.9803 51.2961 40.944 50.6073L40.6277 50.3381C40.6585 50.6174 40.7256 50.8916 40.8273 51.1537C40.8273 51.1537 40.5538 50.8948 40.5396 50.2578L40.349 50.0519C40.349 50.0519 40.4009 50.4403 40.4255 50.5504C40.4501 50.6604 40.4255 50.6798 40.4255 50.6798C40.3087 50.4624 40.2549 50.2167 40.2699 49.9704C40.2699 49.9704 39.9031 49.5237 39.8733 49.5431Z" fill="#6C63FF"/>
    <path opacity="0.1" d="M61.9923 52.2026C61.9923 52.2026 62.8076 55.1803 64.7403 54.1446C64.8505 54.1276 64.9525 54.076 65.0315 53.9974C65.1104 53.9187 65.1624 53.8171 65.1797 53.707C65.1797 53.707 65.0255 53.7536 64.9775 53.4481C64.9603 53.3373 64.9294 53.229 64.8855 53.1257C64.8271 52.9853 64.7242 52.868 64.5925 52.7917C64.5925 52.7917 63.9742 52.0848 62.5186 52.2208C62.5186 52.2208 62.1453 52.0835 62.074 52.1185L62.4512 52.5393C62.4512 52.5393 62.7506 52.2505 63.0915 52.2803C63.0915 52.2803 62.4577 52.5134 62.5056 52.6027C62.5147 52.6208 62.7156 52.8176 62.7156 52.8176C62.7156 52.8176 63.2341 52.3166 63.763 52.3826C63.763 52.3826 62.9697 52.5587 62.7908 52.8927L63.1122 53.171C63.1122 53.171 63.6307 52.6156 64.2387 52.6674C64.2387 52.6674 63.4169 52.8797 63.1861 53.2267L63.5387 53.4585C63.5387 53.4585 64.0572 52.9263 64.5614 52.9743C64.5614 52.9743 63.6359 53.3147 63.623 53.5064C63.7641 53.5915 63.9151 53.6588 64.0728 53.707C64.0728 53.707 64.4616 53.3342 64.7455 53.3872C64.7455 53.3872 64.1518 53.6811 64.1713 53.7497C64.1713 53.7497 64.6768 53.8792 64.9697 53.8171C64.7037 53.8922 64.4227 53.8967 64.1544 53.83C64.2382 53.9779 64.3635 54.098 64.5148 54.1757C64.5148 54.1757 64.2089 54.2314 64.0326 53.7951C64.0326 53.7951 63.6437 53.6747 63.6035 53.6203C63.6035 53.6203 63.7163 54.076 63.9263 54.3039C63.9263 54.3039 63.5711 54.1601 63.5076 53.562L63.1485 53.3355C63.1485 53.3355 63.2665 53.9452 63.4389 54.1614C63.4389 54.1614 63.0993 53.9595 63.063 53.2707L62.7454 53.0014C62.7762 53.281 62.8437 53.5552 62.9463 53.8171C62.9463 53.8171 62.6715 53.5581 62.6573 52.9212L62.4667 52.7153C62.4667 52.7153 62.5186 53.1037 62.5432 53.2138C62.5678 53.3238 62.5432 53.3432 62.5432 53.3432C62.4264 53.1257 62.3726 52.8801 62.3877 52.6338C62.3877 52.6338 62.0221 52.1832 61.9923 52.2026Z" fill="#6C63FF"/>
    <path d="M53.6938 82.1059C53.6938 82.1059 60.4186 79.8442 59.0265 71.8304L50.4843 69.6152L48.5011 76.1907L53.6938 82.1059Z" fill="#CED7E7"/>
    <path opacity="0.1" d="M48.5011 76.1909L53.6925 82.1061C53.6925 82.1061 60.4173 79.8444 59.0252 71.8306L48.5011 76.1909Z" fill="black"/>
    <path d="M20.2432 16.987C20.2432 16.987 21.1506 18.4616 22.3911 17.725C23.6316 16.9883 22.4417 14.9532 22.4417 14.9532C22.4417 14.9532 20.0657 14.6282 20.2432 16.987Z" fill="#FED253"/>
    <path opacity="0.1" d="M22.391 17.7247C22.2447 17.8193 22.0806 17.883 21.9087 17.9119C21.7369 17.9409 21.5609 17.9344 21.3916 17.893C20.9366 17.7778 20.5867 17.4282 20.3987 17.1991C20.3426 17.132 20.2907 17.0615 20.2432 16.9881C20.1796 16.1465 20.4415 15.6455 20.8044 15.3503C21.3035 14.9451 21.9944 14.9283 22.2925 14.9412C22.3845 14.9412 22.4377 14.9542 22.4377 14.9542L22.4623 14.9956C22.4973 15.0616 22.5738 15.2079 22.6554 15.4034C22.9328 16.0443 23.2634 17.2056 22.391 17.7247Z" fill="black"/>
    <path d="M54.3548 71.4536L59.0212 71.8304L67.706 71.9016L60.8632 80.3167C60.8632 80.3167 58.692 80.4345 58.2448 80.7401C57.7976 81.0456 51.5187 80.8825 51.5187 80.8825L50.505 76.5687L54.3548 71.4536Z" fill="#FFA2A2"/>
    <path opacity="0.05" d="M54.3548 71.4536L59.0212 71.8304L67.706 71.9016L60.8632 80.3167C60.8632 80.3167 58.692 80.4345 58.2448 80.7401C57.7976 81.0456 51.5187 80.8825 51.5187 80.8825L50.505 76.5687L54.3548 71.4536Z" fill="black"/>
    <path d="M49.6352 48.8285L50.7202 50.6669L50.9561 53.8725C50.9561 53.8725 51.7118 56.6054 52.2782 57.4068C52.8447 58.2082 53.0806 60.3301 53.0806 60.3301C53.0806 60.3301 53.3165 62.3096 53.5991 62.733C53.8817 63.1563 54.2602 66.2285 54.2602 66.2285C54.2602 66.2285 56.7619 71.2245 59.0264 71.8369C59.0264 71.8369 47.7946 75.5137 53.6937 82.1124C53.6937 82.1124 49.4939 83.1481 48.5023 81.9713C47.5107 80.7945 44.9156 63.3531 44.9156 63.3531L45.718 48.646L49.6352 48.8285Z" fill="#CED7E7"/>
    <path opacity="0.05" d="M49.6352 48.8285L50.7202 50.6669L50.9561 53.8725C50.9561 53.8725 51.7118 56.6054 52.2782 57.4068C52.8447 58.2082 53.0806 60.3301 53.0806 60.3301C53.0806 60.3301 53.3165 62.3096 53.5991 62.733C53.8817 63.1563 54.2602 66.2285 54.2602 66.2285C54.2602 66.2285 56.7619 71.2245 59.0264 71.8369C59.0264 71.8369 47.7946 75.5137 53.6937 82.1124C53.6937 82.1124 49.4939 83.1481 48.5023 81.9713C47.5107 80.7945 44.9156 63.3531 44.9156 63.3531L45.718 48.646L49.6352 48.8285Z" fill="black"/>
    <path d="M36.008 30.912C35.6928 32.545 35.7863 34.2305 36.2802 35.8187L34.5329 40.8147C34.5329 40.8147 21.2245 33.4145 22.3574 31.6228C22.999 30.6065 23.0807 27.9175 23.0288 25.7814C22.9912 24.1579 22.8759 22.8555 22.8759 22.8555C22.8759 22.8555 39.2084 24.4595 37.0346 28.1829C36.5427 29.0292 36.1957 29.9516 36.008 30.912Z" fill="#FFA2A2"/>
    <path opacity="0.1" d="M37.0346 28.1829C36.5426 29.0292 36.1957 29.9516 36.008 30.912C33.5842 31.6865 30.9666 31.5985 28.6004 30.6632C26.2342 29.7278 24.2654 28.0028 23.0288 25.7814C22.9912 24.1579 22.8759 22.8555 22.8759 22.8555C22.8759 22.8555 39.2045 24.4595 37.0346 28.1829Z" fill="black"/>
    <path d="M43.6415 20.1692C43.6427 21.8974 43.2355 23.6014 42.4531 25.1429C41.6707 26.6843 40.5352 28.0196 39.1388 29.0401C37.7425 30.0607 36.1247 30.7378 34.4171 31.0164C32.7094 31.295 30.96 31.1672 29.3111 30.6434C27.6622 30.1196 26.1603 29.2146 24.9275 28.0019C23.6947 26.7892 22.7658 25.3031 22.2164 23.6644C21.6669 22.0257 21.5123 20.2806 21.7652 18.571C22.0181 16.8614 22.6713 15.2355 23.6718 13.8255C23.8274 13.6071 23.9911 13.3939 24.1631 13.1859C25.1429 11.9964 26.3623 11.026 27.742 10.3377C28.4905 9.96369 29.28 9.67781 30.0946 9.48584C31.5655 9.13781 33.0924 9.09579 34.5802 9.3624C36.0681 9.62902 37.4851 10.1986 38.7431 11.0356C40.0011 11.8726 41.0733 12.9593 41.8928 14.2279C42.7123 15.4965 43.2617 16.92 43.5067 18.4098C43.5983 18.9918 43.6434 19.5801 43.6415 20.1692Z" fill="#FFA2A2"/>
    <path d="M47.9826 65.3272C47.818 66.205 48.0241 67.8091 48.3365 69.4416C48.3495 69.5128 48.3637 69.584 48.378 69.6552C48.3923 69.7264 48.413 69.8365 48.4311 69.9258C48.575 70.6275 48.7319 71.3227 48.8848 71.9545C49.0378 72.5863 49.1752 73.1274 49.2918 73.5728C49.4681 74.2395 49.5887 74.659 49.5887 74.659C49.5887 74.659 49.6042 75.0707 49.625 75.7258C49.6366 76.1038 49.6496 76.5647 49.6626 77.0735C49.6626 77.2211 49.6716 77.3713 49.6755 77.5266C49.682 77.7972 49.6885 78.0781 49.695 78.3656C49.695 78.4588 49.695 78.552 49.7014 78.6465C49.7014 78.9559 49.7131 79.2718 49.7183 79.5864C49.7248 80.0188 49.73 80.4512 49.7326 80.8707C49.7326 81.0312 49.7326 81.1892 49.7326 81.3445C49.7326 81.7459 49.7326 82.1304 49.7326 82.4838C49.7183 83.4872 49.6781 84.2445 49.5926 84.4633C49.5628 84.5384 49.5355 84.62 49.5096 84.7054C49.3972 85.1073 49.3157 85.5172 49.2659 85.9314L49.0456 85.7515C48.6243 85.4045 48.2069 85.0498 47.783 84.7054C47.0785 84.116 46.3306 83.5802 45.5457 83.1026C45.4926 83.0716 45.4394 83.0405 45.385 83.0107C45.2398 82.9266 45.092 82.8476 44.9417 82.7725C44.6319 82.6166 44.3144 82.4765 43.9903 82.353C42.4931 81.7834 40.8897 81.5763 39.2642 81.6112C38.6161 81.8585 38.1948 82.0359 38.1948 82.0359L37.3704 82.2844L37.233 82.3259C36.3399 82.5977 35.0839 82.9835 34.6315 83.1441C33.9004 83.403 27.5528 84.7222 27.5528 84.7222C26.9729 84.8803 26.3805 84.9886 25.7821 85.0459C24.6926 85.352 23.5835 85.5838 22.4625 85.7398C19.915 86.0651 17.3277 85.857 14.8652 85.1288C14.7917 85.1331 14.718 85.131 14.6449 85.1223C14.6903 85.1223 14.7343 85.1119 14.7745 85.1042L14.6164 85.0575L14.3999 84.9902C14.037 84.8763 13.677 84.7516 13.3201 84.6161L13.1037 84.5332C12.758 84.4003 12.4197 84.2575 12.0887 84.1047L11.8722 84.0063C11.5266 83.8458 11.1883 83.6762 10.8573 83.4975C10.738 83.4354 10.6201 83.368 10.5034 83.3046C10.1509 83.1078 9.80519 82.9015 9.46644 82.6858C9.40941 82.1977 9.3796 81.8714 9.3796 81.8714L8.87407 79.3573L8.84814 79.2278L8.4852 77.4153L8.45927 77.2858L7.66987 73.3424L7.64394 73.2129L7.281 71.4004L7.25508 71.2709L6.4553 67.3301L6.42938 67.2006L6.06643 65.3881L6.04051 65.2586L5.24721 61.31L5.22129 61.1805L4.85834 59.3745L4.83242 59.245L4.68854 58.533L4.47207 57.4545C4.47207 57.4545 3.78118 56.468 3.00344 55.3016L2.91659 55.1721C2.69494 54.8445 2.4668 54.5041 2.24514 54.17C2.17126 54.06 2.09997 53.9512 2.02867 53.8438C1.92065 53.6807 1.81609 53.5214 1.71498 53.3661L1.64499 53.2586L1.63073 53.2366C0.51338 51.5096 1.2613 50.7587 1.2613 50.7587C1.2613 50.7587 1.73054 50.1243 2.33588 49.2854C2.36569 49.2426 2.3968 49.1999 2.42921 49.1559C2.68845 48.7934 2.97363 48.3972 3.25361 48.0011L3.47008 47.693C3.55174 47.5777 3.63211 47.4625 3.70988 47.3486C3.74099 47.3059 3.77081 47.2618 3.79932 47.2191C4.39689 46.3569 4.88945 45.6047 4.99056 45.338C5.1487 44.9172 6.15717 43.6731 7.16175 42.5817C7.95374 41.7195 8.74185 40.9531 9.09572 40.7692C9.89809 40.3459 10.2286 38.9774 10.2286 38.9774C10.2286 38.9774 11.9747 38.3664 12.2106 37.8951C12.4465 37.4239 15.7506 35.3058 15.7506 35.3058C15.7506 35.3058 17.087 34.4462 17.6275 33.9283C17.704 33.8606 17.7708 33.7826 17.8258 33.6966C18.0138 33.36 19.2413 33.083 19.7404 32.9833C19.87 32.9574 19.9504 32.9431 19.9504 32.9431C20.1518 32.5775 20.4065 32.2437 20.7061 31.9527C20.9096 31.7728 21.1636 31.1526 21.3775 30.5519C21.6095 29.8968 21.7897 29.2664 21.7897 29.2664C22.1682 27.9937 22.9226 28.3705 22.9226 28.3705C22.9216 28.5443 22.9381 28.7178 22.9719 28.8883C23.2869 30.4419 24.9979 31.0892 25.8962 31.8155C26.8878 32.6156 28.4446 34.6909 29.6721 35.1142C30.6883 35.4651 31.8666 36.7882 32.2399 37.2297L32.2684 37.2633C32.3307 37.3358 32.3618 37.3773 32.3618 37.3773C32.3618 37.3773 33.0578 37.341 33.4817 37.3332H33.636C33.7222 37.3246 33.8041 37.2914 33.8719 37.2374C34.2932 36.9513 34.9205 36.1124 35.194 35.9195C35.5233 35.6826 35.8551 31.8647 35.8551 31.8647L35.872 31.8569C37.0476 31.3067 38.3089 36.8141 38.3089 36.8141C38.3089 36.8141 40.5267 37.4744 40.716 37.9456C40.7523 38.0388 40.9195 38.2045 41.171 38.4052C42.316 39.2792 43.5347 40.0524 44.8134 40.7161C44.8419 40.7304 44.8691 40.7446 44.8976 40.7563C44.9233 40.7701 44.9497 40.7826 44.9767 40.7938C45.0246 40.8171 45.0713 40.8378 45.1154 40.8573C45.1854 40.8883 45.2502 40.9142 45.3098 40.9349L45.3876 40.9621C45.5734 41.0239 45.7483 41.1143 45.9061 41.2301C45.9527 41.2638 45.9994 41.2987 46.0448 41.3363C46.2213 41.483 46.3836 41.646 46.5296 41.8231C46.5516 41.849 46.5723 41.8761 46.5931 41.902C46.6916 42.025 46.7797 42.1467 46.8523 42.2594C46.9715 42.4331 47.0801 42.6138 47.1777 42.8005C47.1777 42.8005 49.1117 46.1006 49.7261 46.476C50.3405 46.8514 50.7177 50.6719 50.7177 50.6719L48.6437 58.3504C48.6437 58.3504 48.5465 60.2924 48.365 62.2732C48.2639 63.384 48.1356 64.5142 47.9826 65.3272Z" fill="#CED7E7"/>
    <path d="M32.3616 37.6107C32.3616 37.6107 30.9708 38.3642 29.8845 38.4354C29.7423 38.4421 29.5998 38.4338 29.4594 38.4108C28.3213 38.2386 26.6517 37.3039 26.6517 37.3039L28.6103 35.1587L30.9928 36.3381L31.8691 37.1524L32.3616 37.6107Z" fill="#63667E"/>
    <path opacity="0.1" d="M43.5015 18.4096C43.4522 18.4793 43.3962 18.5439 43.3343 18.6025C42.6524 19.2499 41.4418 18.9819 40.5124 18.8317C39.7048 18.6998 38.9158 18.4721 38.1623 18.1533C37.5064 17.8737 36.7196 17.5319 36.1298 17.9332C35.903 18.086 35.7474 18.3307 35.5115 18.4653C35.2756 18.6 34.9749 18.609 34.6962 18.6129C33.7888 18.6129 32.8815 18.6233 31.9961 18.4187C30.6753 18.1106 29.309 17.3351 28.053 17.8465C27.0705 18.2452 26.5377 19.3133 26.272 20.3399C26.1424 20.8436 26.0464 21.3757 25.7535 21.8029C25.4605 22.2301 24.8941 22.5331 24.4119 22.3324C23.7003 22.0359 23.5953 20.8293 22.7372 20.7685C21.7948 20.7024 21.8065 21.6747 22.0813 22.3777C22.4883 23.4134 23.021 24.4491 23.0444 25.5289C22.0316 23.7171 21.553 21.656 21.664 19.584C21.7751 17.5119 22.4711 15.5136 23.6717 13.8201C23.8807 13.6909 24.0442 13.5 24.1397 13.2738C24.1493 13.2432 24.1571 13.2121 24.163 13.1806C24.2343 12.8194 24.0334 12.4401 24.0217 12.062C23.9764 11.1389 24.977 10.4955 25.8948 10.379C26.5053 10.3013 27.1301 10.3609 27.7419 10.3414C28.0501 10.3347 28.3566 10.2939 28.6557 10.2198C29.1719 10.0653 29.6552 9.81733 30.0816 9.48828C31.5525 9.14025 33.0794 9.09823 34.5672 9.36484C36.0551 9.63146 37.4721 10.201 38.7301 11.038C39.9881 11.8751 41.0602 12.9617 41.8797 14.2303C42.6992 15.499 43.2486 16.9224 43.4937 18.4122L43.5015 18.4096Z" fill="black"/>
    <path d="M43.7232 17.6472C43.6586 17.9033 43.524 18.1363 43.3344 18.3204C42.6526 18.9677 41.4419 18.6984 40.5125 18.5483C39.7048 18.4193 38.9157 18.1932 38.1624 17.875C37.5065 17.5967 36.7197 17.2549 36.1299 17.6562C35.9031 17.809 35.7475 18.0537 35.5116 18.1883C35.2757 18.323 34.975 18.332 34.6963 18.3346C33.7889 18.3411 32.8816 18.3463 31.9962 18.1417C30.6754 17.8323 29.3092 17.0581 28.0531 17.5682C27.0706 17.967 26.5378 19.0363 26.2721 20.063C26.1425 20.5666 26.0465 21.0987 25.7536 21.5246C25.4606 21.9506 24.8942 22.2561 24.412 22.0554C23.7004 21.759 23.5954 20.5524 22.7373 20.4915C21.7949 20.4255 21.8066 21.3978 22.0814 22.1007C22.5636 23.3268 23.2195 24.5463 23.0043 25.8461C22.7904 25.8461 22.4365 25.8384 22.2266 25.8332C22.3899 25.5548 22.0788 25.2234 21.769 25.1289C21.4592 25.0344 21.0975 25.0357 20.8616 24.8104C20.6257 24.5852 20.6244 24.2369 20.649 23.9249C20.7028 23.258 20.8662 22.6046 21.1325 21.9907C21.3023 21.6023 21.5214 21.1815 21.3918 20.775C21.314 20.5908 21.2203 20.4136 21.1118 20.2455C20.8422 19.7277 20.9057 19.0803 21.1364 18.5457C21.2349 18.3178 21.3062 18.1029 21.3879 17.8983C21.491 17.6076 21.6403 17.3353 21.8299 17.0918C22.1267 16.7228 22.4171 16.1674 22.0892 15.8243C22.0062 15.7376 22.1721 15.678 22.119 15.5654C22.1096 15.5462 22.103 15.5257 22.0995 15.5046C22.0843 15.3682 22.1173 15.2308 22.1928 15.1162C22.2082 15.0864 22.225 15.0574 22.2434 15.0294C22.2583 14.9998 22.2752 14.9713 22.294 14.944C22.581 14.4653 22.9625 14.05 23.4152 13.7231C23.6965 13.5199 24.0257 13.3244 24.1372 12.9955C24.2668 12.6072 24.0387 12.1942 24.0192 11.7838C23.9739 10.8607 24.9746 10.2172 25.8923 10.1007C26.81 9.98421 27.7615 10.1771 28.6559 9.9402C29.9249 9.60618 30.8167 8.48761 31.969 7.85971C32.5994 7.52305 33.2985 7.33474 34.0129 7.30916C34.7273 7.28358 35.4381 7.42141 36.091 7.71212C37.4365 8.32578 38.4515 9.56605 39.8566 10.0321C40.3543 10.1978 40.8936 10.2639 41.3421 10.5383C41.8606 10.8568 42.1755 11.4135 42.4452 11.9624C42.8561 12.7949 42.939 13.6312 43.2229 14.5129C43.4484 15.212 43.7608 16.126 43.7868 16.9312C43.8013 17.1717 43.7799 17.413 43.7232 17.6472Z" fill="#896363"/>
  <g opacity="0.1">
    <path opacity="0.1" d="M22.2576 16.0247C22.2783 15.9419 22.2804 15.8554 22.2635 15.7717C22.2467 15.688 22.2115 15.609 22.1604 15.5405C22.1941 15.6415 22.0476 15.6998 22.128 15.7839C22.192 15.8511 22.2367 15.9343 22.2576 16.0247Z" fill="black"/>
    <path opacity="0.1" d="M22.1565 15.2441C22.1412 15.2893 22.1321 15.3364 22.1293 15.384C22.1539 15.3425 22.1876 15.2998 22.1565 15.2441Z" fill="black"/>
    <path opacity="0.1" d="M43.3706 18.0047C42.6875 18.652 41.4781 18.384 40.5461 18.2325C39.739 18.1027 38.9508 17.8754 38.1987 17.5554C37.5415 17.2758 36.756 16.934 36.1649 17.3353C35.9393 17.4881 35.7838 17.7328 35.5466 17.8674C35.3094 18.0021 35.0099 18.0111 34.7312 18.0137C33.8239 18.0137 32.9165 18.0254 32.0299 17.8195C30.7103 17.5114 29.3441 16.7385 28.0881 17.2473C27.1055 17.6473 26.5728 18.7154 26.307 19.7421C26.1774 20.2457 26.0828 20.7778 25.7885 21.205C25.4943 21.6322 24.9279 21.9352 24.4469 21.7358C23.7353 21.4381 23.6303 20.2327 22.7722 20.1719C22.1021 20.124 21.9154 20.603 21.9608 21.1351C21.9997 20.7286 22.22 20.4153 22.7722 20.4541C23.6303 20.515 23.7353 21.7216 24.4469 22.0181C24.9279 22.2187 25.4956 21.9171 25.7885 21.4872C26.0815 21.0574 26.1774 20.5279 26.307 20.0256C26.5728 18.999 27.1055 17.9296 28.0881 17.5308C29.3441 17.0207 30.7103 17.7898 32.0299 18.1031C32.9113 18.3089 33.8265 18.3024 34.7312 18.296C35.0099 18.296 35.3042 18.2882 35.5466 18.151C35.789 18.0137 35.9354 17.7716 36.1649 17.6176C36.756 17.2175 37.5415 17.5593 38.1987 17.8377C38.9509 18.1574 39.7391 18.3852 40.5461 18.516C41.4781 18.6662 42.6875 18.9368 43.3706 18.2869C43.7413 17.9335 43.8528 17.4221 43.8282 16.8628C43.8075 17.3069 43.6778 17.7095 43.3706 18.0047Z" fill="black"/>
    <path opacity="0.1" d="M24.0646 11.5493C24.0574 11.6138 24.0548 11.6787 24.0568 11.7435C24.0698 12.0128 24.1722 12.2821 24.2046 12.5449C24.2525 12.2225 24.1035 11.8859 24.0646 11.5493Z" fill="black"/>
    <path opacity="0.1" d="M21.4305 20.7346C21.4412 20.7733 21.4495 20.8127 21.4552 20.8524C21.4762 20.7189 21.4678 20.5824 21.4305 20.4524C21.3533 20.2675 21.2596 20.0898 21.1506 19.9216C21.0532 19.7301 20.9954 19.5209 20.9808 19.3066C20.9544 19.616 21.0131 19.9267 21.1506 20.2051C21.2598 20.3728 21.3535 20.55 21.4305 20.7346Z" fill="black"/>
    <path opacity="0.1" d="M23.0392 25.5223L22.2809 25.5107C22.2986 25.5564 22.3057 25.6056 22.3016 25.6545C22.2976 25.7034 22.2825 25.7507 22.2576 25.7929C22.4714 25.7929 22.8266 25.8007 23.0353 25.8059C23.0716 25.5843 23.0842 25.3595 23.0729 25.1353C23.07 25.2649 23.0587 25.3942 23.0392 25.5223Z" fill="black"/>
    <path opacity="0.1" d="M21.7987 24.8064C21.4889 24.7132 21.1286 24.7119 20.8979 24.4853C20.762 24.3369 20.6855 24.1439 20.6827 23.9429C20.6632 24.2406 20.6827 24.5617 20.8979 24.7689C21.1286 24.9954 21.4889 24.9967 21.7987 25.0899C21.8995 25.1192 21.9933 25.1688 22.0742 25.2356C22.1551 25.3023 22.2215 25.385 22.2693 25.4783C22.4002 25.2103 22.0995 24.8957 21.7987 24.8064Z" fill="black"/>
  </g>
  <path opacity="0.1" d="M45.381 83.0108C45.2358 82.9267 45.0881 82.8477 44.9377 82.7726C44.6279 82.6167 44.3104 82.4767 43.9863 82.3532C42.4891 81.7835 40.8857 81.5764 39.2602 81.6113C38.6121 81.8586 38.1908 82.036 38.1908 82.036L37.3664 82.2846L37.229 82.326C37.2199 82.2354 37.2096 82.1447 37.2005 82.0528C37.1914 81.9609 37.181 81.8729 37.1707 81.7822C36.8803 79.0363 36.6522 76.2153 36.6522 76.2153V73.7788V73.4952L36.6366 66.3165L36.507 63.9499L36.4461 62.9025L36.4344 62.7031L36.4111 62.294L36.3981 62.0506C36.3695 61.9735 36.3453 61.8949 36.3255 61.815C36.3165 61.7826 36.3074 61.7464 36.2996 61.7089C36.2672 61.5794 36.2322 61.4124 36.1959 61.2311C35.9587 60.0401 35.6619 58.0321 35.6437 57.6243C35.6204 57.0805 35.1486 53.8284 35.1486 53.8284C35.1006 52.0379 33.5931 48.6666 33.2133 48.031C32.8335 47.3953 32.4096 43.5761 32.5522 43.3703C32.6261 43.2602 32.6741 42.609 32.7039 42.0083C32.7039 41.9397 32.7103 41.8724 32.7129 41.8064C32.7324 41.3364 32.7415 40.9441 32.7415 40.9441L34.2243 40.6515L34.6223 40.5739L34.6534 40.5674L34.6664 40.5933C34.7091 40.6723 34.8426 40.9247 34.9995 41.2561C35.0176 41.2911 35.0345 41.3286 35.0526 41.3662C35.0604 41.3843 35.0695 41.4024 35.0786 41.4205C35.3689 42.0549 35.7046 42.89 35.6904 43.3703C35.6671 44.2196 36.6353 46.2703 36.6353 46.2703C36.7287 46.7415 38.7819 51.4307 38.7819 51.4307C38.7819 51.4307 40.4579 56.0267 40.3633 56.7814C40.2687 57.5362 41.1657 62.5322 41.1657 62.5322L42.086 67.6707C42.5332 68.6831 43.123 71.016 43.123 71.016L43.3472 72.3391L43.39 72.5916L43.9876 76.1221L44.2805 77.8517C44.2805 77.8517 44.4036 78.7709 44.5903 79.7937C44.6059 79.8856 44.624 79.9788 44.6422 80.072C44.7572 80.7453 44.9205 81.4094 45.1308 82.0593C45.2352 82.3706 45.3187 82.6885 45.381 83.0108Z" fill="black"/>
  <path d="M45.5417 83.1029C45.4886 83.0718 45.4354 83.0408 45.381 83.011C45.2358 82.9268 45.088 82.8479 44.9377 82.7728C44.6279 82.6168 44.3103 82.4768 43.9862 82.3533C42.4891 81.7837 40.8856 81.5765 39.2602 81.6115C38.6121 81.8588 38.1908 82.0361 38.1908 82.0361L37.3664 82.2847C37.356 82.1941 37.3469 82.1034 37.3366 82.0115C37.3262 81.9196 37.3184 81.8458 37.3106 81.7629C37.0203 79.0235 36.7921 76.2154 36.7921 76.2154V73.7556V73.4721L36.7766 66.3114L36.647 64.051L36.621 63.5823L36.6029 63.2651L36.5796 62.8457L36.5562 62.4197L36.5394 62.1129V62.0456C36.5394 62.0391 36.5394 62.0314 36.5303 62.0236C36.5057 61.9537 36.4759 61.8475 36.4435 61.7129L36.4279 61.6481C36.4214 61.6184 36.4136 61.586 36.4072 61.5536C36.1635 60.4493 35.8057 58.0685 35.7863 57.6218C35.7629 57.0781 35.2911 53.8259 35.2911 53.8259C35.2431 52.0354 33.7356 48.6642 33.3558 48.0285C32.976 47.3929 32.5535 43.5737 32.6948 43.3678C32.7764 43.2384 32.8244 42.4525 32.8555 41.8039C32.8555 41.7521 32.8555 41.7016 32.8555 41.6537C32.8723 41.2537 32.8788 40.9417 32.8788 40.9417L34.258 40.6698L34.608 40.6012L34.6624 40.5908L34.7921 40.5649C34.7921 40.5649 34.9619 40.8782 35.1654 41.3094L35.1913 41.3637C35.4881 42.0033 35.8394 42.8733 35.829 43.3678C35.8057 44.2171 36.774 46.2678 36.774 46.2678C36.8673 46.7391 38.9206 51.4283 38.9206 51.4283C38.9206 51.4283 40.5966 56.0242 40.502 56.779C40.4073 57.5338 41.3043 62.5298 41.3043 62.5298L42.2246 67.6682C42.6718 68.6806 43.2616 71.0136 43.2616 71.0136L43.4703 72.2461L43.5131 72.4959L43.9836 75.282L44.4179 77.8493C44.4179 77.8493 44.5475 78.7646 44.7264 79.7912C44.7432 79.8844 44.7601 79.9776 44.7782 80.0722C44.893 80.7484 45.0564 81.4156 45.2669 82.0685C45.3818 82.4067 45.4736 82.7523 45.5417 83.1029Z" fill="#63667E"/>
  <path d="M44.3725 16.6117C44.3725 16.6117 43.8773 17.2487 43.4301 17.2487C42.9829 17.2487 41.2421 17.1775 40.3347 16.8952C39.4274 16.613 34.9787 16.3994 34.9787 16.3994C34.9787 16.3994 28.679 16.4227 28.4665 16.2104C28.2539 15.998 24.5492 14.8665 24.172 14.9377C24.093 14.9533 23.8998 14.9869 23.6419 15.0296L23.3463 15.0775C22.8991 15.1488 22.3405 15.2316 21.8297 15.2925C21.1985 15.3663 20.6437 15.4038 20.4674 15.3391V14.7966C20.4674 14.7966 21.1985 13.735 21.2451 13.4308C21.2918 13.1265 21.9062 8.71569 23.511 7.13752C24.1739 5.87177 25.2468 4.86776 26.5545 4.28932C28.7257 3.34552 30.8969 2.54544 30.8969 2.54544L31.2767 2.49106L32.5016 2.30981C32.5389 2.27279 32.5792 2.23901 32.6222 2.20883C32.9618 1.9499 33.991 1.38673 35.3326 2.59722L35.5698 2.97526C35.5698 2.97526 39.6983 3.94106 41.6089 7.31101C43.5196 10.681 43.6155 13.981 43.7568 15.4892C43.7568 15.4892 43.6622 15.9139 43.8514 16.0783C43.9199 16.1388 43.9853 16.2027 44.0471 16.2699C44.064 16.2867 44.0808 16.3036 44.0964 16.3217C44.1508 16.3761 44.2014 16.433 44.2429 16.4796C44.2478 16.4833 44.2522 16.4876 44.2558 16.4926C44.266 16.5049 44.2768 16.5165 44.2882 16.5275L44.3725 16.6117Z" fill="#FED253"/>
  <path opacity="0.05" d="M44.3726 16.6115C44.3726 16.6115 43.8774 17.2484 43.4302 17.2484C42.983 17.2484 41.2422 17.1772 40.3348 16.895C39.4275 16.6127 34.9788 16.3991 34.9788 16.3991C34.9788 16.3991 28.6791 16.4224 28.4666 16.2101C28.254 15.9978 24.5494 14.8663 24.1722 14.9375C24.0931 14.953 23.8999 14.9867 23.642 15.0294L23.5746 14.6151L23.5577 14.5128C23.5577 14.5128 30.7077 12.9813 35.474 13.784C40.2402 14.5866 43.7569 15.4799 43.7569 15.4799C43.7569 15.4799 43.6623 15.9046 43.8515 16.069C43.92 16.1295 43.9854 16.1934 44.0473 16.2606C44.0641 16.2774 44.081 16.2943 44.0965 16.3124C44.1509 16.3668 44.2015 16.4237 44.243 16.4703C44.2479 16.474 44.2523 16.4783 44.2559 16.4833C44.2661 16.4955 44.2769 16.5072 44.2884 16.5182L44.3726 16.6115Z" fill="black"/>
  <path opacity="0.1" d="M43.7232 17.6474C42.8404 17.716 41.2137 17.5011 40.502 17.3963C40.2998 17.3665 40.1015 17.3302 39.9019 17.2862C39.1384 17.1205 36.7909 16.6557 35.3651 16.8706C33.6424 17.1296 28.7815 16.6583 28.7815 16.6583C28.7815 16.6583 25.7846 16.046 24.5804 15.5514C24.1384 15.3689 23.3995 15.3119 22.6646 15.4025C22.4772 15.4259 22.2911 15.4591 22.1072 15.5022C21.1039 15.7391 20.2575 16.279 20.404 17.1995C20.3479 17.1323 20.2959 17.0619 20.2484 16.9885C20.1849 16.1469 20.4467 15.6459 20.8097 15.3507L20.8952 15.3158C21.3386 15.19 21.7898 15.0935 22.2459 15.0271C22.3172 15.0154 22.3911 15.0051 22.4663 14.996C23.756 14.8225 25.6213 14.7837 27.1949 15.5747C27.1949 15.5747 28.6571 16.2596 29.6487 16.2596C30.6403 16.2596 38.7093 16.3308 40.5979 16.8719C40.9739 16.9804 41.3573 17.0613 41.7451 17.114C42.4337 17.2027 43.1333 17.1368 43.7931 16.9211C43.8066 17.1654 43.7831 17.4102 43.7232 17.6474Z" fill="black"/>
  <path opacity="0.1" d="M44.3725 16.6115C44.3725 16.6115 43.8773 17.2485 43.4301 17.2485C42.9829 17.2485 41.2421 17.1773 40.3347 16.8951C39.4274 16.6128 34.9787 16.3992 34.9787 16.3992C34.9787 16.3992 28.679 16.4225 28.4665 16.2102C28.2539 15.9979 24.5492 14.8664 24.172 14.9376C24.093 14.9531 23.8998 14.9868 23.6419 15.0295L23.3463 15.0774C22.833 15.0748 22.3221 15.1472 21.8297 15.2923C21.1985 15.3661 20.6437 15.4036 20.4674 15.3389V15.2315C20.6033 15.1527 20.745 15.0843 20.8913 15.0269C21.766 14.7823 22.6667 14.6423 23.5745 14.61C24.7061 14.5686 26.0295 14.7007 27.1923 15.2858C27.1923 15.2858 28.6544 15.9707 29.646 15.9707C30.6376 15.9707 38.7067 16.0406 40.5953 16.5831C40.9714 16.6905 41.3548 16.771 41.7424 16.8239C42.593 16.9309 43.4568 16.807 44.2429 16.4652C44.2478 16.4689 44.2522 16.4733 44.2558 16.4782C44.266 16.4904 44.2768 16.5021 44.2882 16.5131L44.3725 16.6115Z" fill="black"/>
  <path d="M20.422 17.1775C20.422 17.1775 18.8406 15.9747 20.8938 15.1734C20.8938 15.1734 24.4805 14.0664 27.1948 15.4323C27.1948 15.4323 28.657 16.1146 29.6486 16.1146C30.6402 16.1146 38.7092 16.1858 40.5978 16.7282C40.974 16.8358 41.3573 16.9163 41.745 16.969C42.7498 17.0907 43.7676 16.8975 44.6576 16.4162C44.7873 16.345 44.9039 16.3088 44.9389 16.3502C45.0569 16.4926 44.9636 17.3173 43.9253 17.4817C43.1151 17.6112 41.2745 17.3665 40.5006 17.2539C40.2997 17.2241 40.1001 17.1865 39.9018 17.1438C39.1383 16.9781 36.7908 16.5133 35.3585 16.7282C33.6371 16.9872 28.7749 16.5159 28.7749 16.5159C28.7749 16.5159 25.7793 15.9035 24.5751 15.4077C23.3709 14.9118 19.9735 15.3391 20.422 17.1775Z" fill="#FED253"/>
  <path opacity="0.1" d="M33.7538 4.5401C33.6242 4.35367 31.9585 3.02148 31.2793 2.48291L32.5042 2.30167C32.5415 2.26464 32.5818 2.23086 32.6248 2.20068C33.5153 3.13412 33.7538 4.5401 33.7538 4.5401Z" fill="black"/>
  <path opacity="0.1" d="M28.3512 11.6854L27.8081 12.4868L29.8847 12.4169L29.9313 11.521L28.3512 11.6854Z" fill="black"/>
  <path opacity="0.1" d="M41.0219 12.6523L41.2578 13.3825L42.5799 13.5948L42.0135 12.7223L41.0219 12.6523Z" fill="black"/>
  <path opacity="0.1" d="M18.3221 37.165C18.4634 37.4007 23.1117 43.5088 24.3392 43.3392C25.5668 43.1696 18.3221 37.165 18.3221 37.165Z" fill="black"/>
  <path opacity="0.1" d="M33.8965 42.7476C33.8965 42.7476 35.0294 43.8325 34.8635 44.2558C34.6976 44.6792 33.8965 42.7476 33.8965 42.7476Z" fill="black"/>
  <path opacity="0.1" d="M21.5317 50.1958C21.5317 50.1958 20.5401 54.8384 21.0599 54.986C21.5797 55.1336 21.5317 50.1958 21.5317 50.1958Z" fill="black"/>
  <path opacity="0.1" d="M34.2737 68.2246C34.4383 68.6959 35.8071 71.7603 36.1143 71.9247C36.4215 72.0891 34.2737 68.2246 34.2737 68.2246Z" fill="black"/>
  <path opacity="0.1" d="M50.1784 55.6396C50.1305 55.8041 48.9509 56.7712 49.2102 57.1246C49.4694 57.478 50.1784 55.6396 50.1784 55.6396Z" fill="black"/>
  <path opacity="0.1" d="M41.0218 64.2412C40.9985 64.3603 40.7626 66.8305 41.2111 67.3056C41.6596 67.7808 41.0218 64.2412 41.0218 64.2412Z" fill="black"/>
  <path opacity="0.1" d="M53.113 77.0735C52.7708 77.2638 52.417 77.4477 52.0566 77.6238C51.6677 77.8128 51.2789 77.9927 50.8822 78.1623C50.7241 78.2309 50.5659 78.2983 50.4091 78.363C50.1706 78.4614 49.9347 78.5559 49.7014 78.6465C48.9923 78.9236 48.3092 79.1644 47.7013 79.3676C47.4654 79.4466 47.2398 79.5191 47.0298 79.5864C45.9721 79.9217 45.2696 80.1043 45.2696 80.1043C45.1091 80.07 44.9448 80.0565 44.7809 80.0641C44.7355 80.0641 44.6888 80.0641 44.6409 80.0641C44.4214 80.08 44.2028 80.1077 43.9863 80.147C42.5384 80.4059 40.4929 81.1322 39.2602 81.6074C38.6121 81.8546 38.1908 82.032 38.1908 82.032L37.3664 82.2806L37.229 82.322C36.3359 82.5939 35.0799 82.9797 34.6275 83.1402C33.8964 83.3991 27.5488 84.7184 27.5488 84.7184C26.9689 84.8765 26.3765 84.9848 25.7781 85.042C24.3036 85.1772 22.8216 85.2109 21.3424 85.143C19.8569 85.2388 17.4537 84.9126 16.0551 84.6925L15.8322 84.6575C15.2916 84.5695 14.9481 84.5061 14.9481 84.5061L15.1296 84.2562L18.8511 79.1281L18.8731 79.0971L22.3405 74.3211L22.4701 74.1476L22.7851 73.7139C22.7851 73.7139 22.9744 73.455 23.7029 73.4382C23.7884 73.4382 23.8817 73.4382 23.9841 73.4382C24.5961 73.4873 25.1997 73.6103 25.782 73.8046L25.9505 73.8551C28.4613 74.5736 32.3422 74.3936 32.3422 74.3936C32.3422 74.3936 34.7571 74.0052 36.6548 73.7722L36.7961 73.7541C37.4162 73.6666 38.0406 73.6125 38.6666 73.5922C39.8228 73.6155 42.3245 73.0032 42.3245 73.0032C42.8624 72.888 43.0893 72.7909 43.3926 72.5747C43.4328 72.5462 43.4756 72.5151 43.5222 72.4814C43.6519 72.3843 43.8009 72.2652 43.9928 72.1176C44.3427 71.8497 44.834 71.4859 45.6066 70.9758C45.674 70.9318 45.7453 70.8877 45.8217 70.8463C45.8982 70.8049 45.9954 70.7492 46.0888 70.7026C46.8369 70.3487 47.6258 70.0878 48.4375 69.9258C49.1109 69.7812 49.7942 69.6873 50.4817 69.6449H50.5841C52.5284 69.5413 54.5143 69.874 55.6757 70.9654C55.8788 71.1572 56.0557 71.3749 56.202 71.6127C56.2729 71.7257 56.3362 71.8434 56.3912 71.9649C56.4972 72.1967 56.5759 72.44 56.6258 72.6899C56.6353 72.7365 56.6431 72.7831 56.6492 72.8297C56.6492 72.8439 56.6492 72.8569 56.6492 72.8711C56.6492 72.9087 56.6569 72.9462 56.6595 72.9838C56.7632 74.5334 55.1533 75.9342 53.113 77.0735Z" fill="black"/>
  <path d="M14.9481 84.2281C14.9481 84.2281 19.1479 85.0049 21.3424 84.8638C21.3424 84.8638 25.3776 85.0761 27.5488 84.4404C27.5488 84.4404 33.9003 83.1199 34.6275 82.861C35.3547 82.602 38.1908 81.7528 38.1908 81.7528C38.1908 81.7528 43.7128 79.4431 45.2696 79.8199C45.2696 79.8199 57.493 76.6622 56.6193 72.3964C55.7457 68.1306 48.0305 69.0977 45.6014 70.6991C43.1722 72.3006 43.5274 72.4676 42.3219 72.7265C42.3219 72.7265 39.8202 73.3389 38.664 73.3156C37.5077 73.2923 32.3396 74.117 32.3396 74.117C32.3396 74.117 28.2811 74.306 25.7807 73.5279C23.2803 72.7498 22.7838 73.4334 22.7838 73.4334L14.9481 84.2281Z" fill="#FFA2A2"/>
  <path opacity="0.1" d="M24.0554 73.1562C24.056 73.1614 24.056 73.1666 24.0554 73.1718C24.0464 73.268 24.0214 73.3621 23.9815 73.4501C23.4838 74.6697 20.658 77.9594 20.658 77.9594C20.5292 78.3501 20.3737 78.7317 20.1926 79.1012C19.8033 79.8912 19.3548 80.6507 18.851 81.3733C18.1043 82.4544 17.289 83.4866 16.4102 84.4636H16.4038C16.2919 84.5465 16.1755 84.623 16.0551 84.6928C15.7505 84.874 15.2929 85.098 14.8612 85.1252C14.7877 85.1296 14.714 85.1274 14.6409 85.1187C14.6863 85.1187 14.7303 85.1084 14.7705 85.1006L14.6124 85.054L14.3959 84.9867C14.033 84.8727 13.673 84.748 13.3161 84.6125L13.0997 84.5297C12.754 84.3967 12.4157 84.2539 12.0847 84.1011L11.8682 84.0027C11.5226 83.8422 11.1843 83.6726 10.8533 83.4939C10.734 83.4318 10.6161 83.3645 10.4994 83.301C10.1469 83.1043 9.80119 82.898 9.46244 82.6822C9.10295 82.4535 8.75124 82.2148 8.40731 81.9663C8.14806 81.486 7.93419 81.06 7.81752 80.8309C7.60494 80.4049 7.58679 79.7952 7.61272 79.3537C7.61272 79.3084 7.61272 79.2657 7.6205 79.2242C7.64253 78.9472 7.67624 78.7569 7.67624 78.7569C7.48416 78.5004 7.31088 78.2304 7.15774 77.949C7.06976 77.8093 7.01973 77.6491 7.01256 77.4842C7.01843 77.4181 7.01228 77.3514 6.99442 77.2874C6.89461 76.8783 6.46556 76.1753 6.06891 75.7339C5.77337 75.4089 5.75522 74.1945 5.78374 73.3336C5.80059 72.8158 5.833 72.4351 5.833 72.4351C5.77491 72.3977 5.73144 72.3415 5.70985 72.2759C5.60562 71.9925 5.53514 71.6979 5.49986 71.3981C5.49986 71.3554 5.4882 71.3127 5.48172 71.2687C5.39876 70.6744 5.36117 70.0776 5.36117 70.0776C4.40196 69.3798 3.94568 68.291 3.7331 67.32L3.70588 67.1905C3.58913 66.5938 3.53957 65.9858 3.55811 65.3781C3.55811 65.3198 3.55811 65.2758 3.55811 65.2486C3.55811 65.2214 3.55811 65.2162 3.55811 65.2162C3.55811 65.2162 3.68514 62.4107 4.04031 61.3155C4.05457 61.2689 4.07012 61.2261 4.08568 61.186C4.11184 61.1172 4.14576 61.0516 4.18678 60.9905C4.3164 60.8183 4.40844 60.4934 4.48491 60.1089C4.53806 59.8422 4.58213 59.5457 4.61454 59.2505C4.64435 59.0045 4.66768 58.7599 4.68583 58.5333C4.73638 57.9274 4.75194 57.4549 4.75194 57.4549L4.51214 56.2741C4.44603 55.9518 4.39548 55.6268 4.36048 55.3019C4.36048 55.2592 4.35011 55.2164 4.34492 55.1724C4.2843 54.5723 4.27346 53.9683 4.31252 53.3664C4.31252 53.3224 4.31252 53.2796 4.32029 53.2369C4.42151 51.8661 4.78033 50.5265 5.37802 49.2883L5.44283 49.1588C5.52924 48.9862 5.61998 48.8166 5.71504 48.65C5.78374 48.527 5.85633 48.4053 5.93151 48.2849C6.13081 47.9625 6.34716 47.6509 6.57962 47.3515C6.61333 47.3075 6.64832 47.2648 6.68332 47.222C7.0878 46.7212 7.5373 46.2584 8.02622 45.8394C9.33541 44.7156 10.537 44.2275 11.6284 44.19C16.4012 44.0217 19.0779 52.4524 19.5108 53.9296C19.5523 54.072 19.573 54.1496 19.573 54.1496C19.573 54.1496 21.507 56.0825 20.9406 56.9305C20.8307 57.1172 20.7639 57.3259 20.7448 57.5416C20.5893 58.6822 21.0352 60.5607 21.0352 60.5607C21.0352 60.5607 21.1933 61.0786 21.6548 62.3188L21.7909 62.6813C22.08 63.4581 22.1474 64.7618 21.9814 65.9296C21.822 67.0481 21.4474 68.0372 20.8472 68.291C19.6197 68.8088 19.9502 69.3267 20.2328 69.7526C20.4007 70.058 20.5409 70.3777 20.6515 70.7081C20.8291 71.1858 20.9937 71.6881 21.0559 71.8836C21.0741 71.938 21.0831 71.9678 21.0831 71.9678C21.2551 71.9013 21.4337 71.8535 21.6159 71.8254C21.8479 71.793 22.0774 71.8163 22.1214 72.0144C22.1448 72.1205 22.2783 72.2461 22.4662 72.3717C23.0236 72.7549 24.0554 73.1562 24.0554 73.1562Z" fill="black"/>
  <path d="M23.7728 73.1564C23.7649 73.2549 23.7399 73.3513 23.6989 73.4412C23.2037 74.6621 20.3754 77.9595 20.3754 77.9595C20.246 78.3501 20.0905 78.7316 19.91 79.1014C19.5972 79.7393 19.2435 80.3564 18.851 80.9488C18.0384 82.1731 17.1382 83.337 16.1574 84.4314L16.1276 84.4638C16.1276 84.4638 16.0135 84.5505 15.8321 84.6619C15.5078 84.8686 15.1505 85.0183 14.7756 85.1046L14.6175 85.058L14.401 84.9907C14.0381 84.8768 13.6782 84.752 13.3213 84.6165L13.1048 84.5337C12.7591 84.4008 12.4208 84.2579 12.0899 84.1052L11.8734 84.0068C11.5277 83.8462 11.1894 83.6766 10.8584 83.498C10.7392 83.4358 10.6212 83.3685 10.5046 83.3051C10.152 83.1083 9.80633 82.902 9.46758 82.6862C9.10809 82.4575 8.75638 82.2189 8.41245 81.9703C8.25344 81.8564 8.09617 81.7394 7.94062 81.6195C7.76563 81.288 7.62564 81.0084 7.53879 80.8349C7.32621 80.409 7.30806 79.7992 7.33399 79.3577C7.33399 79.3124 7.33399 79.2697 7.34176 79.2283C7.3638 78.9512 7.3975 78.7609 7.3975 78.7609C7.3975 78.7609 7.29251 78.6198 7.16548 78.4282C7.09418 78.322 7.01771 78.199 6.94901 78.0773C6.81938 77.8495 6.71828 77.619 6.73772 77.4883C6.74035 77.4659 6.74035 77.4433 6.73772 77.4209C6.73577 77.3772 6.72926 77.3338 6.71828 77.2915C6.61847 76.8824 6.18812 76.1794 5.79147 75.7379C5.49593 75.413 5.47778 74.1986 5.505 73.3377C5.505 73.2936 5.505 73.2509 5.505 73.2082C5.52315 72.7615 5.55037 72.4392 5.55037 72.4392C5.4039 72.3757 5.29113 71.9058 5.21854 71.4035L5.19909 71.274C5.11614 70.6798 5.07854 70.0829 5.07854 70.0829C4.11933 69.3851 3.66306 68.2963 3.45178 67.3253C3.30458 66.6453 3.24792 65.9488 3.28327 65.2539C3.28327 65.2332 3.28327 65.2216 3.28327 65.2216C3.28327 65.2216 3.39474 62.4018 3.74991 61.3053C3.76417 61.2587 3.77972 61.2159 3.79528 61.1758C3.82638 61.1086 3.86509 61.0452 3.91064 60.9868C4.10767 60.7123 4.23859 60.0521 4.32414 59.3763L4.33969 59.2468C4.44728 58.3405 4.47709 57.4511 4.47709 57.4511L4.236 56.2704C4.17032 55.9468 4.11977 55.6227 4.08434 55.2981C4.07785 55.2554 4.07397 55.2114 4.06878 55.1687C4.00817 54.5686 3.99733 53.9645 4.03638 53.3627C4.03638 53.3186 4.03638 53.2759 4.04545 53.2332C4.14605 51.8622 4.50491 50.5225 5.10317 49.2845C5.12391 49.2405 5.14465 49.1978 5.16798 49.1551C5.33465 48.8188 5.51986 48.4921 5.72277 48.1763C5.79277 48.0663 5.86406 47.9575 5.93924 47.8501C6.0572 47.6792 6.18034 47.5109 6.30867 47.3478L6.41237 47.2183C6.81338 46.7194 7.25895 46.2579 7.74359 45.8395C9.16945 44.6187 10.4657 44.1474 11.6323 44.1901C16.2274 44.3546 18.8069 52.4823 19.2308 53.9297C19.2723 54.0721 19.293 54.1498 19.293 54.1498C19.293 54.1498 21.2283 56.0827 20.6618 56.9307C20.552 57.1174 20.4851 57.3261 20.4661 57.5418C20.3093 58.6823 20.7565 60.5609 20.7565 60.5609C20.7565 60.5609 20.9146 61.0787 21.3761 62.319C21.4175 62.4342 21.4629 62.5546 21.5057 62.6815C21.7947 63.4583 21.8621 64.762 21.6962 65.9297C21.5368 67.0496 21.1635 68.0374 20.562 68.2911C19.3358 68.809 19.665 69.3269 19.9489 69.7528C20.1168 70.0581 20.2569 70.3779 20.3676 70.7082C20.5918 71.318 20.7979 71.9679 20.7979 71.9679C20.8828 71.9352 20.9693 71.9071 21.0572 71.8838C21.2375 71.8245 21.4285 71.8047 21.6172 71.8255C21.6694 71.8295 21.7189 71.85 21.7588 71.884C21.7986 71.9179 21.8266 71.9637 21.8388 72.0145C21.8738 72.1699 22.1421 72.3628 22.4675 72.5453C22.8899 72.775 23.3258 72.979 23.7728 73.1564Z" fill="#CED7E7"/>
  <path opacity="0.1" d="M6.71191 60.7067C7.16041 60.6834 11.9746 58.8217 12.9662 59.4574C13.9578 60.093 20.0955 64.2178 20.0955 64.2178C20.0955 64.2178 16.2496 59.1984 12.8988 58.0203C9.54807 56.8422 6.71191 60.7067 6.71191 60.7067Z" fill="black"/>
  <path opacity="0.1" d="M13.6324 68.2959C13.6324 68.2959 18.4466 69.2617 19.1777 69.922L13.6324 68.2959Z" fill="black"/>
  <path opacity="0.1" d="M12.7057 75.4863C12.6357 75.5575 10.8909 79.4686 11.0309 79.4686C11.1709 79.4686 12.659 77.1383 12.659 77.1383L12.7057 75.4863Z" fill="black"/>
  <path opacity="0.1" d="M15.9864 70.7935C15.9864 70.7935 14.5709 71.2893 14.7355 71.3359C14.9001 71.3825 15.9384 71.0058 15.9864 70.7935Z" fill="black"/>
  <path opacity="0.1" d="M14.5709 76.71C14.8068 77.2045 15.5612 78.6895 15.7272 78.4538C15.8931 78.2182 14.5709 76.71 14.5709 76.71Z" fill="black"/>
  <path opacity="0.1" d="M32.2411 37.5111L32.0389 37.7985C32.0389 37.7985 30.4329 36.6683 29.7731 36.1026C29.1133 35.5368 27.5553 38.1287 26.3277 38.8355C25.1002 39.5424 23.0249 39.7314 23.0249 39.7314C23.0249 39.7314 21.4202 38.1287 21.4695 37.66C21.5187 37.1914 20.7151 37.0477 20.6671 36.7175C20.6191 36.3874 20.3366 35.4449 19.9594 34.9736C19.7597 34.7251 19.7312 33.947 19.7494 33.2699C19.879 33.244 19.9594 33.2298 19.9594 33.2298C20.1608 32.8641 20.4155 32.5303 20.7151 32.2394C21.1402 31.8626 21.8 29.553 21.8 29.553C22.1772 28.2803 22.9316 28.6571 22.9316 28.6571C22.9316 30.59 24.9148 31.2969 25.9052 32.0982C26.8955 32.8996 28.4536 34.9736 29.6811 35.3983C30.6883 35.7414 31.8665 37.0684 32.2411 37.5111Z" fill="black"/>
  <path d="M32.2412 37.2275L32.0389 37.5162C32.0389 37.5162 30.4264 36.3886 29.7666 35.819C29.1069 35.2493 27.5488 37.8451 26.3213 38.5519C25.0937 39.2588 23.0185 39.4491 23.0185 39.4491C23.0185 39.4491 21.4137 37.8451 21.463 37.3777C21.5123 36.9103 20.7086 36.7653 20.6606 36.4339C20.6127 36.1025 20.3301 35.1613 19.9529 34.69C19.7533 34.4415 19.7248 33.6634 19.7429 32.9863L19.9529 32.9474C20.1544 32.5818 20.409 32.248 20.7086 31.957C21.1338 31.579 21.7935 29.2707 21.7935 29.2707C22.1707 27.998 22.9251 28.3735 22.9251 28.3735C22.9251 30.3064 24.9084 31.0145 25.8987 31.8159C26.889 32.6173 28.4471 34.69 29.6746 35.1147C30.6883 35.4629 31.8665 36.7848 32.2412 37.2275Z" fill="#CED7E7"/>
  <path opacity="0.1" d="M32.3616 37.6105C32.3616 37.6105 30.9708 38.364 29.8845 38.4352C29.7423 38.4419 29.5998 38.4336 29.4594 38.4106C29.4594 38.4106 30.6584 37.516 31.7718 37.3335L32.3616 37.6105Z" fill="black"/>
  <path opacity="0.1" d="M35.1939 41.4516C35.1939 41.4516 33.4401 40.7693 32.8607 41.7959C32.8802 41.3247 32.8879 40.9337 32.8879 40.9337L34.7999 40.5557C34.7999 40.5557 34.9839 40.8962 35.1991 41.3545C35.1939 41.4153 35.1939 41.4516 35.1939 41.4516Z" fill="black"/>
  <path d="M29.4594 38.4109C29.4594 38.4109 31.5605 37.1512 32.5703 37.2573C33.6293 37.3674 35.6812 37.4451 35.6812 37.4451C35.6812 37.4451 34.9735 39.0478 35.0681 39.3779C35.1628 39.7081 35.1861 41.3108 35.1861 41.3108C35.1861 41.3108 33.0629 40.4862 32.709 42.0177C32.709 42.0177 31.5528 40.2971 30.7737 39.778C30.2568 39.405 29.8115 38.9418 29.4594 38.4109Z" fill="#63667E"/>
  <path opacity="0.1" d="M41.329 39.8734C40.7159 39.8734 38.5447 38.505 38.0729 37.6104C37.6011 36.7158 36.94 37.7036 36.3269 38.035C35.938 38.2473 34.3968 37.8033 33.5659 37.4809C33.9872 37.1948 34.9205 36.3895 35.194 36.1966C35.5232 35.9597 35.8551 32.1418 35.8551 32.1418C37.0346 31.5295 38.3088 37.0912 38.3088 37.0912C38.3088 37.0912 40.528 37.7515 40.7159 38.2227C40.7522 38.316 40.9194 38.4817 41.1709 38.6823C41.4301 39.3348 41.5727 39.8734 41.329 39.8734Z" fill="black"/>
  <path d="M41.329 39.5902C40.7159 39.5902 38.5447 38.2231 38.0729 37.3285C37.6011 36.4339 36.94 37.4217 36.3269 37.7518C35.938 37.9642 34.7027 37.5538 33.8718 37.234C34.2931 36.9492 34.9205 36.1102 35.194 35.916C35.5232 35.6804 35.8551 31.8625 35.8551 31.8625C37.0346 31.2502 38.3088 36.8119 38.3088 36.8119C38.3088 36.8119 40.528 37.4722 40.7159 37.9434C40.7522 38.0367 40.9194 38.2024 41.1709 38.403C41.4301 39.0517 41.5727 39.5902 41.329 39.5902Z" fill="#CED7E7"/>
  <path d="M49.7143 80.8851L70.2349 63.7958C70.4397 63.6231 70.7006 63.531 70.9686 63.5369L78.6241 63.7376C78.6241 63.7376 79.1543 64.1259 78.3766 64.9752L59.0186 80.8411C58.8095 81.0119 58.5498 81.1092 58.2798 81.1181L49.9087 81.3952C49.8486 81.397 49.7894 81.3802 49.7394 81.3468C49.6893 81.3135 49.6509 81.2655 49.6295 81.2093C49.6081 81.1532 49.6048 81.0918 49.62 81.0337C49.6352 80.9755 49.6681 80.9236 49.7143 80.8851Z" fill="#6C63FF"/>
  <path d="M59.6409 78.7828C59.6409 78.7828 64.1232 85.1939 69.1034 79.2308C74.0835 73.2677 72.6434 70.1346 71.1333 69.9689C69.6231 69.8032 61.1264 76.3321 59.6409 78.7828Z" fill="#FFA2A2"/>
  <path opacity="0.1" d="M89.8728 7.07782C89.8728 7.07782 95.6501 -4.12081 102.479 1.65457C102.479 1.65457 103.969 2.19703 103.857 3.77131C103.857 3.77131 103.282 3.45671 102.826 4.65943C102.658 5.08619 102.441 5.49164 102.178 5.86733C101.828 6.37485 101.324 6.75551 100.739 6.95224C100.739 6.95224 97.6748 9.24504 91.9986 7.47657C91.9986 7.47657 90.3939 7.70701 90.1346 7.50764L91.9999 6.14568C91.9999 6.14568 92.9475 7.55036 94.3331 7.7109C94.3331 7.7109 91.9999 6.24795 92.2669 5.93077C92.3214 5.86604 93.2884 5.25367 93.2884 5.25367C93.2884 5.25367 94.9463 7.68889 97.0954 7.86884C97.0954 7.86884 94.0843 6.49782 93.6526 5.02064L95.1653 4.17783C95.1653 4.17783 96.7908 6.83831 99.2316 7.13608C99.2316 7.13608 96.1336 5.59416 95.5088 4.016L97.1097 3.39198C97.1097 3.39198 98.7468 5.95537 100.778 6.1897C100.778 6.1897 97.3793 4.04707 97.4856 3.27287C97.4856 3.27287 98.9905 2.78868 99.452 2.85212C99.452 2.85212 100.669 4.66461 101.862 4.69698C101.862 4.69698 99.7423 3.0243 99.8823 2.76667C99.8823 2.76667 102.011 2.65663 103.123 3.1706C103.123 3.1706 101.541 2.29154 99.8823 2.43395C99.8823 2.43395 100.633 1.5523 101.611 1.3581C101.611 1.3581 100.438 0.876497 99.3664 2.46631C99.3664 2.46631 97.7111 2.61779 97.5063 2.80162C97.5063 2.80162 98.3437 1.08234 99.3742 0.350872C99.3742 0.350872 97.8381 0.621453 97.0773 2.9518L95.4544 3.54345C95.4544 3.54345 96.4408 1.2131 97.3106 0.493283C97.3106 0.493283 95.7862 1.01114 95.0577 3.72988L93.5645 4.54033C93.5645 4.54033 94.2605 2.4689 95.0551 1.45779C95.0551 1.45779 93.7446 2.24234 93.1445 4.7876L92.2112 5.44398C92.2112 5.44398 92.7466 3.93961 92.9397 3.52144C93.1328 3.10328 93.0356 3.01654 93.0356 3.01654C92.3868 3.7826 91.9637 4.71346 91.8133 5.7055C91.8133 5.7055 89.9804 7.18139 89.8728 7.07782Z" fill="#6C63FF"/>
  <path opacity="0.1" d="M113.766 13.0667C113.766 13.0667 116.377 8.00591 119.462 10.6159C119.462 10.6159 120.136 10.8606 120.084 11.5713C120.084 11.5713 119.825 11.4302 119.619 11.974C119.544 12.1666 119.447 12.3496 119.328 12.519C119.171 12.7478 118.944 12.9198 118.68 13.0097C118.68 13.0097 117.295 14.0454 114.729 13.2466C114.729 13.2466 114.005 13.3502 113.888 13.2609L114.731 12.6446C114.731 12.6446 115.159 13.2803 115.786 13.3515C115.786 13.3515 114.733 12.6912 114.853 12.5475C114.876 12.519 115.313 12.242 115.313 12.242C115.313 12.242 116.062 13.3424 117.034 13.424C117.034 13.424 115.673 12.8038 115.479 12.1293L116.163 11.75C116.163 11.75 116.897 12.9527 118 13.0874C118 13.0874 116.6 12.3909 116.315 11.6775L117.038 11.3953C117.038 11.3953 117.777 12.554 118.695 12.6601C118.695 12.6601 117.159 11.6917 117.208 11.3422C117.208 11.3422 117.887 11.1234 118.096 11.1519C118.096 11.1519 118.645 11.9714 119.185 11.9843C119.185 11.9843 118.227 11.2296 118.29 11.113C118.29 11.113 119.252 11.0638 119.752 11.2956C119.752 11.2956 119.038 10.8981 118.29 10.9629C118.497 10.7285 118.767 10.5593 119.068 10.4761C119.068 10.4761 118.538 10.2586 118.053 10.9771C118.053 10.9771 117.305 11.0457 117.213 11.1286C117.213 11.1286 117.592 10.3518 118.057 10.0217C118.057 10.0217 117.362 10.1434 117.02 11.1972L116.294 11.4691C116.294 11.4691 116.739 10.4165 117.133 10.0903C117.133 10.0903 116.443 10.3246 116.114 11.5519L115.44 11.917C115.44 11.917 115.753 10.9797 116.113 10.524C116.113 10.524 115.52 10.8787 115.251 12.0284L114.828 12.3248C114.828 12.3248 115.07 11.6451 115.157 11.4561C115.244 11.2671 115.2 11.2283 115.2 11.2283C114.907 11.5756 114.716 11.9973 114.648 12.4465C114.648 12.4465 113.812 13.1133 113.766 13.0667Z" fill="#6C63FF"/>
  <path opacity="0.1" d="M85.4786 18.9548C85.4786 18.9548 88.0892 13.8941 91.1821 16.5041C91.1821 16.5041 91.8548 16.7488 91.8042 17.4608C91.8042 17.4608 91.545 17.3184 91.3389 17.8622C91.2638 18.0545 91.1663 18.2375 91.0485 18.4072C90.8891 18.6371 90.6595 18.8092 90.3939 18.8979C90.3939 18.8979 89.0096 19.9336 86.4443 19.1348C86.4443 19.1348 85.7197 19.2397 85.6031 19.149L86.4456 18.5328C86.4456 18.5328 86.8734 19.1685 87.4995 19.241C87.4995 19.241 86.4469 18.5794 86.5662 18.4357C86.5908 18.4072 87.0276 18.1302 87.0276 18.1302C87.0276 18.1302 87.7769 19.2306 88.7477 19.3122C88.7477 19.3122 87.388 18.692 87.1923 18.0175L87.8767 17.6395C87.8767 17.6395 88.6116 18.8409 89.7147 18.9756C89.7147 18.9756 88.3148 18.279 88.0296 17.5657L88.7529 17.2835C88.7529 17.2835 89.4931 18.4422 90.4108 18.5483C90.4108 18.5483 88.8748 17.5799 88.9227 17.2304C88.9227 17.2304 89.6032 17.0116 89.8119 17.0401C89.8119 17.0401 90.3615 17.8596 90.9008 17.8738C90.9008 17.8738 89.9429 17.1177 90.0064 17.0012C90.0064 17.0012 90.9669 16.952 91.4685 17.1838C91.4685 17.1838 90.753 16.7863 90.0051 16.8511C90.2114 16.6167 90.4817 16.4475 90.7828 16.3643C90.7828 16.3643 90.2539 16.1468 89.7692 16.8653C89.7692 16.8653 89.0212 16.9339 88.9292 17.0168C88.9292 17.0168 89.3064 16.24 89.773 15.9098C89.773 15.9098 89.0783 16.0315 88.7361 17.0854L88.0011 17.3573C88.0011 17.3573 88.447 16.3047 88.8398 15.9798C88.8398 15.9798 88.1515 16.2128 87.8222 17.4401L87.1469 17.8052C87.1469 17.8052 87.4619 16.8679 87.8209 16.4122C87.8209 16.4122 87.2285 16.7669 86.9576 17.9165L86.5351 18.213C86.5351 18.213 86.7775 17.5333 86.8643 17.3443C86.9512 17.1553 86.9084 17.1165 86.9084 17.1165C86.6146 17.4634 86.4234 17.8853 86.3562 18.3347C86.3562 18.3347 85.524 19.0014 85.4786 18.9548Z" fill="#6C63FF"/>
  </g>
  <defs>
    <clipPath id="clip0">
      <rect width="139" height="101" fill="white"/>
    </clipPath>
  </defs>
</svg>
