<svg width="284" height="173" viewBox="0 0 284 173" fill="none" xmlns="http://www.w3.org/2000/svg">
  <g clip-path="url(#clip0)">
  <g opacity="0.5" filter="url(#filter0_d)">
   <path d="M34.7635 153.886C50.6028 169.1 152.394 171.61 201.309 170.963C210.95 172.774 237.064 169.721 264.395 143.018C298.558 109.64 235.473 46.7655 246.343 81.89C255.039 109.99 173.099 116.368 131.042 116.044C92.3493 122.319 18.9242 138.671 34.7635 153.886Z" fill="#5B074D" fill-opacity="0.5"/>
  </g>
  <path d="M180.692 172.903C237.748 172.903 284 168.747 284 163.621C284 158.494 237.748 154.338 180.692 154.338C123.636 154.338 77.3835 158.494 77.3835 163.621C77.3835 168.747 123.636 172.903 180.692 172.903Z" fill="#3F3D56"/>
  <path opacity="0.1" d="M273.111 154.159C273.111 168.357 253.294 163.965 229.031 163.965C204.767 163.965 185.244 168.357 185.244 154.159C185.244 139.961 205.058 136.873 229.322 136.873C253.586 136.873 273.111 139.961 273.111 154.159Z" fill="black"/>
  <path d="M273.111 151.507C273.111 165.705 253.294 161.313 229.031 161.313C204.767 161.313 185.244 165.705 185.244 151.507C185.244 137.309 205.058 134.221 229.322 134.221C253.586 134.221 273.111 137.309 273.111 151.507Z" fill="#3F3D56"/>
  <path d="M190.271 107.028L189.373 108.07C189.373 108.07 178.455 109.093 178.898 110.863C179.341 112.633 192.044 108.503 192.044 108.503L190.271 107.028Z" fill="#FFC1C7"/>
  <path d="M210.063 106.143C210.063 106.143 198.395 110.273 192.044 108.503L194.998 114.403C194.998 114.403 210.063 113.961 212.722 111.306C215.381 108.651 210.063 106.143 210.063 106.143Z" fill="#5B074D"/>
  <path opacity="0.1" d="M210.063 106.143C210.063 106.143 198.395 110.273 192.044 108.503L194.998 114.403C194.998 114.403 210.063 113.961 212.722 111.306C215.381 108.651 210.063 106.143 210.063 106.143Z" fill="#5B074D"/>
  <path d="M202.161 74.5047C206.485 74.5047 209.989 71.0047 209.989 66.6873C209.989 62.3698 206.485 58.8698 202.161 58.8698C197.838 58.8698 194.333 62.3698 194.333 66.6873C194.333 71.0047 197.838 74.5047 202.161 74.5047Z" fill="#FFC1C7"/>
  <path d="M208.836 74.0264C209.106 74.5402 209.447 75.0129 209.85 75.4303C210.923 76.5953 212.202 77.5514 213.624 78.2501C209.181 79.1518 204.693 79.8182 200.179 80.2465C200.656 78.5707 200.029 76.7781 199.186 75.2529C198.342 73.7276 197.268 72.3061 196.74 70.6455L202.031 70.7875C202.991 70.8133 203.954 70.842 204.914 70.7951C205.632 70.76 206.827 70.3308 207.497 70.4889C208.912 70.8231 208.218 72.7726 208.836 74.0264Z" fill="#FFC1C7"/>
  <path d="M226.606 110.716L231.037 116.026C231.037 116.026 238.422 133.283 222.323 135.053C206.223 136.823 194.259 133.726 194.259 133.726C194.259 133.726 187.76 130.628 187.613 132.988C187.465 135.348 186.874 141.986 183.329 148.476L180.228 155.556C180.228 155.556 178.603 157.178 179.046 159.391C179.489 161.603 169.15 162.341 169.298 159.391C169.298 159.391 170.775 156.883 170.775 155.408C170.775 153.933 173.138 150.393 173.138 150.393L177.421 129.153C177.421 129.153 177.126 118.238 187.17 120.303C197.213 122.368 211.54 119.861 211.54 119.861L214.79 108.503L226.606 110.716Z" fill="#2F2E41"/>
  <path opacity="0.1" d="M226.606 110.716L231.037 116.026C231.037 116.026 238.422 133.283 222.323 135.053C206.223 136.823 194.259 133.726 194.259 133.726C194.259 133.726 187.76 130.628 187.613 132.988C187.465 135.348 186.874 141.986 183.329 148.476L180.228 155.556C180.228 155.556 178.603 157.178 179.046 159.391C179.489 161.603 169.15 162.341 169.298 159.391C169.298 159.391 170.775 156.883 170.775 155.408C170.775 153.933 173.138 150.393 173.138 150.393L177.421 129.153C177.421 129.153 177.126 118.238 187.17 120.303C197.213 122.368 211.54 119.861 211.54 119.861L214.79 108.503L226.606 110.716Z" fill="black"/>
  <path d="M209.989 110.327C209.989 110.327 223.504 105.258 231.037 116.026C231.037 116.026 232.957 132.693 225.276 133.431C217.596 134.168 207.552 134.021 205.189 131.513C202.826 129.006 187.908 121.926 187.908 121.926C187.908 121.926 180.482 118.143 179.026 123.058C177.569 127.973 177.421 129.153 177.421 129.153C177.421 129.153 169.741 134.758 166.639 135.791C166.639 135.791 164.571 138.741 163.39 138.741C162.208 138.741 154.971 140.363 155.709 134.906L167.673 123.991L179.637 112.338C179.637 112.338 183.034 107.323 191.748 109.978C197.532 111.697 203.398 113.125 209.325 114.256L209.989 110.327Z" fill="#2F2E41"/>
  <path d="M178.603 159.096C178.603 159.096 181.409 166.176 179.046 167.061C176.683 167.946 171.661 167.356 171.661 167.356C171.661 167.356 165.753 166.618 164.276 166.766C162.799 166.913 156.743 165.733 157.629 163.373C158.516 161.013 163.094 161.603 163.094 161.603L167.23 159.686C167.23 159.686 167.673 158.211 168.707 158.801C169.741 159.391 172.695 161.603 178.603 159.096Z" fill="#CBCEDA"/>
  <path d="M163.242 138.151C163.242 138.151 166.344 145.083 161.322 144.493C156.3 143.903 152.46 142.871 150.983 142.723C149.562 142.581 145.545 141.211 146.161 138.481C146.194 138.305 146.207 138.125 146.201 137.946C146.201 137.579 146.699 136.86 150.687 136.971C150.687 136.971 153.641 136.971 154.823 134.906C154.823 134.906 159.254 140.511 163.242 138.151Z" fill="#CBCEDA"/>
  <path d="M196.77 79.151C196.77 79.151 207.405 72.5135 216.267 79.151C225.129 85.7885 231.037 116.026 231.037 116.026L210.506 111.453C210.506 111.453 209.62 107.913 208.439 107.323C207.257 106.733 207.109 104.226 207.109 104.226C207.109 104.226 200.758 102.308 201.201 94.9334C201.644 87.5584 196.77 79.151 196.77 79.151Z" fill="#5B074D"/>
  <path d="M202.235 79.446H196.77C196.77 79.446 193.521 83.1335 193.078 92.4259L191.305 99.8009C191.305 99.8009 187.613 108.651 189.828 110.126C192.044 111.601 196.327 111.453 197.213 108.503C198.099 105.553 204.155 88.4434 204.155 88.4434L202.235 79.446Z" fill="#5B074D"/>
  <path d="M200.669 56.5135C202.024 55.9586 203.506 55.7901 204.951 56.0267C206.397 56.2633 207.748 56.8958 208.854 57.8537C211.691 60.3816 212.263 64.5056 212.98 68.2342C213.697 71.9628 215.14 76.115 218.659 77.5524C217.073 77.764 215.463 77.7172 213.891 77.4139L219.209 82.1729L210.251 79.257C207.44 78.3419 204.487 77.4153 201.576 77.9321C196.753 78.7883 193.395 83.3161 188.762 84.9068L189.277 82.3983L186.169 82.3745C186.914 81.8244 187.523 81.1118 187.95 80.2911C187.804 80.1134 187.623 79.9669 187.419 79.8602C187.214 79.7535 186.991 79.6888 186.761 79.6699C185.466 71.5999 190.264 63.6227 196.518 58.3503C197.748 57.3133 199.109 56.3172 200.698 56.0578C202.286 55.7984 204.141 56.5078 204.693 58.0178" fill="#2F2E41"/>
  <path d="M65.1416 130.473C65.1416 147.45 75.8071 161.189 88.9877 161.189L65.1416 130.473Z" fill="#3F3D56"/>
  <path d="M88.9879 161.189C88.9879 144.02 100.89 130.127 115.599 130.127L88.9879 161.189Z" fill="#5B074D"/>
  <path d="M73.7815 132.012C73.7815 148.139 80.5827 161.189 88.9877 161.189L73.7815 132.012Z" fill="#5B074D"/>
  <path d="M88.9879 161.189C88.9879 139.251 102.745 121.499 119.746 121.499L88.9879 161.189Z" fill="#3F3D56"/>
  <path d="M83.9711 161.405C83.9711 161.405 87.3528 161.301 88.372 160.576C89.3912 159.852 93.574 158.986 93.8269 160.149C94.0797 161.311 98.909 165.93 95.091 165.96C91.273 165.991 86.2197 165.366 85.2025 164.748C84.1853 164.129 83.9711 161.405 83.9711 161.405Z" fill="#A8A8A8"/>
  <path opacity="0.2" d="M95.1592 165.556C91.3412 165.586 86.2878 164.962 85.2706 164.343C84.4959 163.872 84.1873 162.181 84.084 161.401C84.0124 161.404 83.9711 161.405 83.9711 161.405C83.9711 161.405 84.1853 164.129 85.2025 164.748C86.2197 165.366 91.273 165.991 95.0911 165.96C96.1932 165.951 96.5738 165.56 96.5529 164.98C96.3998 165.33 95.9795 165.549 95.1592 165.556Z" fill="black"/>
  </g>
  <defs>
    <filter id="filter0_d" x="28.5598" y="71.5443" width="250.087" height="107.842" filterUnits="userSpaceOnUse" color-interpolation-filters="sRGB">
      <feFlood flood-opacity="0" result="BackgroundImageFix"/>
      <feColorMatrix in="SourceAlpha" type="matrix" values="0 0 0 0 0 0 0 0 0 0 0 0 0 0 0 0 0 0 127 0"/>
      <feOffset dy="4"/>
      <feGaussianBlur stdDeviation="2"/>
      <feColorMatrix type="matrix" values="0 0 0 0 0 0 0 0 0 0 0 0 0 0 0 0 0 0 0.25 0"/>
      <feBlend mode="normal" in2="BackgroundImageFix" result="effect1_dropShadow"/>
      <feBlend mode="normal" in="SourceGraphic" in2="effect1_dropShadow" result="shape"/>
    </filter>
    <clipPath id="clip0">
      <rect width="283.788" height="171.935" fill="white" transform="translate(0.212036 0.967743)"/>
    </clipPath>
  </defs>
</svg>
