<svg width="640" height="360" viewBox="0 0 640 360" fill="none" xmlns="http://www.w3.org/2000/svg">
<g clip-path="url(#clip0)">
<path opacity="0.1" d="M373.048 71.8004C335.397 70.6692 299.537 60.3951 265.318 49.1768C231.099 37.9585 197.159 25.4761 160.409 19.5202C136.772 15.689 109.738 15.148 90.6969 25.8598C72.3657 36.1879 66.4434 53.9671 63.2611 70.4823C60.8643 82.9056 59.4564 95.9781 66.0187 107.61C70.5797 115.685 78.6661 122.472 84.2627 130.209C103.734 157.121 89.9697 190.309 68.8751 216.586C58.9852 228.916 47.4954 240.685 39.8569 253.797C32.2184 266.909 28.6871 281.954 35.3716 295.341C41.992 308.62 57.7751 318.574 74.8731 325.583C109.598 339.816 150.502 343.893 190.416 346.2C278.745 351.31 367.539 349.096 456.1 346.883C488.877 346.062 521.793 345.231 554.034 340.947C571.94 338.567 590.423 334.79 603.425 325.676C619.924 314.104 624.014 294.505 612.955 279.996C594.408 255.656 543.143 249.612 530.164 223.486C523.032 209.111 530.356 193.092 540.729 179.759C562.976 151.155 600.26 126.058 602.221 93.3567C603.571 70.9003 585.647 48.4096 557.932 37.7814C528.884 26.6418 488.598 28.0434 467.177 46.4816C445.082 65.4461 406.296 72.7496 373.048 71.8004Z" fill="#5B074D"/>
<path d="M99.6317 360C123.154 360 142.222 356.9 142.222 353.075C142.222 349.251 123.154 346.15 99.6317 346.15C76.1095 346.15 57.041 349.251 57.041 353.075C57.041 356.9 76.1095 360 99.6317 360Z" fill="#5B074D"/>
<path d="M98.9166 355.623C101.654 355.623 103.873 353.165 103.873 350.134C103.873 347.103 101.654 344.646 98.9166 344.646C96.1791 344.646 93.96 347.103 93.96 350.134C93.96 353.165 96.1791 355.623 98.9166 355.623Z" fill="#3F3D56"/>
<path d="M98.9166 348.914C101.654 348.914 103.873 346.457 103.873 343.426C103.873 340.394 101.654 337.937 98.9166 337.937C96.1791 337.937 93.96 340.394 93.96 343.426C93.96 346.457 96.1791 348.914 98.9166 348.914Z" fill="#3F3D56"/>
<path d="M98.9166 342.206C101.654 342.206 103.873 339.749 103.873 336.717C103.873 333.686 101.654 331.229 98.9166 331.229C96.1791 331.229 93.96 333.686 93.96 336.717C93.96 339.749 96.1791 342.206 98.9166 342.206Z" fill="#3F3D56"/>
<path d="M98.9166 335.503C101.654 335.503 103.873 333.045 103.873 330.014C103.873 326.983 101.654 324.525 98.9166 324.525C96.1791 324.525 93.96 326.983 93.96 330.014C93.96 333.045 96.1791 335.503 98.9166 335.503Z" fill="#3F3D56"/>
<path d="M98.9166 328.794C101.654 328.794 103.873 326.337 103.873 323.306C103.873 320.274 101.654 317.817 98.9166 317.817C96.1791 317.817 93.96 320.274 93.96 323.306C93.96 326.337 96.1791 328.794 98.9166 328.794Z" fill="#3F3D56"/>
<path d="M98.9166 322.086C101.654 322.086 103.873 319.628 103.873 316.597C103.873 313.566 101.654 311.109 98.9166 311.109C96.1791 311.109 93.96 313.566 93.96 316.597C93.96 319.628 96.1791 322.086 98.9166 322.086Z" fill="#3F3D56"/>
<path d="M98.9166 315.378C101.654 315.378 103.873 312.92 103.873 309.889C103.873 306.858 101.654 304.4 98.9166 304.4C96.1791 304.4 93.96 306.858 93.96 309.889C93.96 312.92 96.1791 315.378 98.9166 315.378Z" fill="#3F3D56"/>
<path d="M117.481 263.988C118.16 263.259 118.778 262.492 119.331 261.691L106.299 259.881L120.39 259.969C121.742 257.483 122.48 254.79 122.558 252.054C122.636 249.318 122.053 246.598 120.843 244.059L101.942 252.351L119.395 241.531C117.76 239.148 115.562 237.074 112.939 235.439C110.315 233.804 107.321 232.643 104.144 232.029C100.967 231.414 97.6741 231.359 94.4705 231.867C91.267 232.374 88.2213 233.434 85.523 234.979C82.8246 236.525 80.5314 238.523 78.7859 240.85C77.0405 243.177 75.8802 245.783 75.3772 248.505C74.8742 251.227 75.0394 254.008 75.8623 256.674C76.6853 259.34 78.1485 261.835 80.1609 264.002C79.1053 265.138 78.1964 266.367 77.4499 267.666L94.3675 275.093L76.3329 269.978C75.0642 273.142 74.7498 276.524 75.4183 279.816C76.0867 283.109 77.7169 286.209 80.1609 288.834C77.4046 291.796 75.6898 295.354 75.2127 299.101C74.7356 302.848 75.5154 306.633 77.4628 310.023C79.4103 313.413 82.4469 316.271 86.2254 318.271C90.0038 320.271 94.3717 321.331 98.8296 321.331C103.287 321.331 107.655 320.271 111.434 318.271C115.212 316.271 118.249 313.413 120.196 310.023C122.144 306.633 122.924 302.848 122.446 299.101C121.969 295.354 120.255 291.796 117.498 288.834C120.792 285.295 122.583 280.922 122.583 276.418C122.583 271.915 120.792 267.542 117.498 264.002L117.481 263.988Z" fill="#FF7A00"/>
<path opacity="0.1" d="M75.0821 276.396C75.075 280.9 76.8666 285.274 80.1666 288.81C77.4104 291.771 75.6956 295.329 75.2185 299.076C74.7414 302.823 75.5211 306.608 77.4686 309.998C79.4161 313.388 82.4526 316.246 86.2311 318.246C90.0096 320.246 94.3775 321.306 98.8353 321.306C103.293 321.306 107.661 320.246 111.439 318.246C115.218 316.246 118.255 313.388 120.202 309.998C122.149 306.608 122.929 302.823 122.452 299.076C121.975 295.329 120.26 291.771 117.504 288.81C120.669 285.401 75.0821 274.149 75.0821 276.396Z" fill="black"/>
<path d="M305.977 269.511C306.338 273.445 308.129 277.517 311.899 279.839C315.669 282.16 321.667 282.116 324.547 278.998C325.514 277.827 326.225 276.52 326.647 275.137C329.073 268.655 330.795 261.563 328.136 255.145C322.138 254.815 315.186 252.43 310.683 256.62C307.047 260.033 305.558 264.961 305.977 269.511Z" fill="#3F3D56"/>
<path d="M333.82 229.856C333.023 235.575 331.667 241.271 331.807 247.03C331.859 249.253 332.139 251.456 332.144 253.689C332.154 259.487 330.348 265.183 326.908 270.199C326.546 270.789 326.062 271.319 325.477 271.763C324.099 272.708 322.022 272.629 320.474 271.906C318.962 271.111 317.734 269.984 316.92 268.645C312.586 262.37 312.463 254.741 310.747 247.625C309.432 242.18 307.129 236.903 306.297 231.395C305.756 227.849 305.837 224.234 304.976 220.732C304.714 219.675 303.981 218.086 303.499 216.527C303.056 215.135 302.812 213.768 303.266 212.829C304.191 210.906 307.222 211.653 309.194 211.771C316.139 212.207 323.113 212.192 330.056 211.727C330.742 211.683 331.522 211.658 332.005 212.071C332.215 212.28 332.374 212.523 332.47 212.785C333.023 214.063 333.445 215.38 333.733 216.719C334.692 221.003 334.425 225.493 333.82 229.856Z" fill="#FABDBD"/>
<g opacity="0.1">
<path opacity="0.1" d="M331.143 211.727C330.785 211.695 330.425 211.695 330.067 211.727C326.739 211.953 323.406 212.067 320.078 212.081C323.766 212.088 327.455 211.97 331.143 211.727Z" fill="black"/>
<path opacity="0.1" d="M321.65 271.906C320.138 271.111 318.909 269.984 318.095 268.645C313.761 262.37 313.639 254.741 311.922 247.625C310.608 242.18 308.304 236.903 307.472 231.395C306.931 227.849 307.012 224.234 306.151 220.732C305.89 219.675 305.157 218.086 304.674 216.527C304.232 215.135 303.987 213.768 304.441 212.829C304.634 212.444 304.958 212.116 305.373 211.888C305.788 211.66 306.274 211.543 306.768 211.55C305.296 211.467 303.859 211.614 303.278 212.829C302.824 213.768 303.068 215.135 303.51 216.527C303.993 218.086 304.726 219.675 304.988 220.732C305.849 224.234 305.767 227.849 306.309 231.395C307.14 236.908 309.444 242.185 310.759 247.625C312.475 254.741 312.597 262.379 316.931 268.645C317.746 269.984 318.974 271.111 320.486 271.906C321.415 272.34 322.479 272.522 323.534 272.427C322.873 272.354 322.234 272.177 321.65 271.906Z" fill="black"/>
</g>
<path d="M355.816 260.019C352.326 265.92 352.907 274.281 352.907 274.281C353.489 293.954 344.181 335.267 344.181 335.267H336.036C336.036 335.267 334.873 289.528 336.036 285.593C337.2 281.659 335.455 267.888 333.709 248.707C332.412 234.444 335.943 221.519 337.84 215.849C338.491 213.881 338.945 212.804 338.945 212.804C338.945 212.804 352.326 196.082 359.889 203.952C361.634 205.781 362.559 209.475 362.879 214.137C363.914 229.521 358.492 255.489 355.816 260.019Z" fill="#FABDBD"/>
<path opacity="0.1" d="M362.879 214.137C362.559 209.475 361.645 205.776 359.888 203.951C358.201 202.201 356.223 201.669 354.176 201.901C355.763 202.123 357.185 202.859 358.143 203.951C359.888 205.781 360.813 209.475 361.133 214.137C362.169 229.521 356.747 255.489 354.071 260.019C350.58 265.92 351.162 274.281 351.162 274.281C351.744 293.954 342.436 335.267 342.436 335.267H344.181C344.181 335.267 353.489 293.954 352.907 274.281C352.907 274.281 352.326 265.92 355.816 260.019C358.492 255.489 363.914 229.521 362.879 214.137Z" fill="black"/>
<path d="M331.801 333.471C331.151 333.903 330.589 334.421 330.137 335.006C329.096 336.668 330.574 338.655 332.156 339.978C333.738 341.301 335.647 342.717 335.647 344.601C335.647 346.116 334.291 347.414 332.773 348.221C331.958 348.654 330.934 349.205 331.103 350.021C331.162 350.227 331.267 350.423 331.411 350.596C332.714 352.283 335.024 353.272 337.363 353.646C339.701 354.019 342.116 353.857 344.495 353.695C344.851 353.706 345.2 353.604 345.472 353.41C345.645 353.214 345.737 352.975 345.734 352.731C345.851 351.688 345.775 350.587 346.316 349.647C347.072 348.364 348.812 347.709 349.807 346.559C351.203 344.985 351.011 342.796 350.481 340.883C349.318 336.717 346.729 331.966 342.843 329.079C338.34 325.765 334.809 331.076 331.801 333.471Z" fill="#3F3D56"/>
<path d="M349.429 85.5711C352.675 81.4694 351.831 75.7348 348.515 71.6527C345.199 67.5706 339.87 65.0034 334.373 63.3459C326.961 61.1131 318.787 60.3508 311.172 62.0279C305.11 63.3607 299.665 66.1493 293.952 68.3035C283.845 72.1158 272.856 73.9644 261.792 73.7134C249.511 73.4233 236.055 70.7625 225.752 76.4381C206.892 86.8105 215.281 115.041 197.438 126.603C192.627 129.722 186.571 131.084 181.218 133.489C175.866 135.894 170.793 140.079 170.921 145.204C170.979 147.663 172.259 150.009 173.83 152.089C180.52 161.055 193.028 166.603 205.553 166.5C218.079 166.396 230.302 160.765 237.521 152.099C239.33 149.93 240.924 147.515 243.548 146.07C248.784 143.168 255.684 145.199 261.932 145.632C275.842 146.591 289.757 137.763 292.527 126.18C293.69 121.238 293.487 115.331 298.193 112.228C301.992 109.724 307.338 110.26 312.155 109.832C320.963 109.06 327.915 104.422 332.697 98.3633C334.89 95.5845 335.146 92.2648 338.137 90.0762C341.36 87.6712 346.345 89.4467 349.429 85.5711Z" fill="#3F3D56"/>
<g opacity="0.1">
<path opacity="0.1" d="M250.156 74.6627C255.258 74.7811 260.36 74.4514 265.381 73.6791C263.996 73.7135 262.6 73.7135 261.21 73.6791C251.57 73.4529 241.209 71.7708 232.215 73.7971C238.149 73.8463 244.286 74.525 250.156 74.6627Z" fill="black"/>
<path opacity="0.1" d="M231.901 147.048C229.277 148.494 227.683 150.909 225.874 153.078C220.313 159.677 212.185 164.414 202.912 166.46C203.593 166.485 204.273 166.5 204.96 166.495C217.497 166.391 229.708 160.76 236.928 152.094C238.737 149.925 240.331 147.511 242.955 146.065L243.408 145.829C239.301 145.352 235.27 145.184 231.901 147.048Z" fill="black"/>
<path opacity="0.1" d="M347.927 71.638C344.617 67.5756 339.282 64.9887 333.785 63.3312C326.373 61.0984 318.199 60.3361 310.584 62.0132C310.409 62.0476 310.241 62.0919 310.072 62.1312C314.395 62.335 318.659 63.0706 322.731 64.3149C328.229 65.9723 333.563 68.5592 336.874 72.6216C340.184 76.684 341.033 82.458 337.787 86.5401C334.704 90.4303 329.718 88.6549 326.454 91.05C323.464 93.2386 323.208 96.5584 321.015 99.3371C316.902 104.536 311.177 108.682 304.051 110.255C306.5 110.01 309.083 110.039 311.526 109.823C320.334 109.05 327.286 104.413 332.068 98.3535C334.262 95.5747 334.518 92.255 337.508 90.0664C340.771 87.6712 345.757 89.4467 348.841 85.5564C352.093 81.4547 351.249 75.7004 347.927 71.638Z" fill="black"/>
<path opacity="0.1" d="M300.479 110.806C295.691 111.229 290.344 110.698 286.517 113.202C281.81 116.305 282.037 122.212 280.85 127.154C278.808 135.796 270.512 142.922 260.663 145.573L261.355 145.627C275.265 146.586 289.181 137.758 291.95 126.176C293.114 121.233 292.91 115.326 297.617 112.223C298.697 111.539 299.924 111.038 301.229 110.747C300.967 110.752 300.729 110.787 300.479 110.806Z" fill="black"/>
</g>
<path d="M441.044 67.9642C441.044 67.9642 427.081 91.5714 422.427 100.424C417.773 109.277 375.305 122.556 369.487 123.048C367.927 123.229 366.473 123.821 365.333 124.74C362.046 127.199 360.179 131.409 360.179 131.409C360.179 131.409 362.506 144.688 359.597 166.819C359.539 167.247 359.487 167.675 359.44 168.088C356.904 189.148 362.215 194.115 362.215 194.115C362.215 194.115 305.785 212.312 307.53 188.705C308.077 181.274 307.995 175.844 307.454 171.305C306.862 166.658 305.744 162.069 304.115 157.603C302.736 153.526 301.09 149.055 299.385 142.966C298.565 139.928 297.484 136.945 296.151 134.04C296.11 133.951 296.069 133.863 296.034 133.779C293.125 127.676 290.217 125.704 288.553 125.064C286.982 124.486 285.485 123.775 284.085 122.94C278.709 119.659 267.173 112.306 256.899 103.621C242.937 91.8174 228.975 63.7838 228.975 63.7838C228.975 63.7838 224.902 47.5538 234.211 34.2748C243.519 20.9957 239.446 60.3411 239.446 60.3411C239.446 60.3411 256.317 79.5219 260.39 88.3746C262.484 92.9289 265.812 95.2601 268.534 96.4699C273.033 98.4494 277.339 100.725 281.415 103.277C284.169 105.036 287.063 106.634 290.077 108.057C296.581 111.008 304.371 114.338 310.863 115.213C311.877 115.355 312.902 115.429 313.929 115.434C314.416 115.448 314.901 115.366 315.345 115.195C315.789 115.024 316.18 114.77 316.489 114.451C318.234 112.715 318.193 108.977 317.792 105.903C317.578 104.311 317.259 102.729 316.838 101.167C316.838 101.167 335.745 91.0845 335.163 103.38C335.073 104.739 335.222 106.101 335.606 107.423C335.915 108.636 336.6 109.758 337.59 110.674C338.581 111.59 339.841 112.267 341.243 112.636C343.513 113.199 345.915 113.265 348.224 112.828C348.944 112.724 349.639 112.523 350.283 112.233C352.029 111.249 369.481 106.823 374.717 106.331C379.953 105.839 406.132 95.0191 406.132 95.0191L434.638 61.5755C434.638 61.5755 434.057 41.9029 445.692 34.0338C457.327 26.1647 441.044 67.9642 441.044 67.9642Z" fill="#FABDBD"/>
<g opacity="0.1">
<path opacity="0.1" d="M359.44 165.137C358.932 169.09 358.708 173.064 358.771 177.039C358.829 174.443 359.033 171.477 359.44 168.088C359.487 167.675 359.539 167.247 359.597 166.819C360.615 159.245 361.1 151.627 361.051 144.004C360.962 150.642 360.476 157.272 359.597 163.869C359.562 164.296 359.487 164.724 359.44 165.137Z" fill="black"/>
<path opacity="0.1" d="M317.442 100.852C317.052 101.044 316.86 101.162 316.86 101.162C317.426 103.266 317.799 105.403 317.977 107.555C318.095 105.311 317.915 103.063 317.442 100.852Z" fill="black"/>
<path opacity="0.1" d="M239.719 57.6706C240.004 54.2279 240.429 48.0556 240.347 42.5669C240.248 49.9048 239.475 57.3903 239.475 57.3903L239.719 57.6706Z" fill="black"/>
<path opacity="0.1" d="M307.57 188.13C307.57 188.321 307.57 188.513 307.529 188.705C305.784 212.312 362.214 194.115 362.214 194.115C361.554 193.361 361.056 192.516 360.743 191.617C352.243 194.174 309.53 206.066 307.57 188.13Z" fill="black"/>
<path opacity="0.1" d="M441.043 65.0133C441.043 65.0133 427.081 88.6205 422.427 97.4732C417.773 106.326 375.304 119.605 369.487 120.097C367.926 120.278 366.473 120.87 365.333 121.789C362.046 124.248 360.179 128.458 360.179 128.458C360.179 128.458 360.318 129.259 360.487 130.784C361.139 129.52 362.814 126.618 365.333 124.74C366.473 123.821 367.926 123.229 369.487 123.048C375.304 122.556 417.773 109.277 422.427 100.424C427.081 91.5714 441.043 67.9642 441.043 67.9642C441.043 67.9642 450.881 42.7095 449.799 35.1552C448.903 44.8341 441.043 65.0133 441.043 65.0133Z" fill="black"/>
<path opacity="0.1" d="M307.454 168.354C306.862 163.707 305.743 159.118 304.115 154.652C302.736 150.575 301.089 146.104 299.385 140.015C298.564 136.977 297.483 133.994 296.15 131.089C296.109 131 296.069 130.912 296.034 130.828C293.125 124.725 290.216 122.753 288.552 122.113C286.981 121.535 285.484 120.824 284.085 119.989C278.709 116.708 267.173 109.355 256.899 100.67C242.937 88.8664 228.974 60.8329 228.974 60.8329C228.458 58.4663 228.17 56.0682 228.113 53.6622C227.971 57.0524 228.26 60.4457 228.974 63.7838C228.974 63.7838 242.937 91.8173 256.899 103.621C267.173 112.306 278.709 119.659 284.085 122.939C285.495 123.776 287.004 124.488 288.587 125.064C290.245 125.703 293.148 127.676 296.069 133.779C296.104 133.863 296.144 133.951 296.185 134.04C297.512 136.945 298.587 139.929 299.402 142.966C301.107 149.055 302.753 153.526 304.132 157.603C305.761 162.069 306.879 166.658 307.471 171.305C307.716 173.361 307.861 175.598 307.902 178.116C307.972 174.858 307.823 171.598 307.454 168.354Z" fill="black"/>
</g>
<path d="M365.072 146.989C364.184 148.231 363.406 149.526 362.745 150.865C361.867 152.93 361.861 155.178 361.698 157.367C361.466 160.438 360.913 163.486 360.046 166.475C359.905 167.026 359.711 167.565 359.464 168.088C359.29 168.44 359.061 168.771 358.783 169.072C358.473 169.393 358.108 169.673 357.701 169.903C357.077 170.255 356.417 170.559 355.729 170.813C347.631 174.01 338.8 176.833 329.963 175.731C326.227 175.179 322.612 174.151 319.241 172.682C316.041 171.369 312.423 169.81 309.107 170.901C308.598 171.12 308.049 171.264 307.484 171.329C307.374 171.331 307.265 171.323 307.158 171.305C306.064 171.128 306.064 168.01 305.814 167.09C304.86 163.559 304.715 160.696 304.144 157.627C303.841 155.93 303.373 154.257 302.742 152.625C300.415 146.674 299.711 140.33 299.711 134.094C299.711 133.784 297.094 134.094 296.221 134.064C296 134.064 295.878 134.035 295.93 133.971C295.981 133.91 296.039 133.854 296.105 133.804C296.409 133.595 296.765 133.445 297.146 133.366L297.832 133.194C301.428 132.333 305.395 131.974 308.083 129.835C310.875 127.626 311.574 124.1 311.451 120.874C311.416 119.836 310.817 117.318 310.916 115.228C311.93 115.369 312.955 115.443 313.982 115.449C314.469 115.462 314.954 115.38 315.398 115.21C315.842 115.039 316.233 114.784 316.542 114.465C317.512 116.054 318.352 117.697 319.055 119.384C320.044 121.439 320.8 123.603 322.249 125.462C324.576 128.492 328.869 130.484 333.139 130.179C337.409 129.874 341.383 127.1 342.145 123.539C342.814 120.416 341.261 115.921 341.296 112.675C343.566 113.238 345.968 113.304 348.277 112.867C348.375 113.067 348.458 113.273 348.527 113.482C349.836 117.279 351.581 121.636 355.973 122.984C358.812 123.849 362.169 123.2 364.793 124.459C364.994 124.557 365.189 124.666 365.375 124.784C365.98 125.164 366.502 125.632 366.916 126.166C367.994 127.67 368.634 129.369 368.784 131.123C369.455 136.607 368.162 142.135 365.072 146.989Z" fill="#FF7A00"/>
<path opacity="0.1" d="M335.605 107.418C332.703 108.363 329.579 108.719 326.484 108.455C323.39 108.191 320.412 107.315 317.792 105.898C317.578 104.306 317.259 102.725 316.838 101.162C316.838 101.162 335.745 91.0796 335.163 103.375C335.073 104.734 335.222 106.096 335.605 107.418Z" fill="black"/>
<path d="M328.467 107.555C339.391 107.555 348.247 100.069 348.247 90.8337C348.247 81.5985 339.391 74.1119 328.467 74.1119C317.543 74.1119 308.688 81.5985 308.688 90.8337C308.688 100.069 317.543 107.555 328.467 107.555Z" fill="#FABDBD"/>
<path d="M293.858 132.392C293.858 132.392 332.255 111.736 451.515 133.868C570.776 155.999 640.006 138.294 640.006 138.294V161.409C640.006 161.409 506.201 173.705 455.006 161.409C403.811 149.114 330.934 142.022 305.412 161.06L293.858 132.392Z" fill="#F86D70"/>
<path opacity="0.1" d="M293.858 132.392C293.858 132.392 332.255 111.736 451.515 133.868C570.776 155.999 640.006 138.294 640.006 138.294V161.409C640.006 161.409 506.201 173.705 455.006 161.409C403.811 149.114 330.934 142.022 305.412 161.06L293.858 132.392Z" fill="black"/>
<path d="M295.021 133.376C295.021 133.376 332.254 112.72 451.515 134.851C570.776 156.983 638.842 139.278 638.842 139.278L639.423 160.426C639.423 160.426 506.782 172.721 455.587 160.426C404.392 148.13 332.097 139.563 306.575 158.601L295.021 133.376Z" fill="#F86D70"/>
<path d="M281.025 165.147C281.025 165.147 242.629 185.803 123.368 163.672C4.10727 141.54 9.92487 159.245 9.92487 159.245V136.13C9.92487 136.13 68.6826 123.835 119.878 136.13C171.072 148.425 243.949 155.517 269.471 136.479L281.025 165.147Z" fill="#F86D70"/>
<path opacity="0.1" d="M281.025 165.147C281.025 165.147 242.629 185.803 123.368 163.672C4.10727 141.54 9.92487 159.245 9.92487 159.245V136.13C9.92487 136.13 68.6826 123.835 119.878 136.13C171.072 148.425 243.949 155.517 269.471 136.479L281.025 165.147Z" fill="black"/>
<path d="M279.862 164.164C279.862 164.164 242.629 184.82 123.368 162.688C4.10747 140.556 11.0886 158.262 11.0886 158.262L10.5068 137.114C10.5068 137.114 68.1011 124.818 119.296 137.114C170.491 149.409 242.786 157.977 268.308 138.938L279.862 164.164Z" fill="#F86D70"/>
<path d="M311.456 93.6026C310.875 90.5336 309.979 86.668 313.015 84.9122C314.099 84.357 315.351 84.0833 316.617 84.1253C322.905 84.0712 328.915 87.7745 335.082 86.6925C337.044 86.3449 338.846 85.5253 340.271 84.3325C341.695 83.1396 342.682 81.6242 343.112 79.9686C343.543 78.3129 343.398 76.5874 342.696 74.9996C341.993 73.4118 340.763 72.0293 339.154 71.0184C336.728 69.4937 333.662 68.9429 330.695 68.4265C322.894 67.0691 314.749 65.7166 307.047 67.4429C299.344 69.1691 292.305 75.007 292.922 81.7055C293.212 84.9122 295.144 87.8237 297.163 90.5582C298.698 92.6337 304.679 102.362 307.582 102.509C311.677 102.711 311.858 95.6092 311.456 93.6026Z" fill="#3F3D56"/>
<path d="M360.47 185.754C360.47 185.754 320.328 194.115 306.948 185.754C306.948 185.754 301.13 204.935 302.875 214.772C302.875 214.772 331.382 216.247 334.29 217.723C334.29 217.723 334.872 213.788 337.781 215.755C337.781 215.755 347.671 205.919 365.705 214.772C365.705 214.772 369.196 191.656 360.47 185.754Z" fill="#5B074D"/>
<path opacity="0.1" d="M339.166 71.0184C338.752 70.7648 338.319 70.5348 337.869 70.3298C339.069 71.4836 339.89 72.8835 340.25 74.3896C340.61 75.8958 340.496 77.4555 339.92 78.9127C339.343 80.3699 338.324 81.6737 336.965 82.6937C335.605 83.7138 333.953 84.4143 332.173 84.7253C326.006 85.8073 319.997 82.1039 313.708 82.158C312.442 82.116 311.19 82.3897 310.107 82.9449C307.07 84.7007 307.96 88.5664 308.542 91.6353C308.926 93.6419 308.769 100.744 304.685 100.552H304.615C305.738 101.708 306.785 102.49 307.594 102.519C311.666 102.711 311.835 95.6338 311.451 93.6026C310.869 90.5336 309.979 86.668 313.016 84.9122C314.099 84.357 315.351 84.0833 316.617 84.1253C322.906 84.0712 328.915 87.7745 335.082 86.6925C337.044 86.3449 338.846 85.5253 340.271 84.3325C341.696 83.1396 342.682 81.6242 343.113 79.9685C343.543 78.3129 343.398 76.5874 342.696 74.9996C341.994 73.4118 340.764 72.0293 339.154 71.0184H339.166Z" fill="black"/>
<g opacity="0.1">
<path opacity="0.1" d="M50.2392 47.6571C50.2392 47.6571 6.74099 32.1943 1.03974 60.0803C1.03974 60.0803 -1.93306 64.4231 2.20326 68.0133C2.20326 68.0133 3.09335 66.0903 7.29948 68.0822C8.80098 68.7802 10.3943 69.3265 12.0466 69.7101C14.2795 70.2308 16.6521 70.1238 18.8067 69.4052C18.8067 69.4052 33.1122 68.7511 45.143 52.9293C45.143 52.9293 50.2974 50.2342 50.5592 49.226L41.9375 49.7178C41.9375 49.7178 42.5949 55.054 39.0287 58.2557C39.0287 58.2557 42.1993 49.9784 40.675 49.7424C40.3667 49.6932 36.1199 50.1702 36.1199 50.1702C36.1199 50.1702 37.2194 59.4459 31.4658 64.246C31.4658 64.246 36.8063 54.8081 34.4793 50.3375L28.1207 51.3752C28.1207 51.3752 29.8659 61.1328 23.5713 66.8133C23.5713 66.8133 28.7431 56.7803 26.7477 51.6801L20.6509 53.4113C20.6509 53.4113 22.1227 62.9624 16.8578 67.674C16.8578 67.674 21.4537 55.5704 19.2895 53.9031C19.2895 53.9031 13.8094 55.7819 12.6342 56.854C12.6342 56.854 13.5069 63.7395 10.1559 66.1985C10.1559 66.1985 12.2153 57.8377 11.1973 57.4934C11.1973 57.4934 4.827 61.546 2.88973 65.0428C2.88973 65.0428 5.30986 59.7016 10.3944 56.6819C10.3944 56.6819 6.12432 56.072 2.83156 57.5819C2.83156 57.5819 5.03643 54.0359 11.9361 55.7179C11.9361 55.7179 17.0498 52.7277 18.0737 52.767C18.0737 52.767 11.5463 50.3079 6.82825 50.608C6.82825 50.608 11.8837 48.1489 19.6735 52.2605L25.7471 50.4014C25.7471 50.4014 17.3174 46.7472 13.088 46.7619C13.088 46.7619 18.7078 44.9275 27.3295 50.0424L33.5485 48.9653C33.5485 48.9653 26.5674 45.3504 21.8609 44.5094C21.8609 44.5094 27.5098 43.7569 35.3461 48.7194L39.6046 48.4144C39.6046 48.4144 34.4502 45.8521 32.8911 45.2275C31.332 44.6029 31.4018 44.1947 31.4018 44.1947C35.1127 44.7393 38.5712 46.1459 41.3906 48.2571C41.3906 48.2571 50.1985 48.1144 50.2392 47.6571Z" fill="#6C63FF"/>
</g>
<g opacity="0.1">
<path opacity="0.1" d="M48.6353 19.9393C48.6353 19.9393 33.1954 -10.1944 11.0362 3.6257C11.0362 3.6257 6.34138 4.77655 6.3821 8.88814C6.3821 8.88814 8.20883 8.17501 9.36071 11.3817C9.79139 12.5204 10.3771 13.613 11.106 14.6375C12.0701 16.0155 13.5382 17.0909 15.2888 17.7015C15.2888 17.7015 24.2247 24.2033 42.0498 20.5983C42.0498 20.5983 46.9308 21.4836 47.7685 21.0065L42.3174 17.1408C42.3174 17.1408 39.1177 20.6278 34.8243 20.7999C34.8243 20.7999 42.2883 17.4064 41.5379 16.531C41.3866 16.3539 38.5476 14.5932 38.5476 14.5932C38.5476 14.5932 32.9453 20.6327 26.3306 20.7262C26.3306 20.7262 35.8657 17.6867 37.4946 13.9145L33.0209 11.4554C33.0209 11.4554 27.4709 18.09 19.9138 18.4343C19.9138 18.4343 29.7456 14.9916 31.997 10.9784L27.2091 9.07011C27.2091 9.07011 21.6475 15.4637 15.3587 15.7047C15.3587 15.7047 26.2434 10.7275 26.0747 8.69633C26.0747 8.69633 21.5544 7.1717 20.1233 7.26022C20.1233 7.26022 16.0102 11.7604 12.3393 11.6325C12.3393 11.6325 19.1983 7.65368 18.8201 6.96022C18.8201 6.96022 12.3044 6.30119 8.7964 7.45204C8.7964 7.45204 13.8344 5.44542 18.8899 6.10446C18.8899 6.10446 16.7665 3.6798 13.8054 3.00601C13.8054 3.00601 17.5053 1.95844 20.4723 6.28151C20.4723 6.28151 25.522 6.96514 26.1096 7.47662C26.1096 7.47662 23.8989 2.85846 20.8737 0.77808C20.8737 0.77808 25.5278 1.76172 27.3895 7.94385L32.2472 9.76849C32.2472 9.76849 29.7049 3.53717 27.1509 1.5158C27.1509 1.5158 31.7294 3.12896 33.4049 10.3193L37.8204 12.6751C37.8204 12.6751 36.1042 7.16678 33.8819 4.42244C33.8819 4.42244 37.7448 6.68972 39.0596 13.4129L41.7938 15.2818C41.7938 15.2818 40.4558 11.2784 39.9497 10.157C39.4435 9.03569 39.7635 8.82912 39.7635 8.82912C41.5979 10.9414 42.7034 13.4423 42.9574 16.0539C42.9574 16.0539 48.3212 20.195 48.6353 19.9393Z" fill="#FF77AA" fill-opacity="0.5"/>
</g>
</g>
<defs>
<clipPath id="clip0">
<rect width="640" height="360" fill="white"/>
</clipPath>
</defs>
</svg>
