<svg width="214" height="150" viewBox="0 0 214 150" fill="none" xmlns="http://www.w3.org/2000/svg">
  <path d="M142.889 144.683C142.889 144.683 144.628 138.832 138.012 135.501L142.889 144.683Z" fill="#E6E6E6"/>
  <path d="M143.106 144.714C143.106 144.714 143.795 138.939 151.501 138.578L143.106 144.714Z" fill="#E6E6E6"/>
  <path d="M22.1822 14.3637C22.7551 14.3637 23.2195 13.8995 23.2195 13.3269C23.2195 12.7542 22.7551 12.29 22.1822 12.29C21.6093 12.29 21.1449 12.7542 21.1449 13.3269C21.1449 13.8995 21.6093 14.3637 22.1822 14.3637Z" fill="white"/>
  <path d="M26.1197 14.3637C26.6926 14.3637 27.157 13.8995 27.157 13.3269C27.157 12.7542 26.6926 12.29 26.1197 12.29C25.5468 12.29 25.0824 12.7542 25.0824 13.3269C25.0824 13.8995 25.5468 14.3637 26.1197 14.3637Z" fill="white"/>
  <path d="M30.0565 14.3637C30.6294 14.3637 31.0938 13.8995 31.0938 13.3269C31.0938 12.7542 30.6294 12.29 30.0565 12.29C29.4836 12.29 29.0192 12.7542 29.0192 13.3269C29.0192 13.8995 29.4836 14.3637 30.0565 14.3637Z" fill="white"/>
  <path d="M151.387 15.7627H19.662V16.4945H151.387V15.7627Z" fill="white"/>
  <path d="M151.5 0.0857391H0.0643311V97.0261H151.5V0.0857391Z" fill="#E6E6E6"/>
  <path d="M151.436 0H0V6.43052H151.436V0Z" fill="#FF7A00" fill-opacity="0.75"/>
  <path d="M147.295 11.6173H4.52002V48.5719H147.295V11.6173Z" fill="white"/>
  <path d="M147.386 54.6444H4.61047V91.599H147.386V54.6444Z" fill="white"/>
  <path d="M130.003 19.7924H52.733V23.2346H130.003V19.7924Z" fill="#E6E6E6"/>
  <path d="M80.2834 28.3978H52.733V31.84H80.2834V28.3978Z" fill="#E6E6E6"/>
  <path d="M107.619 37.0032H52.733V40.4454H107.619V37.0032Z" fill="#E6E6E6"/>
  <path d="M47.5492 30.1116C47.5533 32.616 46.8239 35.0669 45.4509 37.162C45.1632 37.6037 44.848 38.027 44.507 38.4291C43.7074 39.3759 42.776 40.2031 41.7412 40.8854C41.4599 41.0718 41.1707 41.2464 40.8735 41.4093C39.3271 42.2642 37.6201 42.7896 35.8604 42.9524C35.4604 42.9915 35.0537 43.01 34.6434 43.01C33.5191 43.0111 32.3995 42.8648 31.3132 42.5747C30.6975 42.413 30.0952 42.204 29.5116 41.9496C29.2134 41.8209 28.9218 41.6808 28.637 41.5296C27.9521 41.17 27.3015 40.7488 26.6932 40.271C26.4102 40.0508 26.1373 39.8187 25.8746 39.5747C24.3022 38.1191 23.1174 36.2949 22.4269 34.267C21.7365 32.239 21.5622 30.0711 21.9198 27.959C22.2775 25.8468 23.1558 23.857 24.4754 22.1691C25.795 20.4812 27.5145 19.1483 29.4785 18.2909C31.4425 17.4335 33.5892 17.0784 35.7249 17.2579C37.8605 17.4373 39.9178 18.1455 41.7111 19.3187C43.5043 20.4918 44.977 22.0928 45.9962 23.9772C47.0154 25.8617 47.5491 27.9701 47.5489 30.1123L47.5492 30.1116Z" fill="#E6E6E6"/>
  <path d="M31.5161 31.2768C31.5161 31.2768 32.6909 34.5392 31.7782 36.3652C30.8655 38.1912 33.2141 40.2794 33.2141 40.2794C33.2141 40.2794 39.3494 37.1479 38.566 35.5822C37.7827 34.0165 36.4776 31.929 36.7384 30.6243L31.5161 31.2768Z" fill="#FFB8B8"/>
  <path d="M33.8002 32.5163C36.1072 32.5163 37.9774 30.647 37.9774 28.3411C37.9774 26.0352 36.1072 24.1659 33.8002 24.1659C31.4932 24.1659 29.623 26.0352 29.623 28.3411C29.623 30.647 31.4932 32.5163 33.8002 32.5163Z" fill="#FFB8B8"/>
  <path d="M31.3137 42.574C30.698 42.4123 30.0956 42.2033 29.5121 41.9489L29.6241 38.7793L30.7986 36.1689C31.0627 36.3757 31.3452 36.5577 31.6427 36.7126C31.7142 36.7516 31.7857 36.7888 31.8648 36.8262C32.9664 37.3582 34.7661 37.8263 36.5105 36.5214C37.1515 36.0226 37.6955 35.4106 38.1156 34.7156L41.3729 36.5604L41.5439 38.5593L41.7422 40.8851C41.4609 41.0715 41.1716 41.2462 40.8745 41.409C39.328 42.264 37.6211 42.7894 35.8613 42.9521C35.4613 42.9912 35.0546 43.0098 34.6444 43.0098C33.5198 43.0107 32.4001 42.8642 31.3137 42.574Z" fill="url(#paint0_linear)" fill-opacity="0.97"/>
  <path d="M32.1152 34.216V34.221L31.9508 35.9251L31.8643 36.8262L31.7373 38.1661L31.3137 42.574C30.698 42.4123 30.0957 42.2033 29.5121 41.9489C29.2139 41.8201 28.9223 41.6801 28.6375 41.5288C27.9526 41.1693 27.302 40.748 26.6937 40.2703L26.2294 38.1271L26.2649 38.1033L32.1152 34.216Z" fill="#575A89"/>
  <path d="M40.8733 41.4086C39.3268 42.2635 37.6199 42.7889 35.8601 42.9517C35.9554 41.3662 36.0941 39.8348 36.2515 38.4712C36.3328 37.7716 36.4183 37.1177 36.5091 36.5214C36.7921 34.6056 37.0971 33.3045 37.3158 33.1285L38.7598 34.081L44.634 36.168L44.5067 38.4279C43.7071 39.3747 42.7757 40.2019 41.7409 40.8842C41.4597 41.0712 41.1704 41.246 40.8733 41.4086Z" fill="#575A89"/>
  <path d="M26.6935 40.2703C26.4105 40.0501 26.1376 39.818 25.8749 39.574L26.0986 38.1274L26.2654 38.1036L27.0127 37.9969L28.638 41.5289C27.9531 41.1694 27.3025 40.7481 26.6942 40.2703H26.6935Z" fill="#575A89"/>
  <path d="M45.4513 37.1617C45.1636 37.6035 44.8483 38.0267 44.5073 38.4288C43.7077 39.3756 42.7763 40.2028 41.7416 40.8852C41.4603 41.0715 41.171 41.2462 40.8739 41.4091L40.7197 40.7366L41.5433 38.5598L42.5466 35.9087L44.6346 36.1706C44.924 36.4865 45.1966 36.8173 45.4513 37.1617Z" fill="#575A89"/>
  <path d="M37.7839 24.565C37.1524 23.5399 36.1639 22.7844 35.0086 22.444L34.16 23.1226L34.4899 22.3311C34.2124 22.289 33.9316 22.2731 33.6511 22.2835L32.8875 23.2648L33.2036 22.317C32.541 22.3993 31.9026 22.618 31.3288 22.9592C30.7549 23.3004 30.258 23.7568 29.8694 24.2995C28.8976 25.7002 28.7334 27.6481 29.6895 29.0597C29.9516 28.2537 30.2704 27.4974 30.5329 26.6913C30.7392 26.7194 30.9482 26.7205 31.1547 26.6944L31.474 25.9497L31.5631 26.6627C32.5525 26.5765 34.0203 26.3874 34.9583 26.2141L34.8671 25.6664L35.4129 26.121C35.7002 26.0548 35.871 25.9947 35.8567 25.949C36.5543 27.0733 37.2457 27.7912 37.9433 28.9154C38.2075 27.3304 38.6749 26.0117 37.7839 24.565Z" fill="#2F2E41"/>
  <path d="M37.5526 28.7754C37.7088 28.7754 37.8354 28.5223 37.8354 28.2101C37.8354 27.8979 37.7088 27.6448 37.5526 27.6448C37.3964 27.6448 37.2698 27.8979 37.2698 28.2101C37.2698 28.5223 37.3964 28.7754 37.5526 28.7754Z" fill="#FFB8B8"/>
  <path d="M46.9218 72.9325C46.9259 75.4387 46.196 77.8912 44.8222 79.9877C44.5343 80.4298 44.2188 80.8533 43.8775 81.2557C43.0774 82.2032 42.1453 83.031 41.1098 83.7137C40.8282 83.9003 40.5388 84.0749 40.2414 84.2376C38.6938 85.0932 36.9857 85.619 35.2247 85.7819C34.8245 85.821 34.4175 85.8396 34.007 85.8396C32.8819 85.8407 31.7615 85.6943 30.6745 85.404C30.0583 85.2422 29.4556 85.033 28.8717 84.7784C28.5732 84.6495 28.2815 84.5094 27.9966 84.3581C27.3112 83.9983 26.6601 83.5768 26.0513 83.0986C25.7681 82.8783 25.4951 82.646 25.2322 82.4019C23.6594 80.9451 22.4743 79.1199 21.7838 77.0908C21.0934 75.0617 20.9193 72.8927 21.2774 70.7796C21.6354 68.6664 22.5143 66.6757 23.8347 64.987C25.1551 63.2983 26.8754 61.9648 28.8404 61.107C30.8054 60.2491 32.9532 59.8938 35.0899 60.0733C37.2266 60.2527 39.285 60.9611 41.0792 62.1346C42.8735 63.3081 44.3472 64.9097 45.3672 66.7949C46.3872 68.6801 46.9215 70.7895 46.9218 72.9328V72.9325Z" fill="#FF7A00" fill-opacity="0.75"/>
  <path d="M34.7993 66.9071H33.2162V78.9547H34.7993V66.9071Z" fill="white"/>
  <path d="M40.0344 73.7222V72.1398H27.9811V73.7222H40.0344Z" fill="white"/>
  <path d="M128.066 62.8195H50.796V66.2618H128.066V62.8195Z" fill="#E6E6E6"/>
  <path d="M78.3464 71.4249H50.796V74.8671H78.3464V71.4249Z" fill="#E6E6E6"/>
  <path d="M105.682 80.0303H50.796V83.4725H105.682V80.0303Z" fill="#E6E6E6"/>
  <path d="M10.0158 4.26258C10.6035 4.26258 11.08 3.78632 11.08 3.19884C11.08 2.61135 10.6035 2.1351 10.0158 2.1351C9.42801 2.1351 8.95154 2.61135 8.95154 3.19884C8.95154 3.78632 9.42801 4.26258 10.0158 4.26258Z" fill="white"/>
  <path d="M14.0552 4.26258C14.643 4.26258 15.1195 3.78632 15.1195 3.19884C15.1195 2.61135 14.643 2.1351 14.0552 2.1351C13.4674 2.1351 12.991 2.61135 12.991 3.19884C12.991 3.78632 13.4674 4.26258 14.0552 4.26258Z" fill="white"/>
  <path d="M5.96573 4.26258C6.55349 4.26258 7.02997 3.78632 7.02997 3.19884C7.02997 2.61135 6.55349 2.1351 5.96573 2.1351C5.37797 2.1351 4.90149 2.61135 4.90149 3.19884C4.90149 3.78632 5.37797 4.26258 5.96573 4.26258Z" fill="white"/>
  <path d="M137.759 64.6296L124.76 77.6196L119.296 72.1598C119.123 71.9865 118.917 71.849 118.69 71.7552C118.464 71.6614 118.221 71.6131 117.976 71.6131C117.73 71.6131 117.487 71.6614 117.261 71.7552C117.034 71.849 116.828 71.9865 116.655 72.1598L116.459 71.8664C115.729 72.5953 115.926 74.0703 116.655 74.7992L123.744 81.8831C124.011 82.1501 124.373 82.3001 124.751 82.3002C125.129 82.3003 125.491 82.1505 125.759 81.8837L140.398 67.269C141.128 66.5405 141.393 65.2045 140.664 64.4755C139.934 63.7469 138.488 63.9009 137.759 64.6296Z" fill="#57B894"/>
  <path opacity="0.1" d="M137.759 64.6296L124.76 77.6196L119.296 72.1598C119.123 71.9865 118.917 71.849 118.69 71.7552C118.464 71.6614 118.221 71.6131 117.976 71.6131C117.73 71.6131 117.487 71.6614 117.261 71.7552C117.034 71.849 116.828 71.9865 116.655 72.1598L116.459 71.8664C115.729 72.5953 115.926 74.0703 116.655 74.7992L123.744 81.8831C124.011 82.1501 124.373 82.3001 124.751 82.3002C125.129 82.3003 125.491 82.1505 125.759 81.8837L140.398 67.269C141.128 66.5405 141.393 65.2045 140.664 64.4755C139.934 63.7469 138.488 63.9009 137.759 64.6296Z" fill="black"/>
  <defs>
    <linearGradient id="paint0_linear" x1="35.6271" y1="34.7156" x2="35.6271" y2="43.0098" gradientUnits="userSpaceOnUse">
    <stop stop-color="#5B074D"/>
    <stop offset="1" stop-color="#F7CFB9" stop-opacity="0"/>
    </linearGradient>
  </defs>
</svg>
