<svg width="110" height="92" viewBox="0 0 110 92" fill="none" xmlns="http://www.w3.org/2000/svg">
  <g opacity="0.6">
    <path d="M22.507 48L29.462 62.093L45.014 64.352L33.76 75.322L36.417 90.811L22.507 83.498L8.59698 90.811L11.253 75.322L0 64.352L15.552 62.093L22.507 48Z" fill="#5B074D"/>
    <path d="M51.507 0L58.462 14.093L74.014 16.352L62.7599 27.322L65.417 42.811L51.507 35.498L37.597 42.811L40.253 27.322L29 16.352L44.552 14.093L51.507 0Z" fill="#5B074D"/>
    <path d="M86.507 49L93.462 63.093L109.014 65.352L97.76 76.322L100.417 91.811L86.507 84.498L72.596 91.811L75.253 76.322L64 65.352L79.552 63.093L86.507 49Z" fill="#5B074D"/>
  </g>
</svg>
