<svg width="285" height="264" viewBox="0 0 285 264" fill="none" xmlns="http://www.w3.org/2000/svg">
  <g clip-path="url(#clip0)">
    <g opacity="0.5">
      <path opacity="0.5" d="M199.023 15.887L79.0686 16.1795C78.4211 16.1809 77.7803 16.3101 77.1827 16.5595C76.5851 16.809 76.0425 17.1739 75.5858 17.6334C75.1292 18.0929 74.7675 18.6379 74.5213 19.2374C74.2752 19.8369 74.1495 20.4791 74.1514 21.1273L74.6961 245.722C74.6976 246.37 74.8266 247.012 75.0757 247.61C75.3249 248.208 75.6895 248.752 76.1484 249.209C76.6074 249.666 77.1519 250.028 77.7508 250.274C78.3497 250.521 78.9911 250.647 79.6386 250.645L199.593 250.352C200.24 250.351 200.882 250.222 201.479 249.972C202.077 249.722 202.62 249.357 203.077 248.897C203.533 248.437 203.895 247.892 204.141 247.292C204.387 246.692 204.512 246.049 204.51 245.401L203.965 20.8058C203.963 20.158 203.834 19.5168 203.584 18.919C203.335 18.3212 202.97 17.7784 202.512 17.3217C202.053 16.8649 201.508 16.5031 200.91 16.257C200.311 16.0108 199.67 15.8851 199.023 15.887Z" fill="url(#paint0_linear)"/>
    </g>
    <path d="M197.285 18.9533L80.82 19.2382C78.1023 19.2449 75.9046 21.4557 75.9112 24.1763L76.4442 242.552C76.4509 245.272 78.6594 247.472 81.377 247.466L197.842 247.181C200.56 247.174 202.758 244.963 202.751 242.243L202.218 23.8673C202.211 21.1468 200.003 18.9467 197.285 18.9533Z" fill="white"/>
    <path opacity="0.4" d="M170.797 24.7388C170.437 27.1595 169.225 29.3717 167.378 30.9754C165.531 32.579 163.172 33.4682 160.728 33.4822L117.1 33.5869C114.658 33.5825 112.297 32.704 110.444 31.1098C108.592 29.5157 107.37 27.3111 106.999 24.894L83.8921 24.9518C83.262 24.9533 82.6383 25.0789 82.0567 25.3216C81.4751 25.5643 80.947 25.9193 80.5024 26.3663C80.0579 26.8134 79.7057 27.3437 79.4658 27.927C79.226 28.5103 79.1033 29.1352 79.1047 29.7659L79.6062 236.946C79.6076 237.577 79.7333 238.202 79.9759 238.785C80.2186 239.367 80.5736 239.896 81.0205 240.341C81.4674 240.786 81.9976 241.139 82.5807 241.378C83.1638 241.618 83.7884 241.741 84.4188 241.739L194.813 241.472C195.443 241.47 196.066 241.344 196.648 241.102C197.23 240.859 197.758 240.504 198.202 240.057C198.647 239.61 198.999 239.08 199.239 238.496C199.479 237.913 199.601 237.288 199.6 236.657L199.099 29.477C199.097 28.8463 198.972 28.2219 198.729 27.6397C198.487 27.0575 198.132 26.5288 197.686 26.0838C197.239 25.6387 196.709 25.2861 196.127 25.0461C195.544 24.806 194.92 24.6832 194.29 24.6846L170.797 24.7388Z" fill="#FF7A00"/>
    <path d="M151.27 27.3645L124.569 27.7658C124.17 27.7718 123.852 28.1 123.858 28.4988L123.863 28.8166C123.869 29.2155 124.197 29.534 124.595 29.528L151.296 29.1268C151.694 29.1208 152.013 28.7926 152.007 28.3937L152.002 28.0759C151.996 27.677 151.668 27.3586 151.27 27.3645Z" fill="#DBDBDB"/>
    <path d="M157.994 29.0226C158.577 29.0138 159.044 28.533 159.035 27.9486C159.026 27.3643 158.546 26.8977 157.962 26.9065C157.378 26.9153 156.912 27.3961 156.921 27.9804C156.93 28.5647 157.41 29.0313 157.994 29.0226Z" fill="#DBDBDB"/>
    <g opacity="0.5">
      <path opacity="0.5" d="M154.071 182.247C154.074 176.083 152.482 170.024 149.45 164.658C146.419 159.293 142.052 154.805 136.773 151.631C131.495 148.457 125.486 146.706 119.331 146.546C113.176 146.387 107.084 147.826 101.649 150.723C96.2143 153.62 91.6213 157.876 88.3173 163.078C85.0133 168.279 83.1109 174.248 82.7952 180.404C82.4795 186.559 83.7613 192.692 86.5158 198.205C89.2704 203.717 93.4038 208.422 98.5137 211.861L98.5353 212.02C99.7002 213.137 101.075 214.012 102.579 214.595L102.626 214.436C104.297 215.881 111.328 218.167 119.406 218.145H119.582C124.698 218.145 130.254 217.242 135.138 214.595C135.138 214.595 135.182 214.501 135.247 214.324C136.484 213.742 137.619 212.964 138.609 212.02C138.628 211.883 138.647 211.748 138.667 211.615C143.419 208.336 147.304 203.949 149.988 198.833C152.671 193.717 154.073 188.025 154.071 182.247Z" fill="url(#paint1_linear)"/>
    </g>
    <path d="M118.406 216.881C137.512 216.881 153 201.376 153 182.25C153 163.124 137.512 147.62 118.406 147.62C99.3008 147.62 83.8127 163.124 83.8127 182.25C83.8127 201.376 99.3008 216.881 118.406 216.881Z" fill="#F5F5F5"/>
    <path d="M105.192 196.49C105.192 196.49 96.9481 197.166 99.1308 212.197C100.259 213.283 101.592 214.135 103.052 214.703L107.688 198.997L105.192 196.49Z" fill="#FDA57D"/>
    <path d="M131.939 196.49C131.939 196.49 140.182 197.166 137.999 212.197C136.871 213.283 135.538 214.135 134.078 214.703L129.442 198.989L131.939 196.49Z" fill="#FDA57D"/>
    <path d="M105.549 171.856C105.549 171.856 101.627 183.283 99.4878 182.2C99.4878 182.2 120.131 200.051 138.36 182.2C138.36 182.2 135.149 176.486 130.514 171.845L105.549 171.856Z" fill="#333333"/>
    <path d="M118.782 186.136C127.252 186.136 134.118 179.263 134.118 170.784C134.118 162.305 127.252 155.431 118.782 155.431C110.312 155.431 103.446 162.305 103.446 170.784C103.446 179.263 110.312 186.136 118.782 186.136Z" fill="#333333"/>
    <path opacity="0.1" d="M131.78 196.49H105.037L102.54 207.202C102.54 207.202 101.075 212.161 102.901 214.342C104.726 216.523 121.762 221.482 134.287 214.703C135.38 211.848 135.507 208.713 134.648 205.779C133.205 200.781 134.287 205.418 134.287 205.418L131.78 196.49Z" fill="black"/>
    <path opacity="0.1" d="M132.137 196.49H105.39L102.894 207.202C102.894 207.202 101.429 212.161 103.254 214.342C105.08 216.523 122.115 221.482 134.641 214.703C135.733 211.848 135.86 208.713 135.002 205.779C133.559 200.781 134.641 205.418 134.641 205.418L132.137 196.49Z" fill="black"/>
    <path d="M131.939 196.49H105.192L102.695 207.202C102.695 207.202 101.23 212.161 103.056 214.342C104.881 216.523 121.917 221.482 134.442 214.703C135.535 211.848 135.662 208.713 134.803 205.779C133.36 200.781 134.442 205.418 134.442 205.418L131.939 196.49Z" fill="#5B074D"/>
    <path opacity="0.1" d="M113.395 187.603H124.103V197.968C124.103 198.435 124.011 198.897 123.832 199.329C123.654 199.76 123.392 200.153 123.062 200.483C122.732 200.813 122.34 201.075 121.909 201.254C121.478 201.433 121.016 201.525 120.549 201.525H116.942C115.999 201.525 115.095 201.15 114.429 200.483C113.763 199.816 113.388 198.911 113.388 197.968V187.603H113.395Z" fill="black"/>
    <path d="M113.395 187.209H124.103V197.574C124.103 198.041 124.011 198.503 123.832 198.935C123.654 199.367 123.392 199.759 123.062 200.089C122.732 200.419 122.34 200.681 121.909 200.86C121.478 201.039 121.016 201.131 120.549 201.131H116.942C115.999 201.131 115.095 200.756 114.429 200.089C113.763 199.422 113.388 198.517 113.388 197.574V187.209H113.395Z" fill="#FDA57D"/>
    <path opacity="0.1" d="M113.417 188.751C116.866 190.041 120.662 190.051 124.117 188.78V187.465H113.417V188.751Z" fill="black"/>
    <path d="M118.782 189.47C127.252 189.47 134.118 182.596 134.118 174.117C134.118 165.638 127.252 158.765 118.782 158.765C110.312 158.765 103.446 165.638 103.446 174.117C103.446 182.596 110.312 189.47 118.782 189.47Z" fill="#FDA57D"/>
    <path d="M104.124 168.285H133.367C133.367 168.285 130.871 156.464 119.817 157.219C108.763 157.974 104.124 168.285 104.124 168.285Z" fill="#333333"/>
    <path d="M103.767 176.14C104.554 176.14 105.192 174.941 105.192 173.463C105.192 171.985 104.554 170.787 103.767 170.787C102.98 170.787 102.342 171.985 102.342 173.463C102.342 174.941 102.98 176.14 103.767 176.14Z" fill="#FDA57D"/>
    <path d="M133.721 176.14C134.508 176.14 135.146 174.941 135.146 173.463C135.146 171.985 134.508 170.787 133.721 170.787C132.934 170.787 132.296 171.985 132.296 173.463C132.296 174.941 132.934 176.14 133.721 176.14Z" fill="#FDA57D"/>
    <path opacity="0.1" d="M104.124 168.682H133.367C133.367 168.682 130.871 156.861 119.817 157.616C108.763 158.371 104.124 168.682 104.124 168.682Z" fill="black"/>
  <g opacity="0.5">
    <path opacity="0.5" d="M125.164 88.0661C125.161 81.9023 126.753 75.8429 129.785 70.4778C132.816 65.1127 137.183 60.6247 142.462 57.4507C147.74 54.2767 153.749 52.5248 159.904 52.3657C166.059 52.2065 172.151 53.6454 177.586 56.5424C183.021 59.4394 187.614 63.6956 190.918 68.8969C194.222 74.0982 196.124 80.0672 196.44 86.2229C196.755 92.3787 195.474 98.5114 192.719 104.024C189.965 109.537 185.831 114.241 180.721 117.68L180.7 117.839C179.537 118.967 178.163 119.852 176.655 120.443L176.609 120.284C174.938 121.729 167.907 124.015 159.829 123.993H159.653C154.537 123.993 148.981 123.09 144.096 120.443C144.096 120.443 144.053 120.349 143.988 120.172C142.751 119.59 141.616 118.812 140.626 117.868C140.607 117.731 140.587 117.596 140.568 117.464C135.812 114.181 131.924 109.79 129.24 104.669C126.557 99.5474 125.158 93.8494 125.164 88.0661Z" fill="url(#paint2_linear)"/>
  </g>
  <path d="M160.825 122.7C179.931 122.7 195.419 107.196 195.419 88.0698C195.419 68.9439 179.931 53.4392 160.825 53.4392C141.72 53.4392 126.231 68.9439 126.231 88.0698C126.231 107.196 141.72 122.7 160.825 122.7Z" fill="#F5F5F5"/>
  <path d="M147.264 101.259C147.264 101.259 139.02 101.934 141.203 116.965C142.332 118.05 143.665 118.899 145.125 119.465L149.76 103.758L147.264 101.259Z" fill="#BE7C5E"/>
  <path d="M174.007 101.259C174.007 101.259 182.251 101.934 180.068 116.965C178.939 118.05 177.606 118.899 176.147 119.465L171.511 103.758L174.007 101.259Z" fill="#BE7C5E"/>
  <path d="M147.617 76.625C147.617 76.625 146.982 78.4741 146.084 80.5976C144.122 85.2926 146.362 103.245 151.056 105.156C156.323 107.323 163.249 108.681 170.447 106.055C176.699 103.773 178.629 83.3026 174.206 78.3368C173.686 77.7518 173.145 77.1703 172.579 76.6069L147.617 76.625Z" fill="#333333"/>
  <path d="M160.85 90.9085C169.32 90.9085 176.186 84.035 176.186 75.5561C176.186 67.0771 169.32 60.2036 160.85 60.2036C152.38 60.2036 145.514 67.0771 145.514 75.5561C145.514 84.035 152.38 90.9085 160.85 90.9085Z" fill="#333333"/>
  <path opacity="0.1" d="M173.852 101.259H147.105L144.609 111.971C144.609 111.971 143.144 116.929 144.969 119.111C146.795 121.292 163.83 126.251 176.356 119.472C177.448 116.617 177.575 113.482 176.717 110.548C175.274 105.549 176.356 110.187 176.356 110.187L173.852 101.259Z" fill="black"/>
  <path opacity="0.1" d="M174.206 101.259H147.459L144.962 111.971C144.962 111.971 143.497 116.929 145.323 119.111C147.148 121.292 164.184 126.251 176.709 119.472C177.802 116.617 177.929 113.482 177.07 110.548C175.627 105.549 176.709 110.187 176.709 110.187L174.206 101.259Z" fill="black"/>
  <path d="M174.007 101.259H147.264L144.767 111.971C144.767 111.971 143.303 116.929 145.128 119.111C146.954 121.292 163.989 126.251 176.515 119.472C177.607 116.617 177.734 113.482 176.875 110.548C175.432 105.549 176.515 110.187 176.515 110.187L174.007 101.259Z" fill="#FF7A00"/>
  <path opacity="0.1" d="M155.464 92.3748H166.164V102.74C166.164 103.683 165.79 104.588 165.123 105.255C164.457 105.922 163.553 106.297 162.611 106.297H159.003C158.061 106.297 157.157 105.922 156.49 105.255C155.824 104.588 155.449 103.683 155.449 102.74V92.3748H155.464Z" fill="black"/>
  <path d="M155.464 91.9775H166.164V102.343C166.164 103.286 165.79 104.191 165.123 104.858C164.457 105.525 163.553 105.9 162.611 105.9H159.003C158.061 105.9 157.157 105.525 156.49 104.858C155.824 104.191 155.449 103.286 155.449 102.343V91.9775H155.464Z" fill="#BE7C5E"/>
  <path opacity="0.1" d="M155.489 93.5196C158.938 94.8095 162.734 94.8197 166.189 93.5485V92.2339H155.489V93.5196Z" fill="black"/>
  <path d="M160.85 94.2384C169.32 94.2384 176.186 87.3648 176.186 78.8859C176.186 70.407 169.32 63.5334 160.85 63.5334C152.38 63.5334 145.514 70.407 145.514 78.8859C145.514 87.3648 152.38 94.2384 160.85 94.2384Z" fill="#BE7C5E"/>
  <path d="M146.192 73.0568H175.436C175.436 73.0568 172.939 61.2364 161.886 61.9912C150.832 62.746 146.192 73.0568 146.192 73.0568Z" fill="#333333"/>
  <path d="M145.835 80.9084C146.622 80.9084 147.26 79.7103 147.26 78.2323C147.26 76.7543 146.622 75.5562 145.835 75.5562C145.048 75.5562 144.41 76.7543 144.41 78.2323C144.41 79.7103 145.048 80.9084 145.835 80.9084Z" fill="#BE7C5E"/>
  <path d="M175.79 80.9084C176.577 80.9084 177.215 79.7103 177.215 78.2323C177.215 76.7543 176.577 75.5562 175.79 75.5562C175.002 75.5562 174.365 76.7543 174.365 78.2323C174.365 79.7103 175.002 80.9084 175.79 80.9084Z" fill="#BE7C5E"/>
  <path opacity="0.1" d="M146.192 73.454H175.436C175.436 73.454 172.939 61.6336 161.886 62.3884C150.832 63.1432 146.192 73.454 146.192 73.454Z" fill="black"/>
  <g opacity="0.5">
    <path opacity="0.5" d="M1.80371 57.1013V108.645H82.9251C82.9251 108.645 88.9138 120.443 99.21 123.874C99.21 123.874 95.9235 115.517 99.3543 108.645H121.938V57.1013H1.80371Z" fill="url(#paint3_linear)"/>
  </g>
  <path d="M5.05078 58.8672V107.622H86.2227C86.2227 107.622 86.2227 117.373 95.9633 120.624C95.9633 120.624 92.7164 114.123 95.9633 107.622H118.691V58.8672H5.05078Z" fill="#FF7A00"/>
  <path d="M79.7288 68.6184H14.7913V75.1191H79.7288V68.6184Z" fill="#5B074D"/>
  <path d="M102.457 78.3694H14.7913V84.8701H102.457V78.3694Z" fill="#5B074D"/>
  <path d="M92.7163 88.1204H14.7913V94.621H92.7163V88.1204Z" fill="#5B074D"/>
  <g opacity="0.5">
    <path opacity="0.5" d="M277.788 156.417V207.961H196.67C196.67 207.961 190.682 219.759 180.382 223.19C180.382 223.19 183.668 214.833 180.238 207.961H157.654V156.417H277.788Z" fill="url(#paint4_linear)"/>
  </g>
  <path d="M274.542 158.183V206.938H193.37C193.37 206.938 193.37 216.69 183.629 219.94C183.629 219.94 186.876 213.439 183.629 206.938H160.901V158.183H274.542Z" fill="#5B074D"/>
  <path d="M239.187 167.934H174.249V174.435H239.187V167.934Z" fill="#FF7A00"/>
  <path d="M261.915 177.685H174.249V184.186H261.915V177.685Z" fill="#FF7A00"/>
  <path d="M252.174 187.436H174.249V193.937H252.174V187.436Z" fill="#FF7A00"/>
  <g opacity="0.5">
    <path opacity="0.5" d="M31.3865 257.86H30.3042V264H31.3865V257.86Z" fill="#47E6B1"/>
    <path opacity="0.5" d="M33.9119 261.472V260.388H27.7789V261.472H33.9119Z" fill="#47E6B1"/>
  </g>
  <g opacity="0.5">
    <path opacity="0.5" d="M229.446 69.3406H228.364V75.4801H229.446V69.3406Z" fill="#47E6B1"/>
    <path opacity="0.5" d="M231.971 72.9521V71.8687H225.838V72.9521H231.971Z" fill="#47E6B1"/>
  </g>
  <g opacity="0.5">
    <path opacity="0.5" d="M252.535 221.023H251.453V227.163H252.535V221.023Z" fill="#47E6B1"/>
    <path opacity="0.5" d="M255.06 224.635V223.551H248.927V224.635H255.06Z" fill="#47E6B1"/>
  </g>
  <g opacity="0.5">
    <path opacity="0.5" d="M184.35 0H183.268V6.13953H184.35V0Z" fill="#47E6B1"/>
    <path opacity="0.5" d="M186.876 3.61152V2.52808L180.743 2.52808V3.61152L186.876 3.61152Z" fill="#47E6B1"/>
  </g>
  <path opacity="0.5" d="M93.3295 257.25C93.0342 257.117 92.7977 256.881 92.6648 256.585C92.5318 256.29 92.5116 255.956 92.608 255.647C92.6234 255.599 92.6331 255.549 92.6368 255.499C92.646 255.356 92.6089 255.214 92.5309 255.093C92.4529 254.973 92.3382 254.882 92.204 254.832C92.0697 254.783 91.9231 254.778 91.7859 254.819C91.6487 254.859 91.5284 254.943 91.4427 255.058C91.4137 255.098 91.3895 255.142 91.3705 255.188C91.2379 255.484 91.0017 255.72 90.7066 255.853C90.4114 255.986 90.0778 256.007 89.7687 255.91C89.7208 255.895 89.6711 255.885 89.6208 255.881C89.4781 255.872 89.3361 255.909 89.2162 255.987C89.0963 256.066 89.0047 256.18 88.9553 256.315C88.9058 256.449 88.901 256.596 88.9416 256.733C88.9823 256.871 89.0661 256.991 89.1807 257.077C89.221 257.106 89.2646 257.13 89.3106 257.149C89.6059 257.282 89.8423 257.518 89.9753 257.814C90.1082 258.109 90.1284 258.443 90.0321 258.752C90.0167 258.801 90.007 258.85 90.0033 258.901C89.994 259.043 90.0312 259.186 90.1092 259.306C90.1872 259.426 90.3019 259.517 90.4361 259.567C90.5703 259.616 90.717 259.621 90.8542 259.58C90.9913 259.54 91.1117 259.456 91.1974 259.341C91.2264 259.301 91.2506 259.257 91.2695 259.211C91.4022 258.916 91.6384 258.679 91.9335 258.546C92.2287 258.413 92.5623 258.392 92.8713 258.489C92.9193 258.504 92.969 258.514 93.0192 258.518C93.162 258.527 93.3039 258.49 93.4239 258.412C93.5438 258.334 93.6353 258.219 93.6848 258.084C93.7343 257.95 93.7391 257.803 93.6984 257.666C93.6578 257.529 93.574 257.408 93.4594 257.322C93.419 257.293 93.3755 257.269 93.3295 257.25Z" fill="#FF7A00"/>
  <path opacity="0.5" d="M20.8883 142.64C20.593 142.507 20.3566 142.27 20.2236 141.975C20.0907 141.679 20.0705 141.345 20.1668 141.036C20.1822 140.988 20.1919 140.938 20.1957 140.888C20.2049 140.745 20.1677 140.603 20.0897 140.483C20.0117 140.363 19.897 140.271 19.7628 140.222C19.6286 140.172 19.4819 140.167 19.3448 140.208C19.2076 140.249 19.0872 140.333 19.0015 140.447C18.9725 140.488 18.9483 140.531 18.9294 140.577C18.7967 140.873 18.5605 141.11 18.2654 141.243C17.9703 141.376 17.6366 141.396 17.3276 141.3C17.2796 141.284 17.2299 141.275 17.1797 141.271C17.0369 141.262 16.895 141.299 16.775 141.377C16.6551 141.455 16.5636 141.57 16.5141 141.704C16.4646 141.838 16.4598 141.985 16.5005 142.123C16.5411 142.26 16.6249 142.38 16.7395 142.466C16.7799 142.495 16.8235 142.519 16.8694 142.538C17.1647 142.671 17.4012 142.908 17.5341 143.203C17.6671 143.499 17.6873 143.833 17.5909 144.142C17.5755 144.19 17.5658 144.24 17.5621 144.29C17.547 144.435 17.5803 144.582 17.6567 144.707C17.7332 144.831 17.8487 144.927 17.9852 144.979C18.1216 145.032 18.2715 145.037 18.4116 144.996C18.5517 144.954 18.6741 144.867 18.7598 144.749C18.7888 144.708 18.8131 144.665 18.832 144.619C18.9646 144.323 19.2008 144.086 19.496 143.953C19.7911 143.82 20.1247 143.8 20.4338 143.896C20.4818 143.912 20.5314 143.921 20.5817 143.925C20.7244 143.934 20.8664 143.897 20.9863 143.819C21.1062 143.741 21.1978 143.626 21.2473 143.492C21.2967 143.358 21.3015 143.211 21.2609 143.073C21.2203 142.936 21.1364 142.816 21.0218 142.73C20.9813 142.694 20.9365 142.664 20.8883 142.64Z" fill="#FF7A00"/>
  <path opacity="0.5" d="M60.2116 174.059C59.9163 173.927 59.6798 173.69 59.5469 173.395C59.4139 173.099 59.3937 172.765 59.49 172.456C59.5055 172.408 59.5152 172.358 59.5189 172.308C59.5281 172.165 59.4909 172.023 59.4129 171.903C59.3349 171.783 59.2203 171.691 59.086 171.642C58.9518 171.592 58.8052 171.587 58.668 171.628C58.5308 171.669 58.4104 171.753 58.3248 171.867C58.2958 171.908 58.2715 171.951 58.2526 171.997C58.12 172.293 57.8838 172.53 57.5886 172.663C57.2935 172.796 56.9599 172.816 56.6508 172.72C56.6028 172.704 56.5532 172.694 56.5029 172.691C56.3601 172.681 56.2182 172.719 56.0983 172.797C55.9784 172.875 55.8868 172.99 55.8373 173.124C55.7879 173.258 55.7831 173.405 55.8237 173.542C55.8643 173.68 55.9482 173.8 56.0628 173.886C56.1031 173.915 56.1467 173.939 56.1927 173.958C56.4879 174.091 56.7244 174.328 56.8574 174.623C56.9903 174.918 57.0105 175.252 56.9142 175.562C56.8988 175.61 56.8891 175.66 56.8853 175.71C56.8702 175.855 56.9035 176.002 56.98 176.126C57.0565 176.251 57.1719 176.347 57.3084 176.399C57.4449 176.451 57.5948 176.457 57.7348 176.415C57.8749 176.374 57.9973 176.287 58.0831 176.169C58.1121 176.128 58.1363 176.085 58.1552 176.039C58.2879 175.743 58.5241 175.506 58.8192 175.373C59.1143 175.24 59.448 175.22 59.757 175.316C59.805 175.332 59.8546 175.341 59.9049 175.345C60.0477 175.354 60.1896 175.317 60.3096 175.239C60.4295 175.161 60.521 175.046 60.5705 174.912C60.62 174.777 60.6247 174.631 60.5841 174.493C60.5435 174.356 60.4596 174.235 60.345 174.15C60.3045 174.114 60.2597 174.084 60.2116 174.059Z" fill="#FF7A00"/>
  <path opacity="0.5" d="M284.607 259.291C284.311 259.158 284.075 258.921 283.942 258.626C283.809 258.33 283.789 257.997 283.885 257.687C283.901 257.639 283.91 257.589 283.914 257.539C283.923 257.396 283.886 257.254 283.808 257.134C283.73 257.014 283.615 256.922 283.481 256.873C283.347 256.823 283.2 256.818 283.063 256.859C282.926 256.9 282.805 256.984 282.72 257.098C282.691 257.139 282.667 257.182 282.648 257.228C282.515 257.524 282.279 257.761 281.984 257.894C281.689 258.027 281.355 258.047 281.046 257.951C280.998 257.935 280.948 257.926 280.898 257.922C280.755 257.913 280.613 257.95 280.493 258.028C280.373 258.106 280.282 258.221 280.232 258.355C280.183 258.49 280.178 258.636 280.219 258.774C280.259 258.911 280.343 259.032 280.458 259.117C280.498 259.146 280.542 259.171 280.588 259.19C280.883 259.322 281.119 259.559 281.252 259.854C281.385 260.15 281.406 260.484 281.309 260.793C281.294 260.841 281.284 260.891 281.28 260.941C281.265 261.087 281.299 261.233 281.375 261.358C281.452 261.482 281.567 261.578 281.703 261.63C281.84 261.683 281.99 261.688 282.13 261.647C282.27 261.605 282.392 261.518 282.478 261.4C282.507 261.359 282.531 261.316 282.55 261.27C282.683 260.974 282.919 260.737 283.214 260.604C283.509 260.471 283.843 260.451 284.152 260.547C284.2 260.563 284.25 260.573 284.3 260.576C284.443 260.586 284.585 260.548 284.705 260.47C284.825 260.392 284.916 260.277 284.966 260.143C285.015 260.009 285.02 259.862 284.979 259.725C284.939 259.587 284.855 259.467 284.74 259.381C284.7 259.345 284.655 259.315 284.607 259.291Z" fill="#5B074D"/>
  <path opacity="0.5" d="M2.16458 240.164C3.36005 240.164 4.32917 239.194 4.32917 237.997C4.32917 236.8 3.36005 235.83 2.16458 235.83C0.969117 235.83 0 236.8 0 237.997C0 239.194 0.969117 240.164 2.16458 240.164Z" fill="#5B074D"/>
  <path opacity="0.5" d="M246.402 25.2803C247.597 25.2803 248.566 24.3102 248.566 23.1134C248.566 21.9167 247.597 20.9465 246.402 20.9465C245.206 20.9465 244.237 21.9167 244.237 23.1134C244.237 24.3102 245.206 25.2803 246.402 25.2803Z" fill="#FF7A00"/>
  <path opacity="0.5" d="M37.5196 29.6143C38.715 29.6143 39.6841 28.6442 39.6841 27.4474C39.6841 26.2507 38.715 25.2805 37.5196 25.2805C36.3241 25.2805 35.355 26.2507 35.355 27.4474C35.355 28.6442 36.3241 29.6143 37.5196 29.6143Z" fill="#5B074D"/>
  <path opacity="0.5" d="M248.566 127.125C249.762 127.125 250.731 126.154 250.731 124.958C250.731 123.761 249.762 122.791 248.566 122.791C247.371 122.791 246.402 123.761 246.402 124.958C246.402 126.154 247.371 127.125 248.566 127.125Z" fill="#FF7A00"/>
  </g>
  <defs>
  <linearGradient id="paint0_linear" x1="88.3028" y1="254.711" x2="190.547" y2="11.89" gradientUnits="userSpaceOnUse">
    <stop stop-color="#808080" stop-opacity="0.25"/>
    <stop offset="0.54" stop-color="#808080" stop-opacity="0.12"/>
    <stop offset="1" stop-color="#808080" stop-opacity="0.1"/>
  </linearGradient>
  <linearGradient id="paint1_linear" x1="38112.9" y1="49456.2" x2="38112.9" y2="35255.8" gradientUnits="userSpaceOnUse">
    <stop stop-color="#808080" stop-opacity="0.25"/>
    <stop offset="0.54" stop-color="#808080" stop-opacity="0.12"/>
    <stop offset="1" stop-color="#808080" stop-opacity="0.1"/>
  </linearGradient>
  <linearGradient id="paint2_linear" x1="42737.1" y1="30699.8" x2="42737.1" y2="16493.6" gradientUnits="userSpaceOnUse">
    <stop stop-color="#808080" stop-opacity="0.25"/>
    <stop offset="0.54" stop-color="#808080" stop-opacity="0.12"/>
    <stop offset="1" stop-color="#808080" stop-opacity="0.1"/>
  </linearGradient>
  <linearGradient id="paint3_linear" x1="45232.4" y1="28602.5" x2="45232.4" y2="16256.9" gradientUnits="userSpaceOnUse">
    <stop stop-color="#808080" stop-opacity="0.25"/>
    <stop offset="0.54" stop-color="#808080" stop-opacity="0.12"/>
    <stop offset="1" stop-color="#808080" stop-opacity="0.1"/>
  </linearGradient>
  <linearGradient id="paint4_linear" x1="-396884" y1="47064.4" x2="-396884" y2="34718.7" gradientUnits="userSpaceOnUse">
    <stop stop-color="#808080" stop-opacity="0.25"/>
    <stop offset="0.54" stop-color="#808080" stop-opacity="0.12"/>
    <stop offset="1" stop-color="#808080" stop-opacity="0.1"/>
  </linearGradient>
  <clipPath id="clip0">
    <rect width="285" height="264" fill="white"/>
  </clipPath>
  </defs>
</svg>
