<svg width="104" height="101" viewBox="0 0 104 101" fill="none" xmlns="http://www.w3.org/2000/svg">
  <rect width="104" height="101" fill="#5B074D"/>
  <g clip-path="url(#clip0)">
    <path d="M50.851 31.5008C50.8507 31.5008 50.8505 31.5008 50.8502 31.5008L48.6676 31.4918C48.1199 31.4878 47.5934 31.7032 47.2056 32.0901L45.9422 33.3431C45.8129 33.4716 45.6377 33.5435 45.4553 33.543L44.6492 33.5392C44.2692 33.5379 43.9622 33.2287 43.9636 32.8486C43.9636 32.8484 43.9635 32.8482 43.9636 32.8479L43.9664 32.16C43.9679 31.78 43.6612 31.4708 43.2812 31.4692L36.4245 31.4434C36.3794 31.4434 36.3345 31.4478 36.2902 31.4565C33.8982 31.9209 31.6823 33.0407 29.8896 34.691L22.8192 41.2025C22.5396 41.4598 22.5213 41.895 22.7786 42.1747C22.969 42.3817 23.2663 42.452 23.5292 42.3522L32.8327 38.8348C33.7564 38.5326 34.718 38.3617 35.6893 38.3274L35.6752 41.7594C35.6737 42.1393 35.9804 42.4486 36.3603 42.4502L36.2235 74.79C36.2487 76.6899 37.8093 78.2096 39.7092 78.1844C41.5625 78.1598 43.0632 76.6714 43.1031 74.8183L43.2364 42.479C43.6164 42.4805 43.9256 42.1738 43.9272 41.7938L43.9362 39.7295C43.9462 39.3531 44.2505 39.0513 44.627 39.0444L45.4327 39.0477C45.6152 39.0478 45.7902 39.1211 45.9184 39.2511L47.1714 40.5144C47.5559 40.9046 48.0807 41.1243 48.6285 41.1247L50.8106 41.1342C51.1906 41.136 51.5001 40.8293 51.5019 40.4493C51.5019 40.449 51.5019 40.4488 51.5019 40.4486L51.5358 32.1921C51.5376 31.8121 51.2309 31.5026 50.851 31.5008ZM41.7277 74.8121C41.723 75.9522 40.7949 76.8727 39.6548 76.868C38.5148 76.8633 37.5943 75.9352 37.599 74.7952L37.7318 42.4564L41.8605 42.4733L41.7277 74.8121ZM50.1283 39.7554L48.6346 39.7483C48.4522 39.747 48.2778 39.6739 48.1489 39.5449L46.8959 38.2816C46.5112 37.8917 45.9865 37.6719 45.4388 37.6713L44.6326 37.6675C43.4929 37.663 42.5651 38.5831 42.5603 39.7229L42.5541 41.0993L37.0495 41.0767L37.0637 37.6359C37.0652 37.256 36.7584 36.9467 36.3785 36.9451L36.1031 36.944C34.8365 36.9409 33.5777 37.1423 32.3753 37.5402L26.362 39.811L30.822 35.7035C32.4104 34.24 34.3709 33.242 36.4889 32.8187L42.5871 32.8438C42.5842 33.9831 43.5036 34.9101 44.643 34.9166L45.4496 34.9199C45.9972 34.9234 46.5235 34.7079 46.9112 34.3212L48.1746 33.0682C48.3045 32.9402 48.4795 32.8685 48.6619 32.8687L50.1566 32.8749L50.1283 39.7554Z" fill="#FF7A00"/>
    <path d="M36.9385 71.0546V46.1262V41.8931H42.1123V61.1773V67.7621V75.758L40.2309 77.1691H38.8199L36.9385 75.758V71.0546Z" fill="#FF7A00"/>
    <path d="M32.235 33.8971L25.6502 40.0116L30.824 39.0709L34.5868 37.6599H36.4681V41.4227H37.4088H43.053V39.5413L43.9937 38.1302H45.8751L47.7565 40.0116H50.5786V37.6599V32.4861H48.2268L45.8751 34.3675H44.464L42.5827 32.4861H41.642H35.5275L32.235 33.8971Z" fill="#FF7A00"/>
    <rect x="35.5274" y="41.8931" width="8.46624" height="0.940694" fill="#5B074D"/>
  </g>
  <g clip-path="url(#clip1)">
    <path d="M71.1899 31.6039L67.976 31.6413C66.9989 31.654 66.193 32.3937 66.101 33.3646L65.5019 39.5638C65.4905 39.6805 65.4974 39.7979 65.5216 39.913L66.0761 42.4957C66.3069 43.5703 67.1841 44.342 68.235 44.529L68.3882 55.0007L66.833 55.0209C65.4073 55.0373 64.181 56.2979 64.1985 57.7248L64.3965 72.9765C64.4163 74.5058 65.0303 75.9346 66.1239 77.0001C67.2174 78.0657 68.6617 78.6423 70.1899 78.6214C71.7181 78.6027 73.1469 77.9887 74.2124 76.8951C75.2779 75.8016 75.8546 74.3573 75.8337 72.8291L75.6357 57.5774C75.6264 56.8634 75.3406 56.1973 74.8304 55.7002C74.3191 55.202 73.6458 54.9335 72.9329 54.9439L71.4381 54.9633L71.2855 44.5325C71.8223 44.4252 72.3075 44.1611 72.6801 43.7788C73.0378 43.4117 73.2927 42.9403 73.3915 42.4083L73.8723 39.8122C73.8934 39.6965 73.8984 39.5778 73.8818 39.4615L73.1057 33.2769C72.9853 32.3098 72.1616 31.5924 71.1899 31.6039Z" fill="#FF7A00"/>
    <circle cx="70.2929" cy="74.8894" r="2.30626" fill="#5B074D"/>
    <line x1="63.3741" y1="58.2456" x2="77.2117" y2="58.2456" stroke="#5B074D"/>
    <line x1="67.0641" y1="45.3306" x2="72.5991" y2="45.3306" stroke="#5B074D"/>
  </g>
  <defs>
    <clipPath id="clip0">
      <rect width="48.9513" height="48.9513" fill="white" transform="translate(6 50) rotate(-44.7646)"/>
    </clipPath>
    <clipPath id="clip1">
      <rect width="39.7128" height="39.7128" fill="white" transform="translate(42 55.4434) rotate(-45.7438)"/>
    </clipPath>
  </defs>
</svg>
