<svg width="44" height="44" viewBox="0 0 44 44" fill="none" xmlns="http://www.w3.org/2000/svg">
  <path d="M26.95 11.5499C26.6141 11.8926 26.4259 12.3534 26.4259 12.8333C26.4259 13.3131 26.6141 13.7739 26.95 14.1166L29.8833 17.0499C30.226 17.3858 30.6868 17.574 31.1666 17.574C31.6465 17.574 32.1073 17.3858 32.45 17.0499L39.3616 10.1383C40.2835 12.1754 40.5626 14.4452 40.1618 16.645C39.761 18.8449 38.6993 20.8703 37.1182 22.4514C35.537 24.0326 33.5116 25.0943 31.3117 25.4951C29.1119 25.8959 26.8422 25.6168 24.805 24.6949L12.1366 37.3633C11.4073 38.0926 10.4181 38.5023 9.38665 38.5023C8.3552 38.5023 7.36599 38.0926 6.63665 37.3633C5.9073 36.6339 5.49756 35.6447 5.49756 34.6133C5.49756 33.5818 5.9073 32.5926 6.63665 31.8633L19.305 19.1949C18.3831 17.1577 18.104 14.888 18.5048 12.6882C18.9056 10.4883 19.9673 8.46287 21.5485 6.88174C23.1296 5.30062 25.155 4.2389 27.3549 3.83808C29.5547 3.43727 31.8245 3.71639 33.8616 4.63826L26.9683 11.5316L26.95 11.5499Z" stroke="white" stroke-width="2" stroke-linecap="round" stroke-linejoin="round"/>
</svg>
