<svg width="144" height="144" viewBox="0 0 144 144" fill="none" xmlns="http://www.w3.org/2000/svg">
<g clip-path="url(#clip0)">
<path d="M131.344 17.1562H12.6562C10.708 17.1562 8.88412 17.6352 7.23402 18.4247L71.7187 82.9094L86.1719 69.0193C86.1719 69.0193 86.173 69.0179 86.1733 69.0173C86.1736 69.0168 86.1747 69.0162 86.1747 69.0162L136.768 18.4258C135.118 17.6358 133.293 17.1562 131.344 17.1562Z" fill="#FF7A00"/>
<path d="M142.733 24.3922L95.1224 72.0005L142.732 119.61C143.521 117.96 144 116.136 144 114.187V29.8124C144 27.8653 143.522 26.0417 142.733 24.3922Z" fill="#FF7A00"/>
<path d="M1.26844 24.3902C0.478969 26.0403 0 27.8642 0 29.8125V114.187C0 116.135 0.478406 117.959 1.26731 119.608L48.8782 72L1.26844 24.3902Z" fill="#FF7A00"/>
<path d="M89.1568 77.9663L74.7017 91.858C73.8776 92.6821 72.7982 93.0941 71.719 93.0941C70.6399 93.0941 69.5602 92.6821 68.7364 91.858L54.8438 77.9657L7.23207 125.574C8.88245 126.364 10.7075 126.844 12.6563 126.844H131.344C133.292 126.844 135.116 126.365 136.766 125.575L89.1568 77.9663Z" fill="#FF7A00"/>
</g>
<defs>
<clipPath id="clip0">
<rect width="144" height="144" fill="white"/>
</clipPath>
</defs>
</svg>
