<svg width="44" height="44" viewBox="0 0 44 44" fill="none" xmlns="http://www.w3.org/2000/svg">
<path d="M42.8184 19.1379C42.817 19.1369 42.816 19.1355 42.815 19.1345L24.8647 1.18668C24.0996 0.421295 23.0823 0 22.0003 0C20.9182 0 19.9009 0.421295 19.1355 1.18668L1.19456 19.1255C1.18852 19.1315 1.18214 19.1379 1.17643 19.1439C-0.39477 20.724 -0.392084 23.2877 1.18416 24.8638C1.90429 25.5842 2.85507 26.0011 3.87199 26.0451C3.91362 26.0491 3.95525 26.0511 3.99721 26.0511H4.71231V39.2593C4.71231 41.8734 6.83948 44 9.45379 44H16.4765C17.1886 44 17.7657 43.4226 17.7657 42.7109V32.3555C17.7657 31.1628 18.7363 30.1926 19.9292 30.1926H24.0714C25.2642 30.1926 26.2344 31.1628 26.2344 32.3555V42.7109C26.2344 43.4226 26.8116 44 27.5236 44H34.5464C37.161 44 39.2879 41.8734 39.2879 39.2593V26.0511H39.9513C41.033 26.0511 42.0502 25.6299 42.816 24.8641C44.3939 23.2857 44.3946 20.7173 42.8184 19.1379V19.1379ZM40.9927 23.0413C40.7144 23.3196 40.3444 23.473 39.9513 23.473H37.9987C37.2866 23.473 36.7095 24.0501 36.7095 24.7621V39.2593C36.7095 40.4517 35.7392 41.4219 34.5464 41.4219H28.8128V32.3555C28.8128 29.7414 26.686 27.6145 24.0714 27.6145H19.9292C17.3145 27.6145 15.1873 29.7414 15.1873 32.3555V41.4219H9.45379C8.26129 41.4219 7.2907 40.4517 7.2907 39.2593V24.7621C7.2907 24.0501 6.71358 23.473 6.00151 23.473H4.08249C4.06235 23.4717 4.04254 23.4707 4.02206 23.4703C3.63799 23.4636 3.27775 23.3112 3.00783 23.041C2.43373 22.4669 2.43373 21.5327 3.00783 20.9583C3.00816 20.9583 3.00816 20.958 3.0085 20.9577L3.0095 20.9567L20.9592 3.00949C21.2371 2.7312 21.6068 2.57812 22.0003 2.57812C22.3934 2.57812 22.763 2.7312 23.0413 3.00949L40.987 20.953C40.9897 20.9557 40.9927 20.9583 40.9954 20.961C41.5664 21.5361 41.5654 22.4683 40.9927 23.0413V23.0413Z" fill="white"/>
</svg>
