<svg width="82" height="82" viewBox="0 0 82 82" fill="none" xmlns="http://www.w3.org/2000/svg">
  <g filter="url(#filter0_d)">
    <circle cx="41" cy="41" r="33" fill="#5B074D"/>
  </g>
  <g clip-path="url(#clip0)">
    <path d="M40.1103 19.4165C38.4363 19.5651 36.9644 20.011 35.4955 20.8151C31.1009 23.2204 28.3471 28.3249 28.4919 33.7875C28.5492 35.8313 28.9504 37.6893 29.7165 39.4629C30.0452 40.223 30.2684 40.6554 30.7148 41.4054C30.9109 41.7297 33.2967 46.0302 36.0234 50.9556C38.747 55.8845 40.988 59.9181 41.0001 59.9181C41.0121 59.9181 43.2532 55.8845 45.9768 50.959C48.7035 46.0302 51.0893 41.7297 51.2853 41.4054C51.7317 40.6554 51.9549 40.223 52.2837 39.4629C53.5535 36.5272 53.8521 33.149 53.1252 29.9329C52.3893 26.6966 50.6459 23.869 48.1786 21.9231C46.0794 20.2644 43.5005 19.359 40.9277 19.3827C40.6442 19.3861 40.2762 19.3996 40.1103 19.4165ZM42.0256 25.3757C43.3527 25.6459 44.4778 26.2912 45.4037 27.3181C47.7232 29.889 47.8921 34.007 45.7958 36.8177C44.7854 38.1758 43.3316 39.0575 41.7421 39.2771C41.3982 39.3244 40.6019 39.3244 40.2581 39.2771C37.6853 38.9224 35.583 36.8617 34.9375 34.0611C34.5122 32.22 34.7807 30.2234 35.6705 28.612C36.6658 26.8182 38.2704 25.6527 40.1857 25.3419C40.5778 25.2777 41.6365 25.298 42.0256 25.3757Z" fill="white"/>
  </g>
  <defs>
    <filter id="filter0_d" x="0" y="0" width="82" height="82" filterUnits="userSpaceOnUse" color-interpolation-filters="sRGB">
      <feFlood flood-opacity="0" result="BackgroundImageFix"/>
        <feColorMatrix in="SourceAlpha" type="matrix" values="0 0 0 0 0 0 0 0 0 0 0 0 0 0 0 0 0 0 127 0"/>
        <feMorphology radius="3" operator="dilate" in="SourceAlpha" result="effect1_dropShadow"/>
      <feOffset/>
      <feGaussianBlur stdDeviation="2.5"/>
      <feColorMatrix type="matrix" values="0 0 0 0 0.14902 0 0 0 0 0.14902 0 0 0 0 0.14902 0 0 0 0.3 0"/>
      <feBlend mode="normal" in2="BackgroundImageFix" result="effect1_dropShadow"/>
      <feBlend mode="normal" in="SourceGraphic" in2="effect1_dropShadow" result="shape"/>
    </filter>
    <clipPath id="clip0">
    <rect width="25.0345" height="43.2414" fill="white" transform="translate(28.4827 19.3793)"/>
    </clipPath>
  </defs>
</svg>
