<svg width="44" height="44" viewBox="0 0 44 44" fill="none" xmlns="http://www.w3.org/2000/svg">
  <path d="M38.412 17.352L23.8318 2.77174C22.3245 1.2644 19.8717 1.26432 18.3643 2.77174C17.0092 4.12672 16.8925 6.19325 17.8932 7.66888L17.8729 7.77037C16.8217 13.0267 14.2626 17.8086 10.472 21.5992L3.78442 28.2867C2.27347 29.7977 2.27321 32.2432 3.78442 33.7542L7.42936 37.3992C8.94023 38.9101 11.3858 38.9102 12.8969 37.3992L13.8081 36.4879L20.1869 42.8667C21.6979 44.3777 24.1433 44.3778 25.6544 42.8667C27.1618 41.3593 27.1618 38.9066 25.6544 37.3992L22.9206 34.6655L23.8319 33.7542C25.3428 32.2433 25.343 29.7979 23.8319 28.2868L23.2126 27.6674C26.259 25.5346 29.7188 24.0497 33.4135 23.3107L33.5162 23.2901C35.0247 24.3086 37.0864 24.1449 38.412 22.8193H38.4121C39.9193 21.312 39.9193 18.8594 38.412 17.352ZM11.0744 35.5767C10.5708 36.0802 9.75543 36.0803 9.25184 35.5766L5.60689 31.9317C5.10321 31.4279 5.10321 30.6129 5.60689 30.1092L11.9856 23.7304L17.4531 29.1979C16.829 29.822 11.7139 34.9371 11.0744 35.5767ZM23.8318 39.2216C24.3342 39.724 24.3342 40.5416 23.8318 41.0441C23.3294 41.5465 22.5117 41.5465 22.0093 41.0441L15.6305 34.6653L17.4531 32.8428L23.8318 39.2216ZM19.2756 31.0204C19.663 30.633 20.2429 30.0396 21.1581 29.2579L22.0093 30.1092C22.513 30.6129 22.513 31.4279 22.0093 31.9317L21.098 32.8429L19.2756 31.0204ZM19.3303 27.4303L13.7531 21.8531C16.742 18.4019 18.8823 14.3281 20.0274 9.90231L31.2811 21.156C26.8553 22.301 22.7816 24.4414 19.3303 27.4303ZM36.5893 20.9967C36.0856 21.5003 35.2705 21.5003 34.7668 20.9967L20.1868 6.41669C19.6831 5.91292 19.6831 5.09789 20.1868 4.59422C20.6904 4.09054 21.5056 4.09054 22.0093 4.59422L36.5893 19.1742C37.0917 19.6766 37.0917 20.4942 36.5893 20.9967Z" fill="white"/>
  <path d="M12.8968 28.2866C12.3936 27.7834 11.5776 27.7834 11.0743 28.2866L9.25184 30.1091C8.74859 30.6123 8.74859 31.4283 9.25184 31.9316C9.755 32.4348 10.5712 32.4348 11.0743 31.9316L12.8968 30.1091C13.4 29.6058 13.4 28.7899 12.8968 28.2866Z" fill="white"/>
  <path d="M29.7506 0C29.0389 0 28.4619 0.576983 28.4619 1.28872V3.86615C28.4619 4.57788 29.0389 5.15487 29.7506 5.15487C30.4624 5.15487 31.0394 4.57788 31.0394 3.86615V1.28872C31.0394 0.576983 30.4624 0 29.7506 0Z" fill="white"/>
  <path d="M40.0603 10.3096H37.4829C36.7711 10.3096 36.1941 10.8866 36.1941 11.5983C36.1941 12.31 36.7711 12.887 37.4829 12.887H40.0603C40.772 12.887 41.349 12.31 41.349 11.5983C41.349 10.8866 40.7719 10.3096 40.0603 10.3096Z" fill="white"/>
  <path d="M38.3941 2.95478C37.891 2.45153 37.0749 2.45153 36.5717 2.95478L33.9942 5.53222C33.491 6.03547 33.491 6.85144 33.9942 7.35469C34.4974 7.85794 35.3135 7.85802 35.8167 7.35469L38.3941 4.77726C38.8974 4.27401 38.8974 3.45812 38.3941 2.95478Z" fill="white"/>
</svg>
