<svg width="162" height="162" viewBox="0 0 162 162" fill="none" xmlns="http://www.w3.org/2000/svg">
<g clip-path="url(#clip0)">
<path d="M126.563 60.75H121.5V40.5C121.5 18.1642 103.336 0 81 0C58.6643 0 40.5 18.1642 40.5 40.5V60.75H35.4375C27.0675 60.75 20.25 67.5608 20.25 75.9375V146.812C20.25 155.189 27.0675 162 35.4375 162H126.563C134.933 162 141.75 155.189 141.75 146.812V75.9375C141.75 67.5608 134.933 60.75 126.563 60.75ZM54 40.5C54 25.6095 66.1095 13.5 81 13.5C95.8905 13.5 108 25.6095 108 40.5V60.75H54V40.5ZM87.75 112.874V128.25C87.75 131.976 84.7328 135 81 135C77.2673 135 74.25 131.976 74.25 128.25V112.874C70.2338 110.531 67.5 106.225 67.5 101.25C67.5 93.8047 73.5548 87.75 81 87.75C88.4453 87.75 94.5 93.8047 94.5 101.25C94.5 106.225 91.7663 110.531 87.75 112.874Z" fill="#FF7A00"/>
</g>
<defs>
<clipPath id="clip0">
<rect width="162" height="162" fill="white"/>
</clipPath>
</defs>
</svg>
