<svg width="914" height="420" viewBox="0 0 914 420" fill="none" xmlns="http://www.w3.org/2000/svg">
  <g opacity="0.1">
    <path d="M9.82959 135.936C24.2823 86.9542 54.8776 44.6129 103.231 24.0892C203.717 -18.5623 430.339 3.43347 599.475 28.7102C684.935 41.4321 762.51 76.5874 819.711 128.517L9.82959 135.936Z" fill="#FF7A00"/>
    <path d="M896.77 366.49H803.968C801.841 366.49 799.801 367.16 798.296 368.353C796.792 369.546 795.947 371.163 795.947 372.85C795.947 374.537 796.792 376.155 798.296 377.348C799.801 378.541 801.841 379.211 803.968 379.211H820.011C817.884 379.211 815.844 379.881 814.339 381.074C812.835 382.266 811.99 383.884 811.99 385.571C811.99 387.258 812.835 388.876 814.339 390.069C815.844 391.261 817.884 391.932 820.011 391.932H808.547C806.42 391.932 804.38 392.602 802.875 393.794C801.371 394.987 800.526 396.605 800.526 398.292C800.526 399.979 801.371 401.597 802.875 402.789C804.38 403.982 806.42 404.652 808.547 404.652H857C846.252 408.613 833.69 411.432 819.22 412.911C687.148 426.364 639.994 417.466 623.36 408.29C602.838 397.001 579.944 388.697 555.476 384.696C473.971 371.381 321.578 355.347 183.486 389.865C114.836 407.029 63.8106 378.036 33.2319 329.608H912.888C911.739 343.682 908.301 356.674 901.99 368.054C900.544 367.051 898.691 366.496 896.77 366.49Z" fill="#FF7A00"/>
    <path d="M1.9954 238.172C-1.56738 209.684 -0.355224 180.947 5.60024 152.711L820.369 129.111C843.05 149.799 862.094 172.827 876.981 197.567L1.9954 238.172ZM324.183 177.208H308.174C310.301 177.208 312.341 176.538 313.846 175.345C315.35 174.153 316.195 172.535 316.195 170.848C316.195 169.161 315.35 167.543 313.846 166.35C312.341 165.158 310.301 164.487 308.174 164.487H215.372C213.245 164.487 211.204 165.158 209.7 166.35C208.196 167.543 207.351 169.161 207.351 170.848C207.351 172.535 208.196 174.153 209.7 175.345C211.204 176.538 213.245 177.208 215.372 177.208H231.415C229.287 177.208 227.247 177.878 225.743 179.071C224.238 180.264 223.393 181.882 223.393 183.569C223.393 185.256 224.238 186.873 225.743 188.066C227.247 189.259 229.287 189.929 231.415 189.929H219.951C217.823 189.929 215.783 190.599 214.279 191.792C212.775 192.985 211.929 194.603 211.929 196.29C211.929 197.977 212.775 199.594 214.279 200.787C215.783 201.98 217.823 202.65 219.951 202.65H312.753C314.88 202.65 316.92 201.98 318.425 200.787C319.929 199.594 320.774 197.977 320.774 196.29C320.774 194.603 319.929 192.985 318.425 191.792C316.92 190.599 314.88 189.929 312.753 189.929H324.183C326.311 189.929 328.351 189.259 329.855 188.066C331.359 186.873 332.205 185.256 332.205 183.569C332.205 181.882 331.359 180.264 329.855 179.071C328.351 177.878 326.311 177.208 324.183 177.208Z" fill="#FF7A00"/>
    <path d="M912.921 329.133L23.3747 311.969C12.5518 289.914 5.38377 264.974 2.07031 239.129H897.336C903.187 254.313 907.516 269.839 910.282 285.563C912.921 300.747 913.995 315.461 912.921 329.133ZM182.654 272.928H166.644C168.772 272.928 170.812 272.258 172.316 271.065C173.82 269.873 174.666 268.255 174.666 266.568C174.666 264.881 173.82 263.263 172.316 262.07C170.812 260.878 168.772 260.208 166.644 260.208H73.8424C71.715 260.208 69.6748 260.878 68.1705 262.07C66.6662 263.263 65.821 264.881 65.821 266.568C65.821 268.255 66.6662 269.873 68.1705 271.065C69.6748 272.258 71.715 272.928 73.8424 272.928H89.8852C87.7578 272.928 85.7175 273.599 84.2132 274.791C82.7089 275.984 81.8638 277.602 81.8638 279.289C81.8638 280.976 82.7089 282.594 84.2132 283.786C85.7175 284.979 87.7578 285.649 89.8852 285.649H78.4213C76.2939 285.649 74.2537 286.319 72.7494 287.512C71.245 288.705 70.3999 290.323 70.3999 292.01C70.3999 293.697 71.245 295.314 72.7494 296.507C74.2537 297.7 76.2939 298.37 78.4213 298.37H171.223C173.35 298.37 175.391 297.7 176.895 296.507C178.399 295.314 179.244 293.697 179.244 292.01C179.244 290.323 178.399 288.705 176.895 287.512C175.391 286.319 173.35 285.649 171.223 285.649H182.654C184.781 285.649 186.821 284.979 188.326 283.786C189.83 282.594 190.675 280.976 190.675 279.289C190.675 277.602 189.83 275.984 188.326 274.791C186.821 273.599 184.781 272.928 182.654 272.928Z" fill="#FF7A00"/>
  </g>
</svg>
